<svg xmlns="http://www.w3.org/2000/svg" xmlns:xlink="http://www.w3.org/1999/xlink" aria-hidden="true" focusable="false" width="1em" height="1em" style="-ms-transform: rotate(360deg); -webkit-transform: rotate(360deg); transform: rotate(360deg);" preserveAspectRatio="xMidYMid meet" viewBox="0 0 24 24"><path d="M19 2.01H6c-1.206 0-3 .799-3 3v14c0 2.201 1.794 3 3 3h15v-2H6.012C5.55 19.998 5 19.815 5 19.01c0-.101.009-.191.024-.273c.112-.575.583-.717.987-.727H20c.018 0 .031-.009.049-.01H21V4.01c0-1.103-.897-2-2-2zm0 14H5v-11c0-.806.55-.988 1-1h7v7l2-1l2 1v-7h2v12z" fill="#ffffff"/></svg>