<svg width="116" height="115" viewBox="0 0 116 115" fill="none" xmlns="http://www.w3.org/2000/svg">
<rect x="1.22222" y="0.722222" width="113.389" height="113.389" rx="6.5" fill="#FFFFFA" className='background' stroke="#252525" stroke-width="1.44444"/>
<path d="M0.5 80.8889H115.333V107.611C115.333 111.6 112.1 114.833 108.111 114.833H7.72222C3.7335 114.833 0.5 111.6 0.5 107.611V80.8889Z" fill="#252525" className='bottom'/>
<path d="M31.7479 89.7429C31.1613 89.3909 30.4793 89.1196 29.7019 88.9289C28.9246 88.7382 28.2133 88.6429 27.5679 88.6429C26.1159 88.6429 24.8253 88.9802 23.6959 89.6549C22.5666 90.3149 21.6866 91.2389 21.0559 92.4269C20.4253 93.6149 20.1099 94.9642 20.1099 96.4749C20.1099 97.9562 20.4033 99.2836 20.9899 100.457C21.5766 101.616 22.4273 102.525 23.5419 103.185C24.6713 103.845 26.0133 104.175 27.5679 104.175C28.2719 104.175 29.0273 104.08 29.8339 103.889C30.6553 103.713 31.3446 103.464 31.9019 103.141L30.6039 100.589C29.6066 101.088 28.5873 101.337 27.5459 101.337C26.8126 101.337 26.1526 101.132 25.5659 100.721C24.9793 100.296 24.5173 99.7162 24.1799 98.9829C23.8426 98.2349 23.6739 97.3916 23.6739 96.4529C23.6739 95.4702 23.8499 94.6049 24.2019 93.8569C24.5539 93.0942 25.0233 92.5076 25.6099 92.0969C26.2113 91.6862 26.8566 91.4809 27.5459 91.4809C28.0886 91.4809 28.5506 91.5249 28.9319 91.6129C29.3279 91.7009 29.9219 91.8696 30.7139 92.1189L31.7479 89.7429ZM40.4176 88.5989C38.951 88.6136 37.6456 88.9582 36.5016 89.6329C35.3576 90.3076 34.463 91.2389 33.8176 92.4269C33.187 93.6149 32.8716 94.9642 32.8716 96.4749C32.8716 97.9122 33.1723 99.2176 33.7736 100.391C34.3896 101.564 35.2623 102.496 36.3916 103.185C37.5356 103.86 38.8776 104.197 40.4176 104.197C41.8843 104.182 43.1896 103.845 44.3336 103.185C45.4776 102.51 46.365 101.579 46.9956 100.391C47.641 99.2029 47.9636 97.8462 47.9636 96.3209C47.9636 94.8836 47.663 93.5782 47.0616 92.4049C46.4603 91.2316 45.5876 90.3076 44.4436 89.6329C43.3143 88.9436 41.9723 88.5989 40.4176 88.5989ZM36.4356 96.4529C36.4356 95.4702 36.619 94.6049 36.9856 93.8569C37.3523 93.0942 37.8363 92.5076 38.4376 92.0969C39.0536 91.6862 39.7283 91.4809 40.4616 91.4809C41.2536 91.4809 41.943 91.6936 42.5296 92.1189C43.131 92.5296 43.593 93.1016 43.9156 93.8349C44.2383 94.5682 44.3996 95.3969 44.3996 96.3209C44.3996 97.4062 44.2236 98.3229 43.8716 99.0709C43.5196 99.8189 43.0356 100.384 42.4196 100.765C41.8183 101.132 41.1436 101.315 40.3956 101.315C39.1783 101.315 38.2103 100.868 37.4916 99.9729C36.7876 99.0636 36.4356 97.8902 36.4356 96.4529ZM52.2976 88.7089L48.8876 89.1049L54.5856 103.889H57.8196L63.5176 88.9289H60.1076L56.2576 99.5329L52.2976 88.7089ZM76.2682 103.889L75.8502 101.205H68.9642V97.7069H74.1342L73.7162 95.0009H68.9642V91.6349H75.3882L74.9702 88.9289H65.5322V103.889H76.2682ZM78.5088 103.889H81.9408V98.6969H84.6248L87.4188 103.889H91.2688L87.7708 97.7289C88.4748 97.3329 89.0321 96.7976 89.4428 96.1229C89.8534 95.4482 90.0588 94.6709 90.0588 93.7909C90.0588 92.1776 89.4941 90.9676 88.3648 90.1609C87.2354 89.3396 85.7908 88.9289 84.0308 88.9289H78.5088V103.889ZM83.9208 91.7009C84.7421 91.7009 85.3728 91.8769 85.8128 92.2289C86.2528 92.5809 86.4728 93.1236 86.4728 93.8569C86.4728 94.5169 86.2381 95.0376 85.7688 95.4189C85.3141 95.7856 84.7128 95.9689 83.9648 95.9689H81.9408V91.7009H83.9208ZM92.608 98.4769L95.336 99.4449L95.71 88.3129H92.212L92.608 98.4769ZM93.972 100.259C93.4587 100.259 93.026 100.435 92.674 100.787C92.322 101.139 92.146 101.572 92.146 102.085C92.146 102.584 92.322 103.009 92.674 103.361C93.026 103.713 93.4587 103.889 93.972 103.889C94.4853 103.889 94.9107 103.713 95.248 103.361C95.6 103.009 95.776 102.584 95.776 102.085C95.776 101.572 95.6 101.139 95.248 100.787C94.9107 100.435 94.4853 100.259 93.972 100.259Z" fill="#FFFFFA" className='text'/>
<path d="M97.2778 24.1945H90.0555V72.5833H97.2778V24.1945Z" fill="#6F4C23" className='table'/>
<path d="M110.278 11.9167H90.0555V22.75H110.278V11.9167Z" fill="#6F4C23" className='table'/>
<path d="M63.0444 34.0166C62.4667 33.8722 61.8889 33.8 61.3111 33.7277C61.8167 33.8 62.3944 33.8722 63.0444 34.0166ZM74.1667 29.9722C74.0944 29.9722 74.0222 29.9722 74.0222 29.9722L84.0611 37.6278C83.05 33.2222 79.0055 29.9722 74.1667 29.9722ZM64.85 43.4777C66.3667 47.0166 69.9778 49.4722 74.1667 49.4722C76.2611 49.4722 78.2111 48.8944 79.8 47.8111L64.85 43.4777ZM86.0111 39.5778L70.8444 28.0222C68.75 26.4333 65.8611 26.8666 64.2722 28.8889C63.55 29.8278 63.1889 31.0555 63.3333 32.1389C63.4055 32.3555 63.4778 32.5722 63.55 32.7889C68.6055 34.45 75.1055 37.1944 76.3333 37.8444C77.7778 38.5666 74.8889 37.8444 70.5555 36.4C67.8833 35.5333 65.5722 34.6666 63.6222 34.0889C63.55 34.0889 63.55 34.0889 63.4778 34.0889C63.3333 34.0889 63.1889 34.0166 63.0444 34.0166C62.3944 33.8722 61.8167 33.8 61.3111 33.6555H61.2389C61.0222 33.6555 60.8056 33.5833 60.5167 33.5833C60.3722 33.5833 60.3 33.5833 60.1556 33.5833C60.0111 33.5833 59.8667 33.5833 59.65 33.5833H35.8167C32.2055 33.5833 30.0389 33.5833 27.15 35.75C23.7555 38.2778 23.5389 42.25 24.2611 45.1389C24.2611 45.1389 24.2611 45.1389 24.2611 45.2111C24.2611 45.5 24.3333 45.8611 24.4056 46.15L29.1 61.75H10.9722C8.37222 61.75 6.27777 63.8444 6.27777 66.4444C6.27777 69.0444 8.37222 71.1389 10.9722 71.1389H35.5278C37.0444 71.1389 38.4167 70.4166 39.2833 69.2611C40.15 68.0333 40.4389 66.5166 40.0055 65.0722L35.8889 51.35C40.6555 51.2778 46.9389 50.9166 49.6111 50.9166C51.0555 50.9166 52.3556 50.7722 53.6556 50.4111C56.5444 49.5444 60.0111 48.0278 63.1167 45.5C63.7667 44.7778 64.2722 43.9111 64.7055 43.0444L81.1722 47.8833C81.6055 48.0278 82.0389 48.1 82.4722 48.1C82.6167 48.1 82.6889 48.1 82.8333 48.1H82.9056C83.05 48.1 83.1222 48.1 83.2667 48.1C84.6389 48.1 86.0833 47.45 87.0222 46.2222C88.4666 44.1278 88.1055 41.1666 86.0111 39.5778ZM86.5889 74.2444C85.9389 76.4833 81.75 77.4944 77.5611 78.2889L77.2 78.3611C77.1278 78.3611 77.1278 78.3611 77.0555 78.3611C76.6944 78.3611 76.4055 78.1444 76.3333 77.7833C76.2611 77.35 76.4778 76.9889 76.9111 76.9166L77.2722 76.8444C79.5111 76.4111 84.7111 75.4 85.1444 73.8111C85.2889 73.45 85.0722 72.9444 84.4944 72.3666C84.35 72.2944 83.8444 72.15 82.3278 72.15C81.6778 72.4389 81.0278 72.5833 80.3055 72.5833C79.7278 72.5833 79.15 72.5111 78.5722 72.2222C74.7444 72.4389 68.3889 73.0166 58.0611 74.3889C45.7111 75.9778 32.8555 77.9278 30.9778 78.3611C30.6167 78.4333 30.1833 78.2166 30.1111 77.7833C30.0389 77.35 30.2556 76.9889 30.6889 76.9166C32.6389 76.5555 45.7833 74.5333 58.35 72.8722C66.15 71.8611 71.7111 71.2833 75.6833 70.9944L64.85 66.4444C63.9833 66.0833 63.1889 65.4333 62.6833 64.5666L54.3055 50.9889C56.9055 50.1944 59.9389 48.8944 62.7555 46.8L69.9056 58.3555L82.2555 63.5555C84.6389 64.5666 85.7944 67.3111 84.7833 69.6944C84.6389 70.1278 84.4222 70.4889 84.1333 70.7778C85.2889 70.9222 85.5055 71.1389 85.65 71.3555C86.5167 72.2944 86.8056 73.3055 86.5889 74.2444Z" fill="#252525" className='person'/>
<path d="M54.45 7.94446L65.2833 17.3333L54.45 26V20.5833H51.5611V13.3611H54.45V7.94446ZM40.0055 13.1445V20.3667H47.2277V13.1445H40.0055ZM29.1722 13.1445V20.3667H36.3944V13.1445H29.1722Z" fill="#247249" className='arrow'/>
</svg>
