<svg width="115" height="115" viewBox="0 0 115 115" fill="none" xmlns="http://www.w3.org/2000/svg">
<rect x="1" y="1" width="113" height="113" rx="9" fill="#FFFFFA" stroke="#252525" stroke-width="2"/>
<path d="M0 81.0063H115V105C115 110.523 110.523 115 105 115H10C4.47715 115 0 110.523 0 105V81.0063Z" fill="#252525"/>
<path d="M31.3313 89.8603C30.7446 89.5083 30.0626 89.237 29.2853 89.0463C28.5079 88.8556 27.7966 88.7603 27.1513 88.7603C25.6993 88.7603 24.4086 89.0976 23.2793 89.7723C22.1499 90.4323 21.2699 91.3563 20.6393 92.5443C20.0086 93.7323 19.6933 95.0816 19.6933 96.5923C19.6933 98.0736 19.9866 99.401 20.5733 100.574C21.1599 101.733 22.0106 102.642 23.1253 103.302C24.2546 103.962 25.5966 104.292 27.1513 104.292C27.8553 104.292 28.6106 104.197 29.4173 104.006C30.2386 103.83 30.9279 103.581 31.4853 103.258L30.1873 100.706C29.1899 101.205 28.1706 101.454 27.1293 101.454C26.3959 101.454 25.7359 101.249 25.1493 100.838C24.5626 100.413 24.1006 99.8336 23.7633 99.1003C23.4259 98.3523 23.2573 97.509 23.2573 96.5703C23.2573 95.5876 23.4333 94.7223 23.7853 93.9743C24.1373 93.2116 24.6066 92.625 25.1933 92.2143C25.7946 91.8036 26.4399 91.5983 27.1293 91.5983C27.6719 91.5983 28.1339 91.6423 28.5153 91.7303C28.9113 91.8183 29.5053 91.987 30.2973 92.2363L31.3313 89.8603ZM40.001 88.7163C38.5343 88.731 37.229 89.0756 36.085 89.7503C34.941 90.425 34.0463 91.3563 33.401 92.5443C32.7703 93.7323 32.455 95.0816 32.455 96.5923C32.455 98.0296 32.7556 99.335 33.357 100.508C33.973 101.682 34.8456 102.613 35.975 103.302C37.119 103.977 38.461 104.314 40.001 104.314C41.4676 104.3 42.773 103.962 43.917 103.302C45.061 102.628 45.9483 101.696 46.579 100.508C47.2243 99.3203 47.547 97.9636 47.547 96.4383C47.547 95.001 47.2463 93.6956 46.645 92.5223C46.0436 91.349 45.171 90.425 44.027 89.7503C42.8976 89.061 41.5556 88.7163 40.001 88.7163ZM36.019 96.5703C36.019 95.5876 36.2023 94.7223 36.569 93.9743C36.9356 93.2116 37.4196 92.625 38.021 92.2143C38.637 91.8036 39.3116 91.5983 40.045 91.5983C40.837 91.5983 41.5263 91.811 42.113 92.2363C42.7143 92.647 43.1763 93.219 43.499 93.9523C43.8216 94.6856 43.983 95.5143 43.983 96.4383C43.983 97.5236 43.807 98.4403 43.455 99.1883C43.103 99.9363 42.619 100.501 42.003 100.882C41.4016 101.249 40.727 101.432 39.979 101.432C38.7616 101.432 37.7936 100.985 37.075 100.09C36.371 99.181 36.019 98.0076 36.019 96.5703ZM51.881 88.8263L48.471 89.2223L54.169 104.006H57.403L63.101 89.0463H59.691L55.841 99.6503L51.881 88.8263ZM75.8515 104.006L75.4335 101.322H68.5475V97.8243H73.7175L73.2995 95.1183H68.5475V91.7523H74.9715L74.5535 89.0463H65.1155V104.006H75.8515ZM78.0921 104.006H81.5241V98.8143H84.2081L87.0021 104.006H90.8521L87.3541 97.8463C88.0581 97.4503 88.6154 96.915 89.0261 96.2403C89.4368 95.5656 89.6421 94.7883 89.6421 93.9083C89.6421 92.295 89.0774 91.085 87.9481 90.2783C86.8188 89.457 85.3741 89.0463 83.6141 89.0463H78.0921V104.006ZM83.5041 91.8183C84.3254 91.8183 84.9561 91.9943 85.3961 92.3463C85.8361 92.6983 86.0561 93.241 86.0561 93.9743C86.0561 94.6343 85.8214 95.155 85.3521 95.5363C84.8974 95.903 84.2961 96.0863 83.5481 96.0863H81.5241V91.8183H83.5041ZM92.1913 98.5943L94.9193 99.5623L95.2933 88.4303H91.7953L92.1913 98.5943ZM93.5553 100.376C93.042 100.376 92.6093 100.552 92.2573 100.904C91.9053 101.256 91.7293 101.689 91.7293 102.202C91.7293 102.701 91.9053 103.126 92.2573 103.478C92.6093 103.83 93.042 104.006 93.5553 104.006C94.0687 104.006 94.494 103.83 94.8313 103.478C95.1833 103.126 95.3593 102.701 95.3593 102.202C95.3593 101.689 95.1833 101.256 94.8313 100.904C94.494 100.552 94.0687 100.376 93.5553 100.376Z" fill="#FFFFFA"/>
<path d="M96.5567 22.783H89.324V71.2421H96.5567V22.783Z" fill="#6F4C23"/>
<path d="M109.576 10.4874H89.324V21.3365H109.576V10.4874Z" fill="#6F4C23"/>
<path d="M62.2736 32.6195C61.695 32.4748 61.1164 32.4025 60.5378 32.3302C61.0441 32.4025 61.6227 32.4748 62.2736 32.6195ZM81.368 62.2012L69 56.9937L61.8397 45.4213C59.0189 47.5188 56.0535 48.8207 53.3774 49.6163L61.7673 63.2138C62.2736 64.0817 63.0692 64.6603 63.9371 65.0943L77.6793 70.8805C78.2579 71.0974 78.9088 71.2421 79.4874 71.2421C81.2956 71.2421 83.0315 70.1572 83.8271 68.349C84.912 65.9622 83.7548 63.2138 81.368 62.2012ZM73.412 28.5691C73.3397 28.5691 73.2673 28.5691 73.2673 28.5691L83.3208 36.2358C82.3082 31.8239 78.2579 28.5691 73.412 28.5691ZM64.0818 42.0943C65.6007 45.6383 69.217 48.0974 73.412 48.0974C75.5095 48.0974 77.4623 47.5188 79.0535 46.4339L64.0818 42.0943ZM86.2139 44.7704C85.2736 46 83.8994 46.6509 82.4529 46.6509C82.3082 46.6509 82.2359 46.6509 82.0912 46.6509H82.0189C81.8742 46.6509 81.8019 46.6509 81.6573 46.6509C81.2233 46.6509 80.7893 46.5786 80.3554 46.4339L63.8648 41.588C63.5032 42.4559 62.9969 43.3239 62.2736 44.0471C59.2359 46.6509 55.7642 48.0974 52.7988 48.9654C51.4969 49.327 50.1227 49.4717 48.7485 49.4717C46.0724 49.4717 39.7799 49.9056 35.0063 49.9056L39.129 63.6478C39.5629 65.0943 39.2736 66.6132 38.4057 67.8427C37.5378 69 36.0912 69.7232 34.6447 69.7232H10.0535C7.44972 69.7232 5.35223 67.6257 5.35223 65.022C5.35223 62.4182 7.44972 60.3207 10.0535 60.3207H28.3522L23.651 44.6981C23.5787 44.4088 23.5063 44.0471 23.5063 43.7578V43.6855C22.7831 40.7924 23 36.8144 26.3994 34.283C29.2925 32.1132 31.4623 32.1132 35.0787 32.1132H58.9466C59.0912 32.1132 59.2359 32.1132 59.4529 32.1132C59.5975 32.1132 59.6698 32.1132 59.8145 32.1132C60.0315 32.1132 60.2485 32.1855 60.5378 32.1855H60.6101C61.1164 32.2578 61.695 32.4025 62.3459 32.5471C62.4906 32.5471 62.6353 32.6195 62.7799 32.6195C62.8522 32.6195 62.8522 32.6195 62.9246 32.6195C64.8774 33.1981 67.2642 34.066 69.868 34.9339C74.2076 36.3805 77.1007 37.1037 75.6541 36.3805C74.4246 35.7295 67.8428 33.0534 62.8522 31.3176C62.7799 31.1006 62.7076 30.8836 62.6353 30.6666C62.4906 29.5094 62.8522 28.3522 63.5755 27.4119C65.1667 25.3144 68.0598 24.9528 70.1573 26.544L85.3459 38.1163C87.3711 39.7798 87.7327 42.7452 86.2139 44.7704Z" fill="#252525"/>
<path d="M53.6666 5.0629L64.5157 14.4654L53.6666 23.1447V17.7201H50.7736V10.4874H53.6666V5.0629ZM39.2012 10.2704V17.5031H46.4339V10.2704H39.2012ZM28.3522 10.2704V17.5031H35.5849V10.2704H28.3522Z" fill="#247249"/>
</svg>
