<svg width="232" height="232" viewBox="0 0 232 232" fill="none" xmlns="http://www.w3.org/2000/svg">
<g clip-path="url(#clip0)">
<path d="M227.999 100.873C221.29 101.274 215.382 100.473 212.378 99.3706C205.669 96.8661 192.451 97.5674 187.945 98.1684C182.438 98.7695 163.813 100.973 154.501 103.678C148.493 105.381 143.587 106.383 140.382 106.684C140.182 106.684 140.082 106.684 139.882 106.684C139.281 106.784 138.78 106.784 138.38 106.784C138.28 106.784 138.179 106.784 138.079 106.784C137.078 106.784 136.477 106.583 135.175 106.082C133.874 105.481 131.771 103.778 129.868 102.476C127.966 101.174 126.264 99.8714 125.062 98.7695C118.553 93.1596 111.244 92.859 105.536 93.2597C100.129 93.6605 92.5188 93.3599 89.615 92.3581C81.4041 86.648 71.4909 81.0381 58.6739 78.0328C58.2734 77.9326 57.8728 77.8324 57.4723 77.7323C65.0824 72.2225 80.5029 64.1082 101.631 60.5018C129.568 55.7934 166.617 56.4947 180.536 56.7952C182.638 56.7952 184.341 56.8954 185.242 56.8954C189.648 56.8954 201.363 55.8936 210.976 54.8918C219.788 68.516 225.696 84.0434 227.999 100.873ZM228.299 103.879C221.49 104.279 215.182 103.578 211.276 102.176C205.769 100.172 194.254 100.473 188.246 101.074C182.839 101.675 164.414 103.879 155.302 106.483C150.596 107.886 144.888 109.188 140.683 109.589C145.99 112.995 150.696 116.2 152.999 118.504C155.302 120.809 162.412 124.415 169.321 128.021C176.03 131.427 182.338 134.733 185.442 137.238C191.851 142.347 196.457 148.357 196.657 148.558C197.158 149.259 197.058 150.16 196.357 150.661C196.056 150.862 195.756 150.962 195.455 150.962C195.055 150.962 194.554 150.762 194.254 150.361C194.254 150.361 189.648 144.45 183.54 139.542C180.636 137.238 174.127 133.832 167.919 130.626C160.509 126.819 153.5 123.213 150.896 120.608C148.593 118.304 142.786 114.497 137.078 110.891C131.671 107.385 126.163 103.778 123.059 101.074C117.452 96.1649 111.144 95.9645 105.736 96.2651C102.833 96.4654 98.6269 96.4654 94.8219 96.2651C96.424 97.4672 98.0261 98.7695 99.5281 99.8714L101.531 101.374C110.242 108.086 180.636 169.695 202.465 188.829C219.087 169.094 229 143.749 229 116.1C229 111.893 228.8 107.886 228.299 103.879ZM158.607 213.072C139.882 213.072 119.354 209.465 92.3186 198.145C60.977 185.122 26.6314 164.386 9.30837 153.366C24.7288 197.344 66.6845 229 115.95 229C137.779 229 158.106 222.789 175.429 212.07C169.922 212.771 164.414 213.072 158.607 213.072ZM148.794 145.953C147.892 146.153 146.891 146.254 145.89 146.254C137.679 146.254 126.264 139.542 118.353 134.934C117.252 134.232 116.25 133.731 115.349 133.23C108.14 129.123 92.7191 125.316 85.3093 123.513L84.7085 123.313C81.1037 122.411 76.2973 119.506 70.79 116C64.2813 111.993 56.8715 107.385 49.2614 104.78C34.5419 99.7713 24.7288 107.385 24.6287 107.485C23.8276 108.186 13.6141 119.105 4.00133 129.524C4.80239 136.136 6.10412 142.547 8.00665 148.758C23.9278 158.976 60.4763 181.416 93.6203 195.24C131.27 210.868 156.103 211.569 181.136 208.263C188.246 203.254 194.755 197.444 200.562 190.933C190.249 182.117 169.121 163.684 148.794 145.953ZM17.9198 88.4512C15.817 87.2491 12.2122 85.1454 8.00665 82.641C4.80239 93.1596 3 104.379 3 116.1C3 119.406 3.10013 122.612 3.40053 125.817C11.4112 117.202 21.5246 106.383 22.4258 105.481C22.5259 105.381 26.0306 102.576 32.1387 101.174C29.7355 98.0683 24.0279 91.8573 17.9198 88.4512ZM99.6283 103.778L97.6256 102.276C94.6216 99.9716 91.5175 97.5674 88.0128 95.0629C87.9127 95.0629 87.9127 94.9628 87.8126 94.9628C79.8019 89.3528 70.1892 83.9433 57.7727 80.9379C56.5711 80.6374 55.3695 80.4371 54.1679 80.1365C53.7674 80.0363 53.3669 79.9362 52.9663 79.9362C40.4497 77.3316 24.829 75.328 10.8104 74.4264C10.1094 76.2296 9.40851 77.9326 8.80771 79.7358C12.813 82.1401 16.6181 84.344 19.2215 85.8466C27.0319 90.1542 33.7408 98.3688 35.4431 100.573C39.5485 100.072 44.3549 100.372 49.8622 102.176C57.8728 104.88 65.3828 109.589 72.0917 113.696C77.3988 117.002 82.0049 119.807 85.109 120.608L85.7098 120.809C93.8206 122.812 108.941 126.519 116.551 130.826C117.452 131.327 118.453 131.928 119.555 132.629C126.264 136.536 138.179 143.449 145.489 143.549C124.061 124.415 103.934 107.084 99.6283 103.778ZM20.6234 55.4929C17.4191 60.5018 14.6154 65.8112 12.2122 71.4211C25.9304 72.3227 41.0505 74.2261 53.467 76.9309C55.4697 75.328 59.0744 72.7234 64.3815 69.9184C59.1746 66.7128 42.6526 57.6968 20.6234 55.4929ZM168.019 45.6755C166.817 43.7722 165.616 41.969 164.615 40.4663C161.611 36.0585 152.999 26.9424 149.294 23.1356C148.693 22.5346 148.293 22.0337 147.992 21.7332C146.791 20.4309 145.189 17.3254 142.786 12.2163C141.784 10.1126 140.583 7.70833 139.381 5.50443C131.771 3.80142 123.961 3 115.95 3C77.0984 3 42.8529 22.7349 22.4258 52.6879C47.3589 55.4929 64.8821 66.4122 67.4856 68.2154C75.5964 64.2083 86.7111 60.0009 101.03 57.4965C125.262 53.3892 156.103 53.3892 173.226 53.5895C171.924 51.7863 170.222 49.0816 168.019 45.6755ZM143.186 6.30585C143.887 7.70833 144.688 9.21099 145.489 10.8138C147.392 14.6206 149.294 18.5275 150.296 19.5293C150.596 19.93 151.097 20.3307 151.597 20.9317C155.603 25.1392 164.114 34.055 167.218 38.6631C168.219 40.1658 169.421 41.969 170.622 43.9725C172.725 47.2784 175.829 52.0869 177.331 53.6897C178.633 53.6897 179.735 53.7899 180.736 53.7899C182.839 53.7899 184.441 53.8901 185.342 53.8901C189.447 53.8901 200.062 52.9885 209.174 52.0869C193.653 29.6472 170.322 13.0177 143.186 6.30585Z" fill="#FFFFFA"/>
<path d="M191.5 56.5001L57.1999 77.6001C64.9999 72.1001 80.3999 64.0001 101.5 60.4001C129.4 55.7001 166.4 56.4001 180.3 56.7001C182.4 56.7001 184.1 56.8001 185 56.8001C186.5 56.8001 188.7 56.7001 191.5 56.5001ZM183.3 139.3C180.4 137 173.9 133.6 167.7 130.4C160.3 126.6 153.3 123 150.7 120.4C148.4 118.1 142.6 114.3 136.9 110.7C131.5 107.2 126 103.6 122.9 100.9C117.3 96.0001 111 95.8001 105.6 96.1001C102.7 96.3001 98.4999 96.3001 94.6999 96.1001L191.8 147.5C189.8 145.2 186.8 142.1 183.3 139.3ZM211.1 102C205.6 100 194.1 100.3 188.1 100.9C182.7 101.5 164.3 103.7 155.2 106.3C153.1 106.9 150.7 107.5 148.4 108.1L216.5 103.3C214.3 103 212.5 102.5 211.1 102ZM97.4999 102C94.4999 99.7001 91.3999 97.3001 87.8999 94.8001C87.7999 94.8001 87.7999 94.7001 87.6999 94.7001C79.6999 89.1001 70.0999 83.7001 57.6999 80.7001L140.7 142.2C142.4 142.7 144.1 143 145.5 143C123.8 124.2 103.7 106.8 99.4999 103.5L97.4999 102ZM148.6 145.7C147.7 145.9 146.8 146 145.8 146L167.2 161.8C161.2 156.7 154.8 151.2 148.6 145.7ZM118.1 134.8C117 134.1 116 133.6 115.1 133.1C107.9 129 92.4999 125.2 85.0999 123.4L84.4999 123.2C80.8999 122.3 76.0999 119.4 70.5999 115.9C64.0999 111.9 56.6999 107.3 49.0999 104.7C36.8999 100.6 27.9999 105.1 25.3999 106.8L123.7 137.8C121.7 136.9 119.8 135.8 118.1 134.8ZM9.3999 149.7C26.0999 160.3 61.2999 181.8 93.3999 195.1C131 210.7 155.8 211.4 180.8 208.1C180.9 208 181 207.9 181.1 207.9L9.3999 149.7Z" fill="#C2996C"/>
<path d="M231 103.4C230.9 102.4 230.8 101.4 230.6 100.4C228.4 83.7 222.6 68.1 214 54.4C213.4 53.4 212.8 52.5 212.2 51.6C195.9 27.2 170.6 9.4 141.1 2.8C139.8 2.5 138.5 2.2 137.2 2C130.3 0.7 123.2 0 115.9 0C75.4001 0 39.8001 20.8 19.1001 52.3C18.5001 53.3 17.9001 54.2 17.3001 55.2C14.2001 60.3 11.4001 65.6 9.1001 71.2C8.7001 72.2 8.3001 73.2 7.9001 74.2C7.4001 75.5 6.9001 76.8 6.5001 78.1C6.2001 79.1 5.8001 80 5.5001 81C2.0001 92 0.100098 103.8 0.100098 116C0.100098 120.3 0.300098 124.5 0.800098 128.6C0.900098 129.9 1.1001 131.2 1.3001 132.5C2.0001 137.2 2.9001 141.8 4.2001 146.4C4.6001 147.9 5.0001 149.4 5.5001 150.8C20.3001 197.8 64.2001 231.9 116 231.9C140.5 231.9 163.3 224.2 182.1 211.2C183.8 210 185.6 208.7 187.2 207.4C192.8 203.1 197.9 198.2 202.6 192.9C203.3 192.1 203.9 191.4 204.6 190.6C221.6 170.4 231.9 144.4 231.9 116C231.7 111.7 231.5 107.5 231 103.4ZM227.7 100.7C221 101.1 215.1 100.3 212.1 99.2C205.4 96.7 192.2 97.4 187.7 98C182.2 98.6 163.6 100.8 154.3 103.5C148.3 105.2 143.4 106.2 140.2 106.5C140 106.5 139.9 106.5 139.7 106.5C139.1 106.6 138.6 106.6 138.2 106.6C138.1 106.6 138 106.6 137.9 106.6C136.9 106.6 136.3 106.4 135 105.9C133.7 105.3 131.6 103.6 129.7 102.3C127.8 101 126.1 99.7 124.9 98.6C118.4 93 111.1 92.7 105.4 93.1C100 93.5 92.4001 93.2 89.5001 92.2C81.3001 86.5 71.4001 80.9 58.6001 77.9C58.2001 77.8 57.8001 77.7 57.4001 77.6C65.0001 72.1 80.4001 64 101.5 60.4C129.4 55.7 166.4 56.4 180.3 56.7C182.4 56.7 184.1 56.8 185 56.8C189.4 56.8 201.1 55.8 210.7 54.8C219.5 68.4 225.4 83.9 227.7 100.7ZM208.8 52C199.7 52.9 189.1 53.8 185 53.8C184.1 53.8 182.5 53.8 180.4 53.7C179.4 53.7 178.2 53.7 177 53.6C175.6 52.1 172.5 47.2 170.3 43.9C169.1 42 167.9 40.1 166.9 38.6C163.8 34 155.4 25.2 151.3 20.9C150.8 20.3 150.3 19.8 150 19.5C149 18.5 147.1 14.6 145.2 10.8C144.4 9.2 143.7 7.7 142.9 6.3C170.1 13 193.4 29.6 208.8 52ZM115.8 3C123.8 3 131.6 3.8 139.1 5.4C140.3 7.6 141.5 10 142.5 12.1C145 17.1 146.5 20.3 147.7 21.6C148 22 148.5 22.4 149 23C152.7 26.9 161.3 35.9 164.3 40.3C165.3 41.8 166.5 43.6 167.7 45.5C169.9 48.9 171.6 51.6 173 53.5C155.9 53.3 125.1 53.3 100.9 57.4C86.6001 59.8 75.4001 64 67.4001 68.1C64.7001 66.3 47.3001 55.4 22.4001 52.6C42.8001 22.7 77.0001 3 115.8 3ZM20.6001 55.4C42.6001 57.6 59.2001 66.5 64.4001 69.7C59.1001 72.6 55.5001 75.2 53.5001 76.7C41.1001 74.1 26.0001 72.1 12.3001 71.2C14.6001 65.8 17.4001 60.5 20.6001 55.4ZM11.0001 74.2C25.0001 75.1 40.6001 77.1 53.1001 79.7C53.5001 79.8 53.9001 79.9 54.3001 79.9C55.5001 80.2 56.7001 80.4 57.9001 80.7C70.3001 83.7 79.9001 89.1 87.9001 94.7C88.0001 94.7 88.0001 94.8 88.1001 94.8C91.6001 97.2 94.7001 99.7 97.7001 102L99.7001 103.5C104 106.8 124.1 124.2 145.7 143C138.3 142.9 126.5 136 119.8 132.1C118.7 131.4 117.6 130.8 116.8 130.3C109.2 126 94.1001 122.3 86.0001 120.3L85.4001 120.1C82.2001 119.3 77.7001 116.5 72.4001 113.2C65.7001 109.1 58.2001 104.4 50.2001 101.7C44.7001 99.9 39.8001 99.6 35.8001 100.1C34.1001 98 27.4001 89.8 19.6001 85.4C16.8001 84.2 13.0001 82 9.0001 79.5C9.6001 77.8 10.2001 76 11.0001 74.2ZM3.0001 115.9C3.0001 104.2 4.8001 93 8.0001 82.5C12.1001 85 15.8001 87.1 17.9001 88.3C24.0001 91.7 29.6001 97.9 32.1001 100.9C26.0001 102.3 22.5001 105.2 22.4001 105.2C21.5001 106 11.4001 116.8 3.4001 125.5C3.1001 122.3 3.0001 119.1 3.0001 115.9ZM115.8 228.7C66.6001 228.7 24.7001 197.1 9.3001 153.2C26.6001 164.1 60.9001 184.8 92.2001 197.9C119.2 209.1 139.7 212.8 158.4 212.8C164.1 212.8 169.7 212.5 175.2 211.9C158 222.5 137.6 228.7 115.8 228.7ZM180.8 208.1C155.8 211.4 131 210.7 93.4001 195.1C60.3001 181.3 23.8001 158.9 7.9001 148.7C6.0001 142.5 4.6001 136.1 3.9001 129.5C13.5001 119.1 23.7001 108.2 24.5001 107.5C24.6001 107.4 34.4001 99.9 49.1001 104.8C56.7001 107.4 64.1001 111.9 70.6001 116C76.1001 119.4 80.9001 122.4 84.5001 123.3L85.1001 123.5C92.5001 125.3 107.9 129 115.1 133.2C116 133.7 117 134.3 118.1 134.9C126.1 139.5 137.5 146.2 145.6 146.2C146.6 146.2 147.6 146.1 148.5 145.9C168.8 163.6 189.9 182 200.1 190.9C194.4 197.2 187.9 203.1 180.8 208.1ZM202.2 188.5C180.4 169.4 110 107.9 101.4 101.2L99.4001 99.7C97.9001 98.5 96.3001 97.3 94.7001 96.1C98.4001 96.4 102.6 96.3 105.6 96.1C111 95.7 117.3 96 122.9 100.9C126 103.6 131.6 107.2 136.9 110.7C142.5 114.4 148.4 118.1 150.7 120.4C153.3 123 160.3 126.6 167.7 130.4C174 133.6 180.4 136.9 183.3 139.3C189.4 144.2 194 150.1 194 150.1C194.3 150.5 194.7 150.7 195.2 150.7C195.5 150.7 195.9 150.6 196.1 150.4C196.8 149.9 196.9 148.9 196.4 148.3C196.2 148.1 191.6 142.1 185.2 137C182.1 134.5 175.8 131.2 169.1 127.8C162.2 124.3 155.1 120.6 152.8 118.3C150.6 116.1 145.8 112.9 140.5 109.4C144.7 109 150.4 107.7 155.1 106.3C164.2 103.7 182.6 101.5 188 100.9C194 100.2 205.5 99.9 211 102C214.9 103.4 221.2 104.1 228 103.7C228.4 107.7 228.7 111.8 228.7 115.9C228.7 143.5 218.7 168.8 202.2 188.5Z" fill="#1C4E4A"/>
</g>
<defs>
<clipPath id="clip0">
<rect width="231.7" height="231.7" fill="white"/>
</clipPath>
</defs>
</svg>
