<svg width="231" height="230" viewBox="0 0 231 230" fill="none" xmlns="http://www.w3.org/2000/svg">
<ellipse className='outline' cx="115.5" cy="114.911" rx="115.5" ry="114.911" fill="#247249"/>
<path className='land' d="M162.459 54.7719C164.024 51.8726 152.31 36.1694 145.95 27.6432C145.351 26.8414 144.8 26.103 144.312 25.4448C141.053 20.9858 138.46 14.9164 136.868 11.1887C136.198 9.62109 135.705 8.46759 135.414 8.02216C128.909 6.76825 122.255 6.17383 115.452 6.17383C77.8741 6.17383 44.7516 25.1558 24.9944 53.9661C49.1098 56.664 66.0585 67.1667 68.5766 68.9011C76.4214 65.0469 87.1716 61 101.021 58.5911C120.901 55.2401 145.38 54.7315 162.459 54.7719Z" fill="white"/>
<path className='land' d="M21.4914 59.5C19.1145 63.4736 16.9893 67.6351 15.1157 71.9844C28.3841 72.8517 43.0083 74.6824 55.0177 77.284C56.7875 75.8753 59.8511 73.6622 64.2822 71.2327L64.2329 71.2045C64.228 71.2075 64.223 71.2104 64.218 71.2134C64.218 71.2134 60.6345 69.19 50.2716 65.5284C41.3615 62.3488 26.0593 59.7472 21.5074 59.5544L21.5402 59.5H21.4914Z" fill="white"/>
<path className='land' d="M208.718 98.8676C211.623 99.9274 217.337 100.698 223.826 100.313C221.658 84.5558 216.186 69.9856 208.036 57.1356L208.039 57.1456C203.681 58.4946 188.476 61.2889 174.529 61.9633C151.189 62.9269 120.972 67.9374 111.868 69.479C91.4471 72.6566 74.7981 79.0092 69.3625 81.1335C77.4296 84.1088 84.1488 88.0898 89.9803 92.1227C92.7889 93.0863 100.149 93.3753 105.379 92.9899C110.9 92.6045 117.97 92.8936 124.265 98.2894C125.427 99.3493 127.074 100.602 128.914 101.855C129.52 102.267 130.147 102.722 130.761 103.167C132.01 104.072 133.203 104.936 134.047 105.323C135.306 105.805 135.887 105.998 136.855 105.998H137.146C137.533 105.998 138.018 105.998 138.599 105.901H139.083C142.182 105.612 146.928 104.649 152.739 103.011C161.746 100.409 179.76 98.2894 185.086 97.7113C189.445 97.1332 202.229 96.4587 208.718 98.8676Z" fill="white"/>
<path className='land' d="M224.256 104.389C223.804 104.475 223.273 104.562 222.664 104.649C220.823 104.841 209.492 104.649 203.778 103.685C198.064 102.722 191.672 102.818 180.05 104.841C170.674 106.427 154.309 111.987 148.265 114.088L147.694 114.302C149.179 115.398 150.412 116.402 151.286 117.271C153.335 119.31 159.319 122.409 165.467 125.593L165.468 125.594C166.003 125.871 166.538 126.148 167.072 126.425C173.561 129.701 179.663 132.881 182.665 135.29C188.158 139.644 192.281 144.68 193.284 145.904L193.393 146.037L193.42 146.07C193.469 146.129 193.5 146.165 193.512 146.178C193.997 146.852 193.9 147.72 193.222 148.201C192.931 148.394 192.641 148.49 192.35 148.49C191.963 148.49 191.478 148.298 191.188 147.912C191.188 147.912 190.747 147.349 189.958 146.431C185.454 143.549 171.421 134.577 160.777 129.797C149.833 124.883 138.211 117.56 134.821 114.862C131.335 112.261 118.066 103.011 112.74 102.625C109.656 102.434 107.297 102.454 105.69 102.517L104.076 102.607C103.988 102.613 103.905 102.619 103.829 102.625L103.824 102.621L103.785 102.623C118.333 114.564 179.348 167.67 199.13 184.913C215.206 165.931 224.795 141.553 224.795 114.959C224.795 111.327 224.638 107.85 224.256 104.389Z" fill="white"/>
<path className='land' d="M156.71 208.231C138.599 208.231 118.745 204.762 92.5952 193.874C62.2814 181.348 29.062 161.402 12.3071 150.803C27.2219 193.103 67.8018 223.551 115.452 223.551C136.565 223.551 156.225 217.577 172.98 207.267C167.653 207.942 162.327 208.231 156.71 208.231Z" fill="white"/>
<path className='land' d="M21.8118 118.416L21.8206 118.408L21.8271 118.402C24.7932 115.654 27.3267 113.307 28.3837 112.357C31.5797 109.37 41.1678 106.961 48.6252 110.141C51.8202 111.503 56.9173 114.334 62.2563 117.298L62.2594 117.3C69.3811 121.254 76.9325 125.448 80.9729 126.714C83.9622 127.651 89.0465 128.554 94.3884 129.502L94.3904 129.502L94.3916 129.503C101.683 130.797 109.453 132.176 113.03 133.844C115.415 134.994 118.659 136.699 121.981 138.445C127.293 141.237 132.803 144.132 135.305 145.022C137.92 145.889 142.085 146.467 145.087 146.756C153.126 153.79 163.295 162.462 166.878 165.353C169.706 167.582 176.649 173.496 183.076 178.971L183.083 178.976L183.098 178.989C188.281 183.405 193.125 187.531 195.199 189.203C191.886 192.697 188.354 195.965 184.621 198.99C182.113 199.291 169.71 200.219 126.589 189.923C82.8459 179.444 14.1881 143.161 9.42053 140.426C8.70377 137.45 8.11786 134.428 7.65137 131.36C9.65414 129.68 16.4391 123.394 21.8118 118.416Z" fill="white"/>
<path className='land' d="M29.5964 99.2198C30.8499 100.111 31.7745 100.769 32.3546 101.084C26.8281 102.346 25.2851 104.366 25.0298 104.701C25.0121 104.724 25.0006 104.739 24.9944 104.745C24.1227 105.612 14.3409 116.019 6.59293 124.305C6.3024 121.222 6.20557 118.139 6.20557 114.959C6.20557 105.146 7.52637 95.698 9.91257 86.7422C12.473 88.2137 22.1981 94.0585 25.7687 96.5549C27.2688 97.5644 28.5478 98.4739 29.5964 99.2198Z" fill="white"/>
<path className='land' d="M134.132 137.575C134.103 137.551 134.074 137.528 134.046 137.506C131.483 135.299 123.171 129.371 114.402 123.116L114.399 123.114C105.943 117.083 97.0619 110.749 92.498 107.154L92.1385 106.867C85.188 101.313 72.7567 91.3785 57.0511 87.4012C47.0399 84.8513 23.7824 81.6425 15.102 80.445C13.2856 80.1943 12.1074 80.0318 11.8228 79.9819C15.6968 82.2945 19.3771 84.4142 21.8951 85.8596C29.4494 90.0029 35.9383 97.904 37.5847 100.024C41.5556 99.5421 46.2043 99.8311 51.5311 101.566C58.9221 104.047 65.872 108.283 72.13 112.096L72.1309 112.097L72.1419 112.104L73.0316 112.646C78.1647 115.826 82.6197 118.524 85.622 119.295L86.2031 119.488L86.4712 119.553C94.3769 121.495 108.755 125.027 116.033 129.123C116.904 129.605 117.873 130.183 118.938 130.857C123.409 133.447 130.27 137.408 136.418 139.653L134.132 137.575Z" fill="white"/>
<path className='land' d="M142.834 11.3749L142.834 11.3763C143.221 12.1216 143.622 12.8927 144.022 13.6895L144.482 14.6051L144.484 14.6091C146.164 17.9604 147.784 21.1895 148.671 22.0724C148.816 22.2652 149.01 22.4579 149.228 22.6747C149.339 22.7855 149.457 22.9027 149.578 23.0294L149.614 23.0673C149.632 23.086 149.649 23.105 149.667 23.1241C149.695 23.1547 149.724 23.1858 149.753 23.2175L149.792 23.2617C149.838 23.3133 149.884 23.3665 149.93 23.4214L150.138 23.6383C154.091 27.7676 162.089 36.1216 165.039 40.4763L165.041 40.4797L165.045 40.485L165.049 40.4911L165.049 40.492L165.05 40.4935L165.051 40.4953C166.017 41.9371 167.174 43.6645 168.331 45.5831C170.365 48.7628 173.368 53.3879 174.82 54.9296C175.491 54.9296 176.107 54.9569 176.682 54.9825C177.187 55.0048 177.661 55.0259 178.113 55.0259C179.342 55.0259 180.395 55.0612 181.227 55.089L181.251 55.0897C181.591 55.1011 181.895 55.1112 182.158 55.1171C182.308 55.1204 182.445 55.1223 182.568 55.1223C186.539 55.1223 196.805 54.2551 205.618 53.3879C190.607 31.8043 168.041 15.8093 141.795 9.35352C142.122 10.0043 142.471 10.6776 142.833 11.3734L142.834 11.3749Z" fill="white"/>
</svg>
