<svg width="126" height="25" viewBox="0 0 126 25" fill="none" xmlns="http://www.w3.org/2000/svg">
<path d="M30 21.8317V2.2244H40.5339V4.63675H32.5177V10.864H37.8136V13.3043H32.5177V21.8317H30Z" fill="#247249" className='text'/>
<path d="M42.4439 18.3254C42.4439 19.3539 42.9649 20.2235 44.0067 20.9341C44.8942 21.5325 45.936 21.8317 47.1321 21.8317V19.6438C45.4536 19.6064 44.6048 18.9892 44.5855 17.7924V17.0351C44.6048 16.6237 44.7205 16.3245 44.9327 16.1374C45.1643 15.9317 46.1964 15.6138 48.0293 15.1837C49.4569 14.8471 50.4216 14.5479 50.9232 14.2861V17.5119C50.9232 18.7274 50.3155 19.4287 49.1 19.6157C48.9071 19.6344 48.7238 19.6438 48.5502 19.6438V21.8317C49.9007 21.813 50.9618 21.4857 51.7335 20.8499C52.3316 21.5044 53.1129 21.8317 54.0776 21.8317V19.6157C53.576 19.5783 53.3155 19.2698 53.2962 18.69V11.0042C53.2962 9.80739 52.8236 8.76017 51.8782 7.86255C50.9907 7.03974 49.8814 6.62833 48.5502 6.62833V8.78822C49.4569 8.78822 50.1322 9.14352 50.5759 9.85414C50.8074 10.2281 50.9232 10.6396 50.9232 11.0884V11.6213C50.9232 12.0888 49.7753 12.6311 47.4794 13.2482C45.4151 13.8093 44.2285 14.1646 43.9199 14.3142C42.9359 14.8752 42.4439 15.7634 42.4439 16.979V18.3254ZM42.6465 10.4432L44.788 11.2286C44.788 10.1814 45.2318 9.45208 46.1193 9.04067C46.4472 8.89107 46.7945 8.81627 47.1611 8.81627V6.62833C45.8299 6.62833 44.6916 7.09584 43.7462 8.03086C43.0131 8.74147 42.6465 9.54558 42.6465 10.4432Z" fill="#247249" className='text'/>
<path d="M56.1323 17.8205V6.71248H58.5921V17.54C58.5921 18.2132 58.9394 18.7742 59.634 19.223C60.097 19.5035 60.6083 19.6438 61.1678 19.6438V22C59.3156 22 57.888 21.2987 56.8847 19.8962C56.3831 19.1856 56.1323 18.4937 56.1323 17.8205ZM62.4411 22V19.6438C63.4829 19.6438 64.245 19.2417 64.7273 18.4376C64.9009 18.1384 64.9878 17.8392 64.9878 17.54V6.71248H67.4476V17.8205C67.4476 18.6994 67.0328 19.569 66.2032 20.4292C65.2 21.4577 63.9459 21.9813 62.4411 22Z" fill="#247249" className='text'/>
<path d="M69.7628 21.8597V2.0561H72.3384V21.8597H69.7628Z" fill="#247249" className='text'/>
<path d="M74.0458 9.12483V6.85274H75.9558V2H78.4156V6.85274H80.2678V9.15287H78.4156V17.2034C78.4156 18.5311 78.9751 19.2698 80.0941 19.4194C80.3064 19.4568 80.5186 19.4755 80.7308 19.4755H81.1359L81.6858 21.8597H80.644C78.2709 21.841 76.8143 20.9808 76.2741 19.2791C76.0812 18.6433 75.9847 17.8579 75.9847 16.9229L75.9558 9.12483H74.0458Z" fill="#247249" className='text'/>
<path d="M83.017 21.8597V2.2244H85.5347V19.4474H93.8982V21.8597H83.017Z" fill="#247249" className='text'/>
<path d="M95.7504 4.6087C95.7504 4.02899 96.0301 3.61758 96.5896 3.37447C96.7825 3.29967 96.9755 3.26227 97.1684 3.26227C97.7472 3.26227 98.1716 3.52408 98.4417 4.04769C98.5189 4.23469 98.5575 4.42169 98.5575 4.6087C98.5575 5.16971 98.2874 5.58111 97.7472 5.84292C97.5542 5.91772 97.3613 5.95512 97.1684 5.95512C96.5703 5.95512 96.1362 5.69331 95.8661 5.16971C95.7889 4.9827 95.7504 4.7957 95.7504 4.6087ZM95.9529 21.8597V7.07714H98.3838V21.8597H95.9529Z" fill="#247249" className='text'/>
<path d="M100.988 21.8597V10.7798C100.988 9.88219 101.403 9.00327 102.233 8.14306C103.255 7.13324 104.519 6.62833 106.024 6.62833V8.95652C105.04 8.95652 104.287 9.33053 103.767 10.0785C103.554 10.3964 103.448 10.7237 103.448 11.0603V21.8597H100.988ZM107.297 8.95652V6.62833C109.091 6.62833 110.49 7.32959 111.493 8.73212C112.034 9.46143 112.304 10.144 112.304 10.7798V21.8597H109.844V11.0603C109.844 10.4806 109.545 9.96634 108.947 9.51753C108.464 9.14353 107.915 8.95652 107.297 8.95652Z" fill="#247249" className='text'/>
<path d="M114.532 17.7083V10.7518C114.551 9.89154 114.976 9.04067 115.805 8.19916C116.809 7.20804 118.024 6.70313 119.452 6.68443V8.90042C118.526 8.90042 117.802 9.29313 117.281 10.0785C117.069 10.4151 116.963 10.7237 116.963 11.0042V12.9116H123.445V11.0042C123.445 10.1627 123.002 9.54558 122.114 9.15287C121.709 8.96587 121.294 8.87237 120.87 8.87237V6.68443C122.201 6.68443 123.387 7.14259 124.429 8.05891C125.298 8.86302 125.741 9.75129 125.761 10.7237V15.1837H116.963V17.7083C116.963 18.2319 117.272 18.7181 117.889 19.1669C118.391 19.5035 118.921 19.6718 119.481 19.6718V21.8597C117.725 21.8597 116.346 21.1678 115.342 19.784C114.802 19.0547 114.532 18.3628 114.532 17.7083ZM120.87 21.8597V19.6438C122.027 19.6438 122.896 19.1576 123.474 18.1851C123.59 17.9794 123.677 17.7831 123.735 17.5961L125.789 18.3254C125.442 19.6157 124.651 20.5881 123.416 21.2426C122.625 21.654 121.777 21.8597 120.87 21.8597Z" fill="#247249" className='text'/>
<circle cx="12.5" cy="12.5" r="12.5" fill="#247249" className='outline'/>
<path d="M17.5825 5.95838C17.7518 5.64299 16.484 3.93479 15.7957 3.00732C15.7309 2.9201 15.6713 2.83978 15.6185 2.76817C15.2657 2.28313 14.9851 1.62289 14.8128 1.21739C14.7403 1.04687 14.687 0.921391 14.6555 0.872936C13.9515 0.736536 13.2314 0.671875 12.495 0.671875C8.42821 0.671875 4.84353 2.73673 2.7053 5.87072C5.31519 6.1642 7.14947 7.30669 7.42198 7.49536C8.27099 7.07609 9.43444 6.63587 10.9333 6.37383C13.0848 6.00931 15.734 5.95398 17.5825 5.95838Z" fill="white" className='land'/>
<path d="M2.32619 6.4727C2.06895 6.90495 1.83894 7.35764 1.63618 7.83076C3.07215 7.9251 4.65485 8.12424 5.95457 8.40725C6.14611 8.25401 6.47767 8.01327 6.95723 7.74899L6.95189 7.74592C6.95136 7.74624 6.95081 7.74657 6.95028 7.74689C6.95028 7.74689 6.56245 7.52678 5.44093 7.12848C4.47663 6.78259 2.82055 6.49959 2.32791 6.47862L2.33147 6.4727H2.32619Z" fill="white" className='land'/>
<path d="M22.5888 10.7551C22.9032 10.8704 23.5216 10.9543 24.2239 10.9123C23.9892 9.19827 23.397 7.61333 22.515 6.2155L22.5154 6.21659C22.0437 6.36333 20.3981 6.6673 18.8887 6.74066C16.3627 6.84548 13.0925 7.39052 12.1072 7.55822C9.89715 7.90387 8.09531 8.59492 7.50704 8.826C8.3801 9.14965 9.10729 9.5827 9.7384 10.0214C10.0424 10.1262 10.839 10.1577 11.405 10.1157C12.0024 10.0738 12.7676 10.1053 13.4489 10.6922C13.5746 10.8075 13.7528 10.9438 13.952 11.08C14.0176 11.1249 14.0855 11.1744 14.1519 11.2228C14.2871 11.3212 14.4161 11.4152 14.5075 11.4574C14.6438 11.5098 14.7066 11.5307 14.8115 11.5307H14.8429C14.8848 11.5307 14.9372 11.5307 15.0001 11.5203H15.0525C15.3879 11.4888 15.9015 11.384 16.5304 11.2058C17.5052 10.9228 19.4548 10.6922 20.0313 10.6293C20.5029 10.5664 21.8865 10.4931 22.5888 10.7551Z" fill="white" className='land'/>
<path d="M24.2705 11.3557C24.2215 11.3651 24.164 11.3746 24.0981 11.384C23.8989 11.4049 22.6726 11.384 22.0542 11.2792C21.4358 11.1744 20.744 11.1848 19.4862 11.4049C18.4715 11.5775 16.7003 12.1822 16.0463 12.4108L15.9845 12.4341C16.1452 12.5533 16.2786 12.6625 16.3732 12.7571C16.595 12.9789 17.2426 13.316 17.908 13.6623L17.9081 13.6624C17.9659 13.6925 18.0239 13.7227 18.0817 13.7528C18.784 14.1092 19.4443 14.4551 19.7692 14.7171C20.3637 15.1908 20.8099 15.7386 20.9185 15.8718L20.9302 15.8862L20.9332 15.8898C20.9384 15.8962 20.9418 15.9002 20.9432 15.9015C20.9956 15.9749 20.9851 16.0692 20.9117 16.1217C20.8803 16.1426 20.8488 16.1531 20.8174 16.1531C20.7755 16.1531 20.7231 16.1321 20.6916 16.0902C20.6916 16.0902 20.6439 16.029 20.5585 15.929C20.0711 15.6155 18.5523 14.6396 17.4004 14.1197C16.216 13.5851 14.9582 12.7885 14.5913 12.495C14.214 12.212 12.778 11.2058 12.2015 11.1639C11.8678 11.143 11.6125 11.1452 11.4386 11.1521L11.264 11.1619C11.2544 11.1626 11.2455 11.1632 11.2372 11.1639L11.2366 11.1634L11.2324 11.1636C12.8069 12.4625 19.4102 18.2394 21.5511 20.1151C23.291 18.0503 24.3287 15.3984 24.3287 12.5055C24.3287 12.1104 24.3118 11.7322 24.2705 11.3557Z" fill="white" className='land'/>
<path d="M16.9602 22.6517C15.0001 22.6517 12.8514 22.2743 10.0214 21.0899C6.74068 19.7273 3.14552 17.5576 1.33221 16.4047C2.94637 21.0061 7.33813 24.3182 12.495 24.3182C14.78 24.3182 16.9078 23.6684 18.7211 22.5468C18.1446 22.6202 17.5681 22.6517 16.9602 22.6517Z" fill="white" className='land'/>
<path d="M2.36086 12.8816L2.36182 12.8807L2.36252 12.8801C2.68353 12.5811 2.95771 12.3258 3.07211 12.2225C3.418 11.8976 4.45566 11.6355 5.26275 11.9814C5.60853 12.1296 6.16016 12.4375 6.73797 12.76L6.73831 12.7602C7.50906 13.1904 8.32631 13.6465 8.76358 13.7843C9.0871 13.8862 9.63735 13.9844 10.2155 14.0875L10.2157 14.0876L10.2158 14.0876C11.0049 14.2284 11.8458 14.3784 12.233 14.5599C12.491 14.6849 12.8422 14.8704 13.2017 15.0603C13.7766 15.364 14.3729 15.679 14.6437 15.7758C14.9267 15.8701 15.3774 15.933 15.7024 15.9644C16.5723 16.7296 17.6729 17.6729 18.0607 17.9874C18.3667 18.2299 19.1182 18.8732 19.8137 19.4688L19.8144 19.4694L19.816 19.4708C20.377 19.9511 20.9012 20.3999 21.1257 20.5818C20.7671 20.9619 20.3849 21.3174 19.981 21.6464C19.7094 21.6792 18.3672 21.7802 13.7004 20.6601C8.96628 19.5203 1.53579 15.5733 1.01982 15.2759C0.942243 14.9521 0.878833 14.6234 0.828347 14.2897C1.0451 14.1068 1.77941 13.4231 2.36086 12.8816Z" fill="white" className='land'/>
<path d="M3.20335 10.7934C3.33901 10.8904 3.43907 10.9619 3.50185 10.9962C2.90375 11.1334 2.73676 11.3533 2.70912 11.3897C2.70722 11.3922 2.70597 11.3938 2.7053 11.3945C2.61096 11.4888 1.55232 12.6208 0.713797 13.5222C0.682355 13.1868 0.671875 12.8514 0.671875 12.5055C0.671875 11.4381 0.814819 10.4103 1.07307 9.43611C1.35017 9.59618 2.40266 10.232 2.7891 10.5035C2.95145 10.6134 3.08986 10.7123 3.20335 10.7934Z" fill="white" className='land'/>
<path d="M14.5168 14.9657C14.5136 14.9631 14.5105 14.9606 14.5075 14.9582C14.23 14.7181 13.3305 14.0732 12.3815 13.3929L12.3811 13.3926C11.466 12.7366 10.5048 12.0475 10.0109 11.6565L9.97197 11.6253C9.21976 11.0211 7.87438 9.94045 6.17464 9.5078C5.09117 9.23042 2.57413 8.88137 1.63469 8.7511C1.43811 8.72383 1.3106 8.70615 1.27981 8.70073C1.69907 8.95229 2.09737 9.18288 2.36988 9.3401C3.18744 9.79081 3.88971 10.6503 4.06789 10.8809C4.49764 10.8285 5.00075 10.8599 5.57723 11.0486C6.37713 11.3186 7.12928 11.7793 7.80655 12.1941L7.80665 12.1942L7.80784 12.195L7.90413 12.254C8.45966 12.5999 8.9418 12.8933 9.26673 12.9772L9.32962 12.9982L9.35863 13.0053C10.2142 13.2165 11.7703 13.6007 12.5579 14.0463C12.6523 14.0987 12.7571 14.1616 12.8724 14.235C13.3562 14.5166 14.0988 14.9475 14.7642 15.1918L14.5168 14.9657Z" fill="white" className='land'/>
<path d="M15.4585 1.23765L15.4585 1.23781C15.5004 1.31888 15.5438 1.40275 15.5871 1.48943L15.6368 1.58903L15.637 1.58947C15.8189 1.95403 15.9942 2.30528 16.0902 2.40133C16.1059 2.4223 16.1269 2.44326 16.1505 2.46684C16.1625 2.4789 16.1753 2.49164 16.1884 2.50543L16.1922 2.50954C16.1942 2.51158 16.1961 2.51365 16.198 2.51573C16.2011 2.51905 16.2042 2.52244 16.2073 2.52589L16.2115 2.53069C16.2165 2.53631 16.2215 2.5421 16.2265 2.54807L16.2489 2.57166C16.6768 3.02085 17.5424 3.9296 17.8616 4.4033L17.8619 4.40368L17.8622 4.40425L17.8627 4.40491L17.8628 4.40501L17.8629 4.40517L17.863 4.40537C17.9675 4.5622 18.0927 4.75011 18.218 4.95882C18.4381 5.30471 18.763 5.80783 18.9202 5.97554C18.9928 5.97554 19.0595 5.9785 19.1217 5.98129C19.1764 5.98372 19.2276 5.98601 19.2766 5.98601C19.4096 5.98601 19.5235 5.98984 19.6136 5.99287L19.6162 5.99295C19.653 5.99419 19.6858 5.99529 19.7143 5.99593C19.7306 5.99628 19.7454 5.9965 19.7588 5.9965C20.1885 5.9965 21.2995 5.90216 22.2534 5.80783C20.6287 3.45996 18.1865 1.72003 15.346 1.01776C15.3814 1.08856 15.4193 1.1618 15.4584 1.23749L15.4585 1.23765Z" fill="white" className='land'/>
</svg>
