<svg width="13" height="15" viewBox="0 0 13 13" fill="none" xmlns="http://www.w3.org/2000/svg">
<path className='triangle-color' d="M5.96544 1.57888L0.115581 10.0289C0.0481087 10.1264 0.00859698 10.2405 0.00132617 10.3589C-0.00594465 10.4772 0.019302 10.5953 0.0743328 10.7004C0.129363 10.8054 0.212081 10.8934 0.313528 10.9548C0.414976 11.0162 0.531287 11.0487 0.649869 11.0487L12.3496 11.0487C12.4682 11.0488 12.5846 11.0164 12.6862 10.9551C12.7877 10.8937 12.8705 10.8057 12.9256 10.7007C12.9807 10.5956 13.006 10.4775 12.9988 10.359C12.9915 10.2406 12.952 10.1264 12.8845 10.0289L7.03466 1.57888C6.97459 1.4928 6.89461 1.42249 6.80153 1.37395C6.70845 1.3254 6.60503 1.30005 6.50005 1.30005C6.39508 1.30005 6.29165 1.3254 6.19858 1.37395C6.1055 1.42249 6.02552 1.4928 5.96544 1.57888Z" fill="#247249"/>
</svg>
