<svg width="116" height="115" viewBox="0 0 116 115" fill="none" xmlns="http://www.w3.org/2000/svg">
<rect x="1.28931" y="0.72327" width="113.553" height="113.553" rx="6.50943" fill="#FFFFFA" className='background' stroke="#252525" stroke-width="1.44654"/>
<path d="M0.56604 81.0063H115.566V107.767C115.566 111.762 112.328 115 108.333 115H7.79875C3.80423 115 0.56604 111.762 0.56604 107.767V81.0063Z" fill="#252525" className='bottom'/>
<path d="M20.4797 104.006V89.0463H17.0477V95.1843H11.4817V88.9143L8.04973 89.0463V104.006H11.4817V97.9123H17.0477V104.006H20.4797ZM30.566 88.7163C29.0994 88.731 27.794 89.0756 26.65 89.7503C25.506 90.425 24.6114 91.3563 23.966 92.5443C23.3354 93.7323 23.02 95.0816 23.02 96.5923C23.02 98.0296 23.3207 99.335 23.922 100.508C24.538 101.682 25.4107 102.613 26.54 103.302C27.684 103.977 29.026 104.314 30.566 104.314C32.0327 104.3 33.338 103.962 34.482 103.302C35.626 102.628 36.5134 101.696 37.144 100.508C37.7894 99.3203 38.112 97.9636 38.112 96.4383C38.112 95.001 37.8114 93.6956 37.21 92.5223C36.6087 91.349 35.736 90.425 34.592 89.7503C33.4627 89.061 32.1207 88.7163 30.566 88.7163ZM26.584 96.5703C26.584 95.5876 26.7674 94.7223 27.134 93.9743C27.5007 93.2116 27.9847 92.625 28.586 92.2143C29.202 91.8036 29.8767 91.5983 30.61 91.5983C31.402 91.5983 32.0914 91.811 32.678 92.2363C33.2794 92.647 33.7414 93.219 34.064 93.9523C34.3867 94.6856 34.548 95.5143 34.548 96.4383C34.548 97.5236 34.372 98.4403 34.02 99.1883C33.668 99.9363 33.184 100.501 32.568 100.882C31.9667 101.249 31.292 101.432 30.544 101.432C29.3267 101.432 28.3587 100.985 27.64 100.09C26.936 99.181 26.584 98.0076 26.584 96.5703ZM50.542 101.322H44.052V89.0463H40.62V104.006H50.938L50.542 101.322ZM59.1561 104.006C60.5787 104.006 61.8181 103.698 62.8741 103.082C63.9301 102.466 64.7441 101.594 65.3161 100.464C65.8881 99.3203 66.1741 97.9783 66.1741 96.4383C66.1741 94.9863 65.9101 93.7103 65.3821 92.6103C64.8541 91.4956 64.0621 90.623 63.0061 89.9923C61.9647 89.3616 60.6961 89.0463 59.2001 89.0463H52.9521V104.006H59.1561ZM59.1561 91.8403C60.2854 91.8403 61.1434 92.251 61.7301 93.0723C62.3167 93.8936 62.6101 95.0156 62.6101 96.4383C62.6101 98.0516 62.2874 99.2543 61.6421 100.046C60.9967 100.838 60.1167 101.234 59.0021 101.234H56.3841V91.8403H59.1561ZM80.0016 88.7163C78.5349 88.731 77.2296 89.0756 76.0856 89.7503C74.9416 90.425 74.0469 91.3563 73.4016 92.5443C72.7709 93.7323 72.4556 95.0816 72.4556 96.5923C72.4556 98.0296 72.7563 99.335 73.3576 100.508C73.9736 101.682 74.8463 102.613 75.9756 103.302C77.1196 103.977 78.4616 104.314 80.0016 104.314C81.4683 104.3 82.7736 103.962 83.9176 103.302C85.0616 102.628 85.9489 101.696 86.5796 100.508C87.2249 99.3203 87.5476 97.9636 87.5476 96.4383C87.5476 95.001 87.2469 93.6956 86.6456 92.5223C86.0443 91.349 85.1716 90.425 84.0276 89.7503C82.8983 89.061 81.5563 88.7163 80.0016 88.7163ZM76.0196 96.5703C76.0196 95.5876 76.2029 94.7223 76.5696 93.9743C76.9363 93.2116 77.4203 92.625 78.0216 92.2143C78.6376 91.8036 79.3123 91.5983 80.0456 91.5983C80.8376 91.5983 81.5269 91.811 82.1136 92.2363C82.7149 92.647 83.1769 93.219 83.4996 93.9523C83.8223 94.6856 83.9836 95.5143 83.9836 96.4383C83.9836 97.5236 83.8076 98.4403 83.4556 99.1883C83.1036 99.9363 82.6196 100.501 82.0036 100.882C81.4023 101.249 80.7276 101.432 79.9796 101.432C78.7623 101.432 77.7943 100.985 77.0756 100.09C76.3716 99.181 76.0196 98.0076 76.0196 96.5703ZM93.4876 104.006V95.0743L99.8236 104.006H103.124V89.0463H99.6916V98.0883L93.3556 89.0463H90.0556V104.006H93.4876ZM106.067 98.5943L108.795 99.5623L109.169 88.4303H105.671L106.067 98.5943ZM107.431 100.376C106.918 100.376 106.485 100.552 106.133 100.904C105.781 101.256 105.605 101.689 105.605 102.202C105.605 102.701 105.781 103.126 106.133 103.478C106.485 103.83 106.918 104.006 107.431 104.006C107.944 104.006 108.37 103.83 108.707 103.478C109.059 103.126 109.235 102.701 109.235 102.202C109.235 101.689 109.059 101.256 108.707 100.904C108.37 100.552 107.944 100.376 107.431 100.376Z" fill="#FFFFFA" className='text'/>
<path d="M87.1415 47.8805C87.2861 47.6635 87.3585 47.4465 87.5031 47.1572C87.3585 47.3742 87.2138 47.6635 87.1415 47.8805Z" fill="#FF0000"/>
<path d="M49.8207 23.8171H34.415C34.0534 23.8171 33.7641 24.1064 33.7641 24.468V25.4083C33.7641 25.7699 34.0534 26.0592 34.415 26.0592H49.8207C50.1823 26.0592 50.4716 25.7699 50.4716 25.4083V24.468C50.4716 24.1064 50.1823 23.8171 49.8207 23.8171Z" fill="#6F4C23" className='cover'/>
<path d="M39.4057 25.9869L32.6792 35.6064C32.5346 34.9554 32.3899 34.3045 32.3899 33.5812C32.3899 29.6033 35.5 26.3485 39.4057 25.9869ZM39.9843 41.1756C42.3711 41.1756 44.4685 40.0907 45.8428 38.3548L36.8742 40.5246C37.8868 40.9586 38.8994 41.1756 39.9843 41.1756ZM47.217 31.3391C46.8553 30.2542 46.3491 29.3139 45.5535 28.446L42.805 32.3517L47.217 31.3391ZM73.6163 36.836C70 34.6661 57.7044 28.88 53.3648 28.88C49.9654 28.88 48.1572 30.1095 47.2893 31.7007L44.1069 32.4963C43.8899 32.5687 43.7453 32.5687 43.5283 32.641C40.7799 33.3643 38.827 34.0152 37.4528 34.7385C36.2233 35.3171 39.695 33.3643 42.588 32.2794L47.7956 24.8297C48.7358 23.5278 48.3742 21.7196 47.0723 20.7793C45.7704 19.8391 43.9623 20.2007 43.022 21.5026L32.8962 35.968C32.8962 35.968 32.8962 36.0404 32.8239 36.0404C32.6069 36.402 32.4623 36.7636 32.3899 37.1253C32.3899 37.1976 32.3899 37.2699 32.3899 37.2699C32.3899 37.3423 32.3899 37.4869 32.3899 37.5592C32.3899 37.7762 32.3899 37.9932 32.4623 38.2102C32.4623 38.3548 32.5346 38.4271 32.6069 38.5718C32.6792 38.6441 32.6792 38.7888 32.7516 38.8611C32.8239 39.0058 32.8962 39.0781 32.8962 39.1504C32.9685 39.2228 33.0409 39.2951 33.0409 39.3674C33.1132 39.4397 33.1132 39.4397 33.1855 39.5121C33.2579 39.5844 33.3302 39.6567 33.4025 39.729C33.4748 39.8014 33.5471 39.8737 33.6918 39.946C33.7641 39.946 33.7641 40.0183 33.8365 40.0183C33.9088 40.0183 33.9088 40.0907 33.9811 40.0907C34.1981 40.2353 34.4151 40.3077 34.6321 40.38C34.7044 40.38 34.7767 40.38 34.849 40.4523C34.9214 40.4523 34.9937 40.4523 34.9937 40.4523C35.066 40.4523 35.2107 40.4523 35.283 40.4523C35.5 40.4523 35.717 40.4523 35.9339 40.38L47.1446 37.7039C47.8679 39.3674 49.1698 41.1032 51.7013 42.8391C51.7013 42.8391 51.7012 42.8391 51.7736 42.8391C51.7736 42.8391 51.7736 42.8391 51.8459 42.8391C52.0629 42.9837 52.3522 43.2007 52.6415 43.3454C53.2924 43.7794 54.522 44.2856 55.9685 44.8643C56.2579 45.0089 56.6195 45.0812 56.9088 45.2259C56.9088 45.2259 56.9088 45.2259 56.9811 45.2259C58.7893 45.8045 61.1761 46.2385 60.5975 46.2385C59.9465 46.2385 58.7893 46.2385 57.1258 45.7322L50.8333 47.8297C49.2421 48.336 48.2295 49.8548 48.3742 51.5183L49.8207 71.7699C49.9654 73.6504 51.5566 75.097 53.4371 75.097C53.5094 75.097 53.5817 75.097 53.5817 75.097C52.7861 74.3737 52.3522 73.3611 52.3522 72.2039V52.6756C52.3522 51.0844 53.2924 49.6378 54.8113 48.9869L60.8144 46.4554C60.9591 46.5278 61.1761 46.6001 61.3207 46.6001L54.8836 49.2762C53.5094 49.8548 52.6415 51.1567 52.6415 52.6032V72.1315C52.6415 74.1567 54.2327 75.7479 56.2578 75.7479C58.283 75.7479 59.8742 74.1567 59.8742 72.1315V54.99L72.6761 49.6379C73.544 49.7825 74.0503 49.7825 74.2673 49.7102C75.7138 48.9869 77.8836 46.8171 77.8836 43.924C77.8836 41.0309 77.2327 39.0058 73.6163 36.836Z" fill="#252525" className='person'/>
<path d="M82.9465 69.9617C83.0912 69.8171 83.0912 69.6724 82.9465 69.5278C82.5849 68.9492 77.4497 61.4272 72.7484 54.5561H81.2107C81.5723 54.5561 81.9339 54.2668 81.9339 53.8328V50.9397C81.9339 50.5781 81.6446 50.2165 81.2107 50.2165H72.6761C74.5566 48.0467 76.2201 47.902 79.4748 47.6127C80.3427 47.5404 81.283 47.468 82.3679 47.3234C82.5849 47.3234 82.7295 47.1064 82.6572 46.8894C82.6572 46.6724 82.4402 46.5278 82.2232 46.6001C81.1383 46.7448 80.1981 46.8171 79.4025 46.8894C76.0031 47.1787 73.978 47.3957 71.7358 50.2165H69.7107C68.5534 48.5529 67.5409 47.1064 66.6729 45.9492C65.805 44.5026 64.5755 42.6221 63.9968 42.3328C63.3459 41.6819 62.1887 41.0309 60.2358 40.8139C57.3427 40.5246 52.7861 40.8139 52.5692 40.8139C52.3522 40.8139 52.2075 40.9586 52.2075 41.1756C52.2075 41.3926 52.4245 41.5372 52.5692 41.5372C52.6415 41.5372 57.2704 41.2479 60.0912 41.5372C61.1761 41.6095 62.044 41.8989 62.6226 42.2605H59.5126C58.066 42.2605 57.3427 42.9838 57.3427 43.707C57.3427 44.4303 59.5126 44.4303 60.9591 44.4303C62.044 44.4303 63.8522 44.4303 64.9371 44.7196C65.7327 45.8045 67.1069 47.7573 68.8427 50.2165H66.022C65.6604 50.2165 65.2987 50.5058 65.2987 50.9397V53.9051C65.2987 54.2668 65.588 54.6284 66.022 54.6284H68.9874C66.8176 58.1001 64.1415 62.729 62.3333 65.8391C62.3333 65.8391 62.3333 65.8391 62.261 65.9114C61.393 67.358 60.7421 68.4429 60.5251 68.9492C60.0912 68.8045 59.6572 68.7322 59.2233 68.7322C57.1981 68.7322 55.6069 70.3234 55.6069 72.3485C55.6069 74.3737 57.1981 75.9649 59.2233 75.9649C61.2484 75.9649 62.8396 74.3737 62.8396 72.3485C62.8396 71.0467 62.1886 69.9617 61.1761 69.3108C61.4654 68.8045 62.044 67.7919 62.8396 66.4177H79.7641C79.8365 66.4177 79.9088 66.4177 79.9811 66.3454C80.632 67.2856 81.283 68.2259 81.8616 69.0938C81.3553 68.8768 80.849 68.7322 80.2704 68.7322C78.2453 68.7322 76.6541 70.3234 76.6541 72.3485C76.6541 74.3737 78.2453 75.9649 80.2704 75.9649C82.2956 75.9649 83.8868 74.3737 83.8868 72.3485C83.7421 71.4083 83.4528 70.6127 82.9465 69.9617ZM62.044 72.2762C62.044 73.8674 60.7421 75.1693 59.1509 75.1693C57.5597 75.1693 56.2578 73.8674 56.2578 72.2762C56.2578 70.685 57.5597 69.3831 59.1509 69.3831C59.5849 69.3831 60.0189 69.4555 60.3805 69.6724C60.4528 69.6724 60.5251 69.7448 60.5251 69.7448C61.4654 70.2511 62.044 71.1913 62.044 72.2762ZM63.2012 65.6221C65.0817 62.4397 67.7578 57.8831 69.783 54.5561H71.8082C74.2673 58.1724 77.0157 62.1504 79.4025 65.6221H63.2012ZM80.1258 75.1693C78.5346 75.1693 77.2327 73.8674 77.2327 72.2762C77.2327 70.685 78.5346 69.3831 80.1258 69.3831C81.717 69.3831 83.0188 70.685 83.0188 72.2762C83.0188 73.8674 81.717 75.1693 80.1258 75.1693Z" fill="#6F4C23" className='walker'/>
</svg>
