<svg width="116" height="115" viewBox="0 0 116 115" fill="none" xmlns="http://www.w3.org/2000/svg">
<rect x="1.42139" y="0.72327" width="113.553" height="113.553" rx="6.50943" fill="#FFFFFA" className='background' stroke="#252525" stroke-width="1.44654"/>
<path d="M0.69812 81.0063H115.698V107.767C115.698 111.762 112.46 115 108.465 115H7.93083C3.93631 115 0.69812 111.762 0.69812 107.767V81.0063Z" fill="#252525" className='bottom'/>
<path d="M32.0294 89.8603C31.4427 89.5083 30.7607 89.237 29.9834 89.0463C29.206 88.8556 28.4947 88.7603 27.8494 88.7603C26.3974 88.7603 25.1067 89.0976 23.9774 89.7723C22.848 90.4323 21.968 91.3563 21.3374 92.5443C20.7067 93.7323 20.3914 95.0816 20.3914 96.5923C20.3914 98.0736 20.6847 99.401 21.2714 100.574C21.858 101.733 22.7087 102.642 23.8234 103.302C24.9527 103.962 26.2947 104.292 27.8494 104.292C28.5534 104.292 29.3087 104.197 30.1154 104.006C30.9367 103.83 31.626 103.581 32.1834 103.258L30.8854 100.706C29.888 101.205 28.8687 101.454 27.8274 101.454C27.094 101.454 26.434 101.249 25.8474 100.838C25.2607 100.413 24.7987 99.8336 24.4614 99.1003C24.124 98.3523 23.9554 97.509 23.9554 96.5703C23.9554 95.5876 24.1314 94.7223 24.4834 93.9743C24.8354 93.2116 25.3047 92.625 25.8914 92.2143C26.4927 91.8036 27.138 91.5983 27.8274 91.5983C28.37 91.5983 28.832 91.6423 29.2134 91.7303C29.6094 91.8183 30.2034 91.987 30.9954 92.2363L32.0294 89.8603ZM40.6991 88.7163C39.2324 88.731 37.9271 89.0756 36.7831 89.7503C35.6391 90.425 34.7444 91.3563 34.0991 92.5443C33.4684 93.7323 33.1531 95.0816 33.1531 96.5923C33.1531 98.0296 33.4538 99.335 34.0551 100.508C34.6711 101.682 35.5438 102.613 36.6731 103.302C37.8171 103.977 39.1591 104.314 40.6991 104.314C42.1658 104.3 43.4711 103.962 44.6151 103.302C45.7591 102.628 46.6464 101.696 47.2771 100.508C47.9224 99.3203 48.2451 97.9636 48.2451 96.4383C48.2451 95.001 47.9444 93.6956 47.3431 92.5223C46.7418 91.349 45.8691 90.425 44.7251 89.7503C43.5958 89.061 42.2538 88.7163 40.6991 88.7163ZM36.7171 96.5703C36.7171 95.5876 36.9004 94.7223 37.2671 93.9743C37.6338 93.2116 38.1178 92.625 38.7191 92.2143C39.3351 91.8036 40.0098 91.5983 40.7431 91.5983C41.5351 91.5983 42.2244 91.811 42.8111 92.2363C43.4124 92.647 43.8744 93.219 44.1971 93.9523C44.5198 94.6856 44.6811 95.5143 44.6811 96.4383C44.6811 97.5236 44.5051 98.4403 44.1531 99.1883C43.8011 99.9363 43.3171 100.501 42.7011 100.882C42.0998 101.249 41.4251 101.432 40.6771 101.432C39.4598 101.432 38.4918 100.985 37.7731 100.09C37.0691 99.181 36.7171 98.0076 36.7171 96.5703ZM52.5791 88.8263L49.1691 89.2223L54.8671 104.006H58.1011L63.7991 89.0463H60.3891L56.5391 99.6503L52.5791 88.8263ZM76.5496 104.006L76.1316 101.322H69.2456V97.8243H74.4156L73.9976 95.1183H69.2456V91.7523H75.6696L75.2516 89.0463H65.8136V104.006H76.5496ZM78.7902 104.006H82.2222V98.8143H84.9062L87.7002 104.006H91.5502L88.0522 97.8463C88.7562 97.4503 89.3135 96.915 89.7242 96.2403C90.1349 95.5656 90.3402 94.7883 90.3402 93.9083C90.3402 92.295 89.7755 91.085 88.6462 90.2783C87.5169 89.457 86.0722 89.0463 84.3122 89.0463H78.7902V104.006ZM84.2022 91.8183C85.0235 91.8183 85.6542 91.9943 86.0942 92.3463C86.5342 92.6983 86.7542 93.241 86.7542 93.9743C86.7542 94.6343 86.5195 95.155 86.0502 95.5363C85.5955 95.903 84.9942 96.0863 84.2462 96.0863H82.2222V91.8183H84.2022ZM92.8895 98.5943L95.6175 99.5623L95.9915 88.4303H92.4935L92.8895 98.5943ZM94.2535 100.376C93.7401 100.376 93.3075 100.552 92.9555 100.904C92.6035 101.256 92.4275 101.689 92.4275 102.202C92.4275 102.701 92.6035 103.126 92.9555 103.478C93.3075 103.83 93.7401 104.006 94.2535 104.006C94.7668 104.006 95.1921 103.83 95.5295 103.478C95.8815 103.126 96.0575 102.701 96.0575 102.202C96.0575 101.689 95.8815 101.256 95.5295 100.904C95.1921 100.552 94.7668 100.376 94.2535 100.376Z" fill="#FFFFFA" className='text'/>
<path d="M55.0157 23.8171H39.61C39.2484 23.8171 38.959 24.1064 38.959 24.468V25.4083C38.959 25.7699 39.2484 26.0592 39.61 26.0592H55.0157C55.3773 26.0592 55.6666 25.7699 55.6666 25.4083V24.468C55.6666 24.1064 55.3773 23.8171 55.0157 23.8171Z" fill="#6F4C23" className='cover'/>
<path d="M37.5849 37.5592C37.5849 37.7762 37.5849 37.9932 37.6572 38.2101C37.5849 37.9932 37.5849 37.7762 37.5849 37.5592Z" fill="#FF0000"/>
<path d="M44.6006 25.9869L37.8742 35.6064C37.7295 34.9554 37.5849 34.3045 37.5849 33.5812C37.5849 29.6033 40.695 26.3485 44.6006 25.9869ZM45.1792 41.1756C47.566 41.1756 49.6635 40.0907 51.0377 38.3548L42.0692 40.5246C43.0818 40.9586 44.0943 41.1756 45.1792 41.1756ZM52.4119 31.3391C52.0503 30.2542 51.544 29.3139 50.7484 28.446L48 32.3517L52.4119 31.3391ZM78.8113 36.836C75.195 34.6661 62.8994 28.88 58.5597 28.88C55.1604 28.88 53.3522 30.1095 52.4843 31.7007L49.3019 32.4963C49.0849 32.5687 48.9402 32.5687 48.7233 32.641C45.9748 33.3643 44.022 34.0152 42.6478 34.7385C41.4182 35.3171 44.8899 33.3643 47.783 32.2794L52.9906 24.8297C53.9308 23.5278 53.5692 21.7196 52.2673 20.7793C50.9654 19.8391 49.1572 20.2007 48.217 21.5026L38.0912 35.968C38.0912 35.968 38.0912 36.0404 38.0189 36.0404C37.8019 36.402 37.6572 36.7636 37.5849 37.1253C37.5849 37.1976 37.5849 37.2699 37.5849 37.2699C37.5849 37.3423 37.5849 37.4869 37.5849 37.5592C37.5849 37.7762 37.5849 37.9932 37.6572 38.2102C37.6572 38.3548 37.7296 38.4271 37.8019 38.5718C37.8742 38.6441 37.8742 38.7888 37.9465 38.8611C38.0189 39.0058 38.0912 39.0781 38.0912 39.1504C38.1635 39.2228 38.2358 39.2951 38.2358 39.3674C38.3082 39.4397 38.3082 39.4397 38.3805 39.5121C38.4528 39.5844 38.5251 39.6567 38.5975 39.729C38.6698 39.8014 38.7421 39.8737 38.8868 39.946C38.9591 39.946 38.9591 40.0183 39.0314 40.0183C39.1038 40.0183 39.1038 40.0907 39.1761 40.0907C39.3931 40.2353 39.6101 40.3077 39.827 40.38C39.8994 40.38 39.9717 40.38 40.044 40.4523C40.1163 40.4523 40.1887 40.4523 40.1887 40.4523C40.261 40.4523 40.4057 40.4523 40.478 40.4523C40.695 40.4523 40.9119 40.4523 41.1289 40.38L52.3396 37.7039C53.0629 39.3674 54.3648 41.1032 56.8962 42.8391C56.8962 42.8391 56.8962 42.8391 56.9685 42.8391C56.9685 42.8391 56.9685 42.8391 57.0409 42.8391C57.2579 42.9837 57.5472 43.2007 57.8365 43.3454C58.4874 43.7794 59.717 44.2856 61.1635 44.8643C61.4528 45.0089 61.8145 45.0812 62.1038 45.2259C62.1038 45.2259 62.1038 45.2259 62.1761 45.2259C63.9843 45.8045 66.3711 46.2385 65.7924 46.2385C65.1415 46.2385 63.9843 46.2385 62.3207 45.7322L56.0283 47.8297C54.4371 48.336 53.4245 49.8548 53.5692 51.5183L55.0157 71.7699C55.1604 73.6504 56.7516 75.097 58.6321 75.097C58.7044 75.097 58.7767 75.097 58.7767 75.097C57.9811 74.3737 57.5472 73.3611 57.5472 72.2039V52.6756C57.5472 51.0844 58.4874 49.6378 60.0063 48.9869L66.0094 46.4554C66.1541 46.5278 66.3711 46.6001 66.5157 46.6001L60.0786 49.2762C58.7044 49.8548 57.8365 51.1567 57.8365 52.6032V72.1315C57.8365 74.1567 59.4277 75.7479 61.4528 75.7479C63.478 75.7479 65.0692 74.1567 65.0692 72.1315V54.99L77.8711 49.6379C78.739 49.7825 79.2453 49.7825 79.4623 49.7102C80.9088 48.9869 83.0786 46.8171 83.0786 43.924C83.0786 41.0309 82.4277 39.0058 78.8113 36.836Z" fill="#252525" className='person'/>
<path d="M32.0157 42.6221L23.2641 52.7479L15.1635 42.6221H20.2264V39.946H26.9528V42.6221H32.0157ZM27.0975 29.2416H20.3711V35.968H27.0975V29.2416Z" fill="#247249" className='arrow'/>
<path d="M88.1415 69.9617C88.2861 69.8171 88.2861 69.6724 88.1415 69.5278C87.7798 68.9492 82.6446 61.4272 77.9433 54.5561H86.4056C86.7672 54.5561 87.1289 54.2668 87.1289 53.8328V50.9397C87.1289 50.5781 86.8396 50.2165 86.4056 50.2165H77.871C79.7515 48.0467 81.4151 47.902 84.6698 47.6127C85.5377 47.5404 86.4779 47.468 87.5629 47.3234C87.7798 47.3234 87.9245 47.1064 87.8522 46.8894C87.8522 46.6724 87.6352 46.5278 87.4182 46.6001C86.3333 46.7448 85.393 46.8171 84.5974 46.8894C81.1981 47.1787 79.1729 47.3957 76.9308 50.2165H74.9056C73.7484 48.5529 72.7358 47.1064 71.8679 45.9492C70.9999 44.5026 69.7704 42.6221 69.1918 42.3328C68.5408 41.6819 67.3836 41.0309 65.4308 40.8139C62.5377 40.5246 57.9811 40.8139 57.7641 40.8139C57.5471 40.8139 57.4025 40.9586 57.4025 41.1756C57.4025 41.3926 57.6194 41.5372 57.7641 41.5372C57.8364 41.5372 62.4654 41.2479 65.2861 41.5372C66.371 41.6095 67.239 41.8989 67.8176 42.2605H64.7075C63.261 42.2605 62.5377 42.9838 62.5377 43.707C62.5377 44.4303 64.7075 44.4303 66.154 44.4303C67.2389 44.4303 69.0471 44.4303 70.132 44.7196C70.9276 45.8045 72.3018 47.7573 74.0377 50.2165H71.2169C70.8553 50.2165 70.4937 50.5058 70.4937 50.9397V53.9051C70.4937 54.2668 70.783 54.6284 71.2169 54.6284H74.1823C72.0125 58.1001 69.3364 62.729 67.5283 65.8391C67.5283 65.8391 67.5283 65.8391 67.4559 65.9114C66.588 67.358 65.9371 68.4429 65.7201 68.9492C65.2861 68.8045 64.8522 68.7322 64.4182 68.7322C62.393 68.7322 60.8018 70.3234 60.8018 72.3485C60.8018 74.3737 62.393 75.9649 64.4182 75.9649C66.4434 75.9649 68.0345 74.3737 68.0345 72.3485C68.0345 71.0467 67.3836 69.9617 66.371 69.3108C66.6603 68.8045 67.239 67.7919 68.0345 66.4177H84.9591C85.0314 66.4177 85.1037 66.4177 85.176 66.3454C85.827 67.2856 86.4779 68.2259 87.0566 69.0938C86.5503 68.8768 86.044 68.7322 85.4654 68.7322C83.4402 68.7322 81.849 70.3234 81.849 72.3485C81.849 74.3737 83.4402 75.9649 85.4654 75.9649C87.4905 75.9649 89.0817 74.3737 89.0817 72.3485C88.9371 71.4083 88.6477 70.6127 88.1415 69.9617ZM67.2389 72.2762C67.2389 73.8674 65.9371 75.1693 64.3459 75.1693C62.7547 75.1693 61.4528 73.8674 61.4528 72.2762C61.4528 70.685 62.7547 69.3831 64.3459 69.3831C64.7798 69.3831 65.2138 69.4555 65.5754 69.6724C65.6478 69.6724 65.7201 69.7448 65.7201 69.7448C66.6603 70.2511 67.2389 71.1913 67.2389 72.2762ZM68.3962 65.6221C70.2767 62.4397 72.9528 57.8831 74.9779 54.5561H77.0031C79.4622 58.1724 82.2106 62.1504 84.5974 65.6221H68.3962ZM85.3207 75.1693C83.7295 75.1693 82.4276 73.8674 82.4276 72.2762C82.4276 70.685 83.7295 69.3831 85.3207 69.3831C86.9119 69.3831 88.2138 70.685 88.2138 72.2762C88.2138 73.8674 86.9119 75.1693 85.3207 75.1693Z" fill="#6F4C23" className='walker'/>
</svg>
