<svg width="115" height="115" viewBox="0 0 115 115" fill="none" xmlns="http://www.w3.org/2000/svg">
<rect x="0.722222" y="0.722222" width="113.389" height="113.389" rx="6.5" fill="#FFFFFA" stroke="#252525" stroke-width="1.44444"/>
<path d="M0 80.8889H114.833V107.611C114.833 111.6 111.6 114.833 107.611 114.833H7.22222C3.2335 114.833 0 111.6 0 107.611V80.8889Z" fill="#252525"/>
<path d="M26.5844 103.889C28.3004 103.889 29.7011 103.522 30.7864 102.789C31.8718 102.041 32.4144 100.926 32.4144 99.4449C32.4144 98.6676 32.2164 97.9782 31.8204 97.3769C31.4391 96.7756 30.9184 96.2696 30.2584 95.8589C31.2558 94.9789 31.7544 94.0842 31.7544 93.1749C31.7544 91.7376 31.2411 90.6742 30.2144 89.9849C29.2024 89.2809 27.8678 88.9289 26.2104 88.9289H20.6884V103.889H26.5844ZM25.9244 91.7009C27.4204 91.7009 28.1684 92.2362 28.1684 93.3069C28.1684 93.8056 27.9264 94.1796 27.4424 94.4289C26.9731 94.6782 26.3644 94.8029 25.6164 94.8029H24.1204V91.7009H25.9244ZM26.6064 97.5529C27.2958 97.5529 27.8384 97.7216 28.2344 98.0589C28.6451 98.3816 28.8504 98.8362 28.8504 99.4229C28.8504 99.9656 28.6378 100.391 28.2124 100.699C27.7871 100.992 27.2224 101.139 26.5184 101.139H24.1204V97.5529H26.6064ZM34.6963 103.889H38.1283V98.6969H40.8123L43.6063 103.889H47.4563L43.9583 97.7289C44.6623 97.3329 45.2196 96.7976 45.6303 96.1229C46.0409 95.4482 46.2463 94.6709 46.2463 93.7909C46.2463 92.1776 45.6816 90.9676 44.5523 90.1609C43.4229 89.3396 41.9783 88.9289 40.2183 88.9289H34.6963V103.889ZM40.1083 91.7009C40.9296 91.7009 41.5603 91.8769 42.0003 92.2289C42.4403 92.5809 42.6603 93.1236 42.6603 93.8569C42.6603 94.5169 42.4256 95.0376 41.9563 95.4189C41.5016 95.7856 40.9003 95.9689 40.1523 95.9689H38.1283V91.7009H40.1083ZM53.6135 88.9289L47.8935 103.889H51.3255L52.4915 100.655H57.9255L59.1355 104.109L62.5235 103.713L56.8475 88.9289H53.6135ZM56.9135 97.9269H53.4595L55.1535 93.2849L56.9135 97.9269ZM73.4701 103.889L69.3121 97.9929L67.9921 99.3129V103.889H64.5381V88.9289H67.9921V94.6489L74.2401 88.5989L76.8581 90.5349L71.7321 95.5949L77.8041 103.889H73.4701ZM90.5709 103.889L90.1529 101.205H83.2669V97.7069H88.4369L88.0189 95.0009H83.2669V91.6349H89.6909L89.2729 88.9289H79.8349V103.889H90.5709ZM92.1295 98.4769L94.8575 99.4449L95.2315 88.3129H91.7335L92.1295 98.4769ZM93.4935 100.259C92.9802 100.259 92.5475 100.435 92.1955 100.787C91.8435 101.139 91.6675 101.572 91.6675 102.085C91.6675 102.584 91.8435 103.009 92.1955 103.361C92.5475 103.713 92.9802 103.889 93.4935 103.889C94.0068 103.889 94.4322 103.713 94.7695 103.361C95.1215 103.009 95.2975 102.584 95.2975 102.085C95.2975 101.572 95.1215 101.139 94.7695 100.787C94.4322 100.435 94.0068 100.259 93.4935 100.259Z" fill="#FFFFFA"/>
<path d="M50.5555 43.4778C50.4833 43.4778 50.4833 43.4778 50.5555 43.4778C49.4722 40.7334 48.9666 39.1445 48.8222 38.1334C48.8222 38.2056 48.8222 38.2778 48.8944 38.35C48.8944 38.4945 48.9666 38.6389 48.9666 38.7111C49.0389 38.8556 49.0389 39 49.1111 39.0723L50.5555 43.4778Z" fill="#FF0000"/>
<path d="M33.5833 54.0222V54.1666C33.6556 54.0944 33.6556 54.0944 33.7278 54.0222C33.6556 54.0222 33.6556 54.0222 33.5833 54.0222Z" fill="#FF0000"/>
<path d="M33.7278 54.0222C33.7278 54.0944 33.6556 54.0944 33.5833 54.1666V54.0222C33.6556 54.0222 33.6556 54.0222 33.7278 54.0222Z" fill="#FF0000"/>
<path d="M77.2778 35.3889L64.4945 39.2889L63.05 26.4333L67.3112 29.1056L68.7556 26.8666L74.4612 30.4778L73.0167 32.7167L77.2778 35.3889ZM80.3112 21.3778L74.6056 17.7667L70.9945 23.4722L76.7 27.0833L80.3112 21.3778Z" fill="#247249"/>
<path d="M78.6501 72.8722C78.289 73.0166 77.8556 73.0166 77.4945 73.0166C77.0612 73.0166 76.6278 72.9444 76.1945 72.8C76.4112 72.5111 76.6278 72.2222 76.7723 71.9333C77.2778 70.85 77.2778 69.6944 76.8445 68.6111L68.9001 47.6666C68.2501 45.9333 66.6612 44.85 64.8556 44.85H57.7056L56.3334 43.4055C56.4056 43.4055 56.4056 43.4055 56.4778 43.4055H70.9223C72.6556 43.4055 74.2445 44.5611 74.7501 46.2222L81.2501 67.8889C81.9001 69.9833 80.7445 72.2222 78.6501 72.8722ZM76.4834 68.6833L68.539 47.7389C67.9612 46.2222 66.5167 45.2111 64.8556 45.2111H58.0667L61.6056 48.9666C62.7612 50.1944 62.9778 52 62.2556 53.5166L69.1167 71.5722C69.6945 73.1611 71.2112 74.1 72.8001 74.1C73.3056 74.1 73.739 74.0277 74.1723 73.8111C76.2667 73.0888 77.2778 70.7777 76.4834 68.6833ZM51.4223 38.6389V38.4222C51.5667 38.1333 51.7112 37.8444 51.8556 37.5555C53.3001 34.6666 54.7445 30.3333 54.7445 26.7222C54.7445 25.1333 53.7334 23.1111 52.5778 21.3055C53.2278 21.5222 53.9501 21.6666 54.7445 21.6666C59.1501 21.6666 62.689 17.7666 62.689 13C62.689 8.23331 59.1501 4.33331 54.7445 4.33331C50.339 4.33331 46.8001 8.23331 46.8001 13C46.8001 14.5166 47.1612 15.9611 47.8112 17.2611C46.3667 17.1888 44.0556 17.1889 42.4667 18.7778C40.3001 20.9444 37.5556 28.1666 35.9667 33.9444C33.8001 41.8889 35.2445 50.5555 36.689 52.7222C38.1334 54.8889 40.3001 54.8889 43.189 54.8889C45.2834 54.8889 51.1334 53.7333 54.5278 52.8666C53.5167 51.6388 52.0723 50.05 50.7723 48.75C50.0501 48.1 49.4001 47.45 48.9667 46.9444C47.5223 45.5 43.9112 44.0555 43.9112 39.7222C43.9112 35.3889 43.189 26.7222 43.189 25.2778C43.189 23.8333 42.6112 22.1722 44.7056 20.8722C44.5612 21.0888 43.6223 22.3889 43.6223 24.6277V24.6999V25.2055L44.2723 40.3C44.3445 41.1666 44.6334 41.9611 45.2112 42.6111L56.0445 54.1666C56.7667 54.8889 57.7056 55.3222 58.7167 55.3222C59.5834 55.3222 60.5223 54.9611 61.1723 54.3111C62.6167 52.9388 62.689 50.6277 61.3167 49.1833L51.4223 38.6389ZM53.6612 50.5555C53.4445 50.4111 53.1556 50.1222 52.7223 49.7611L53.6612 50.5555ZM53.7334 50.6277L53.9501 50.9166C53.8778 50.8444 53.8056 50.7722 53.7334 50.6277Z" fill="#252525"/>
<path d="M43.55 60.0166C42.1778 60.0166 41.0222 61.1721 41.0222 62.5444C41.0222 63.9166 42.1778 65.0721 43.55 65.0721C44.9222 65.0721 46.0778 63.9166 46.0778 62.5444C46.0778 61.1721 44.9222 60.0166 43.55 60.0166ZM43.55 60.0166C42.1778 60.0166 41.0222 61.1721 41.0222 62.5444C41.0222 63.9166 42.1778 65.0721 43.55 65.0721C44.9222 65.0721 46.0778 63.9166 46.0778 62.5444C46.0778 61.1721 44.9222 60.0166 43.55 60.0166ZM64.1333 58.5721L69.1889 75.9055L75.6889 75.1832L75.1833 73.161C71.2111 75.3999 69.8389 72.9443 68.7556 70.7055C67.7445 68.6832 65.0722 58.4999 64.2778 55.6832H63.5556V51.711C63.5556 48.6055 61.75 46.7999 58.6445 46.7999H35.8222C35.1722 42.7555 34.8111 38.8555 34.5222 36.8333C33.8 31.7777 33.8 30.3333 33.0778 28.8888C32.3556 27.4444 30.9111 27.4444 30.1889 27.4444C29.7556 27.4444 29.25 27.5166 28.8167 27.5888C27.4444 24.5554 25.4944 24.6999 24.1944 24.7721C24.05 24.7721 23.8333 24.7721 23.6889 24.7721C23.4 24.7721 23.1111 24.9888 23.1111 25.3499C23.1111 25.6388 23.3278 25.9277 23.6889 25.9277C23.8333 25.9277 24.05 25.9277 24.2667 25.9277C25.5667 25.8555 27.0833 25.7832 28.2389 29.1777C29.3944 32.6443 31.9944 46.6554 32.9333 51.7832C30.1167 54.5277 28.3833 58.3554 28.3833 62.6166C28.3833 70.9943 35.1722 77.7832 43.55 77.7832C51.9278 77.7832 58.7167 70.9943 58.7167 62.6166C58.7167 61.2443 58.5722 59.9444 58.2111 58.7166L62.4722 58.4999V69.7666C60.3778 69.8388 58.7167 71.5721 58.7167 73.7388C58.7167 75.9055 60.5222 77.711 62.6889 77.711C64.8556 77.711 66.6611 75.9055 66.6611 73.7388C66.6611 71.861 65.3611 70.2721 63.6278 69.8388V58.5721H64.1333ZM39.5056 47.9555C38.35 48.2443 37.2667 48.6777 36.2556 49.2554C36.1111 48.8221 36.0389 48.3888 35.9667 47.9555H39.5056ZM43.55 49.5444C47.5222 49.5444 51.0611 51.3499 53.5167 54.1666C52.7945 54.2388 52 54.2388 51.2056 54.2388C43.2611 54.2388 38.9278 54.2388 38.2056 53.5166C37.8444 53.1555 37.4111 52.361 37.05 51.3499C38.9278 50.1944 41.1667 49.5444 43.55 49.5444ZM33.7278 54.0221C33.7278 54.0944 33.6556 54.0944 33.5833 54.1666V54.0221C33.6556 54.0221 33.6556 54.0221 33.7278 54.0221ZM43.55 75.5444C36.4 75.5444 30.55 69.6944 30.55 62.5444C30.55 59.3666 31.7056 56.4777 33.5833 54.1666L33.8 60.0166L55.9722 58.7888C56.3333 60.0166 56.55 61.2444 56.55 62.5444C56.55 69.6944 50.7 75.5444 43.55 75.5444ZM56.0445 53.9499C54.0222 51.061 51.0611 48.8943 47.5944 47.9555H58.7167C60.45 47.9555 62.4722 48.6055 62.4722 51.711V52.4332C61.3889 52.8666 59.2222 53.5888 56.0445 53.9499ZM65.2167 73.7388C65.2167 75.111 64.0611 76.2666 62.6889 76.2666C61.3167 76.2666 60.1611 75.111 60.1611 73.7388C60.1611 72.3666 61.3167 71.211 62.6889 71.211C64.0611 71.211 65.2167 72.3666 65.2167 73.7388ZM43.55 60.0166C42.1778 60.0166 41.0222 61.1721 41.0222 62.5444C41.0222 63.9166 42.1778 65.0721 43.55 65.0721C44.9222 65.0721 46.0778 63.9166 46.0778 62.5444C46.0778 61.1721 44.9222 60.0166 43.55 60.0166Z" fill="#6F4C23"/>
</svg>
