<svg width="116" height="115" viewBox="0 0 116 115" fill="none" xmlns="http://www.w3.org/2000/svg">
<rect x="1.22222" y="0.722222" width="113.389" height="113.389" rx="6.5" fill="#FFFFFA" stroke="#252525" stroke-width="1.44444"/>
<path d="M0.5 80.8889H115.333V107.611C115.333 111.6 112.1 114.833 108.111 114.833H7.72222C3.7335 114.833 0.5 111.6 0.5 107.611V80.8889Z" fill="#252525"/>
<path d="M31.7479 89.7429C31.1613 89.3909 30.4793 89.1196 29.7019 88.9289C28.9246 88.7382 28.2133 88.6429 27.5679 88.6429C26.1159 88.6429 24.8253 88.9802 23.6959 89.6549C22.5666 90.3149 21.6866 91.2389 21.0559 92.4269C20.4253 93.6149 20.1099 94.9642 20.1099 96.4749C20.1099 97.9562 20.4033 99.2836 20.9899 100.457C21.5766 101.616 22.4273 102.525 23.5419 103.185C24.6713 103.845 26.0133 104.175 27.5679 104.175C28.2719 104.175 29.0273 104.08 29.8339 103.889C30.6553 103.713 31.3446 103.464 31.9019 103.141L30.6039 100.589C29.6066 101.088 28.5873 101.337 27.5459 101.337C26.8126 101.337 26.1526 101.132 25.5659 100.721C24.9793 100.296 24.5173 99.7162 24.1799 98.9829C23.8426 98.2349 23.6739 97.3916 23.6739 96.4529C23.6739 95.4702 23.8499 94.6049 24.2019 93.8569C24.5539 93.0942 25.0233 92.5076 25.6099 92.0969C26.2113 91.6862 26.8566 91.4809 27.5459 91.4809C28.0886 91.4809 28.5506 91.5249 28.9319 91.6129C29.3279 91.7009 29.9219 91.8696 30.7139 92.1189L31.7479 89.7429ZM40.4176 88.5989C38.951 88.6136 37.6456 88.9582 36.5016 89.6329C35.3576 90.3076 34.463 91.2389 33.8176 92.4269C33.187 93.6149 32.8716 94.9642 32.8716 96.4749C32.8716 97.9122 33.1723 99.2176 33.7736 100.391C34.3896 101.564 35.2623 102.496 36.3916 103.185C37.5356 103.86 38.8776 104.197 40.4176 104.197C41.8843 104.182 43.1896 103.845 44.3336 103.185C45.4776 102.51 46.365 101.579 46.9956 100.391C47.641 99.2029 47.9636 97.8462 47.9636 96.3209C47.9636 94.8836 47.663 93.5782 47.0616 92.4049C46.4603 91.2316 45.5876 90.3076 44.4436 89.6329C43.3143 88.9436 41.9723 88.5989 40.4176 88.5989ZM36.4356 96.4529C36.4356 95.4702 36.619 94.6049 36.9856 93.8569C37.3523 93.0942 37.8363 92.5076 38.4376 92.0969C39.0536 91.6862 39.7283 91.4809 40.4616 91.4809C41.2536 91.4809 41.943 91.6936 42.5296 92.1189C43.131 92.5296 43.593 93.1016 43.9156 93.8349C44.2383 94.5682 44.3996 95.3969 44.3996 96.3209C44.3996 97.4062 44.2236 98.3229 43.8716 99.0709C43.5196 99.8189 43.0356 100.384 42.4196 100.765C41.8183 101.132 41.1436 101.315 40.3956 101.315C39.1783 101.315 38.2103 100.868 37.4916 99.9729C36.7876 99.0636 36.4356 97.8902 36.4356 96.4529ZM52.2976 88.7089L48.8876 89.1049L54.5856 103.889H57.8196L63.5176 88.9289H60.1076L56.2576 99.5329L52.2976 88.7089ZM76.2682 103.889L75.8502 101.205H68.9642V97.7069H74.1342L73.7162 95.0009H68.9642V91.6349H75.3882L74.9702 88.9289H65.5322V103.889H76.2682ZM78.5088 103.889H81.9408V98.6969H84.6248L87.4188 103.889H91.2688L87.7708 97.7289C88.4748 97.3329 89.0321 96.7976 89.4428 96.1229C89.8534 95.4482 90.0588 94.6709 90.0588 93.7909C90.0588 92.1776 89.4941 90.9676 88.3648 90.1609C87.2354 89.3396 85.7908 88.9289 84.0308 88.9289H78.5088V103.889ZM83.9208 91.7009C84.7421 91.7009 85.3728 91.8769 85.8128 92.2289C86.2528 92.5809 86.4728 93.1236 86.4728 93.8569C86.4728 94.5169 86.2381 95.0376 85.7688 95.4189C85.3141 95.7856 84.7128 95.9689 83.9648 95.9689H81.9408V91.7009H83.9208ZM92.608 98.4769L95.336 99.4449L95.71 88.3129H92.212L92.608 98.4769ZM93.972 100.259C93.4587 100.259 93.026 100.435 92.674 100.787C92.322 101.139 92.146 101.572 92.146 102.085C92.146 102.584 92.322 103.009 92.674 103.361C93.026 103.713 93.4587 103.889 93.972 103.889C94.4853 103.889 94.9107 103.713 95.248 103.361C95.6 103.009 95.776 102.584 95.776 102.085C95.776 101.572 95.6 101.139 95.248 100.787C94.9107 100.435 94.4853 100.259 93.972 100.259Z" fill="#FFFFFA"/>
<path d="M99.5888 35.6975L90.8499 45.8086L82.761 35.6975H87.8166V33.0252H94.5333V35.6975H99.5888ZM94.6777 22.3364H87.9611V29.053H94.6777V22.3364Z" fill="#247249"/>
<path d="M48.4554 47.9031C48.2388 47.7586 47.9499 47.4697 47.5165 47.1086L48.4554 47.9031Z" fill="#FF0000"/>
<path d="M48.5278 47.9752L48.745 48.2649C48.6726 48.1925 48.6002 48.12 48.5278 47.9752Z" fill="#FF0000"/>
<path d="M70.1944 15.4752L55.4611 19.2308C55.1722 19.303 54.9555 19.1586 54.8833 18.8697L54.7389 18.4363C54.6666 18.1474 54.8111 17.9308 55.1 17.8586L69.8333 14.103C70.1222 14.0308 70.3389 14.1752 70.4111 14.4641L70.5555 14.8975C70.5555 15.1141 70.4111 15.403 70.1944 15.4752Z" fill="#6F4C23"/>
<path d="M61.5277 30.2086L70.9888 30.6419C69.761 31.5808 68.1721 32.0864 66.511 32.0864C64.6332 32.0864 62.8277 31.3642 61.5277 30.2086ZM59.7221 21.1086C59.361 21.8308 59.0721 22.6975 58.9999 23.5642L62.8277 23.7086L59.7221 21.1086ZM66.511 16.9197C66.0055 16.9197 65.4999 16.992 64.9943 17.0642L74.0943 24.6475V24.5031C74.0943 20.3142 70.6999 16.9197 66.511 16.9197ZM76.1166 65.2364L69.6166 43.5697C69.111 41.9086 67.5943 40.7531 65.7888 40.7531H48.8166C49.5388 40.7531 51.7055 40.0308 53.1499 39.3086C54.5943 38.5864 58.9277 34.9753 59.6499 33.5308C59.9388 32.8808 60.2999 31.4364 60.3721 29.7753L71.4943 30.2808H71.6388C71.7832 30.2808 71.8555 30.2808 71.9999 30.2808C72.1444 30.2808 72.2166 30.2808 72.361 30.2808C73.1555 30.2808 74.0221 29.9197 74.5999 29.2697C75.611 28.0419 75.4666 26.2364 74.2388 25.2253L61.2388 14.3919C60.011 13.3808 58.2055 13.5253 57.1944 14.7531C56.1832 15.9808 56.3277 17.7864 57.5555 18.7975L63.3332 23.6364C69.0388 24.3586 72.5055 25.5864 69.1832 24.9364C66.9443 24.503 63.7666 24.2142 61.6721 24.1419C61.5277 24.1419 61.3832 24.1419 61.311 24.1419L59.5055 24.0697H58.8555C56.6888 22.192 53.2221 22.842 51.1277 23.5642C48.961 24.2864 42.461 29.342 38.8499 32.9531C32.3499 39.4531 30.9055 45.9531 30.9055 47.3975C30.9055 48.842 32.3499 52.4531 35.2388 52.4531C37.6221 52.4531 51.9944 51.9475 57.1944 50.9364C57.1944 50.9364 57.1944 50.9364 57.1944 51.0086L64.0555 69.0642C64.6332 70.6531 66.1499 71.592 67.7388 71.592C68.2443 71.592 68.6777 71.5197 69.111 71.303C71.1332 70.5086 72.2166 68.2697 71.4221 66.1753L63.4777 45.2308C62.8999 43.7142 61.4555 42.7031 59.7943 42.7031H55.3166C55.3166 42.5586 55.3166 42.4864 55.3166 42.342H59.7943C61.5999 42.342 63.1888 43.4253 63.8388 45.1586L71.7832 66.103C72.2166 67.1864 72.1443 68.342 71.711 69.4253C71.5666 69.7864 71.4221 70.0753 71.1332 70.292C71.5666 70.4364 71.9999 70.5086 72.4332 70.5086C72.7944 70.5086 73.2277 70.4364 73.5888 70.3642C75.5388 69.5697 76.6943 67.3309 76.1166 65.2364Z" fill="#252525"/>
<path d="M38.3444 57.364C36.9722 57.364 35.8166 58.5196 35.8166 59.8918C35.8166 61.264 36.9722 62.4196 38.3444 62.4196C39.7166 62.4196 40.8722 61.264 40.8722 59.8918C40.8722 58.5196 39.7166 57.364 38.3444 57.364ZM38.3444 57.364C36.9722 57.364 35.8166 58.5196 35.8166 59.8918C35.8166 61.264 36.9722 62.4196 38.3444 62.4196C39.7166 62.4196 40.8722 61.264 40.8722 59.8918C40.8722 58.5196 39.7166 57.364 38.3444 57.364ZM58.9278 55.9196L63.9833 73.2529L70.4833 72.5307L69.9778 70.5085C66.0055 72.7474 64.6333 70.2918 63.55 68.0529C62.5389 66.0307 59.8666 55.8474 59.0722 53.0307H58.35V49.0585C58.35 45.9529 56.5444 44.1474 53.4389 44.1474H30.5444C29.8944 40.1029 29.5333 36.203 29.2444 34.1807C28.5222 29.1252 28.5222 27.6807 27.8 26.2363C27.0777 24.7918 25.6333 24.7918 24.9111 24.7918C24.4777 24.7918 23.9722 24.864 23.5389 24.9363C22.1666 21.9029 20.2166 22.0474 18.9166 22.1196C18.7722 22.1196 18.5555 22.1196 18.4111 22.1196C18.1222 22.1196 17.8333 22.3363 17.8333 22.6974C17.8333 22.9863 18.05 23.2751 18.4111 23.2751C18.5555 23.2751 18.7722 23.2751 18.9889 23.2751C20.2889 23.2029 21.8055 23.1307 22.9611 26.5251C24.1166 29.9918 26.7166 44.0029 27.6555 49.1307C24.8389 51.8751 23.1055 55.7029 23.1055 59.964C23.1055 68.3418 29.8944 75.1307 38.2722 75.1307C46.65 75.1307 53.4389 68.3418 53.4389 59.964C53.4389 58.5918 53.2944 57.2918 52.9333 56.0641L57.1944 55.8474V67.114C55.1 67.1863 53.4389 68.9196 53.4389 71.0863C53.4389 73.2529 55.2444 75.0585 57.4111 75.0585C59.5777 75.0585 61.3833 73.2529 61.3833 71.0863C61.3833 69.2085 60.0833 67.6196 58.35 67.1863V55.9196H58.9278ZM34.3 45.3029C33.1444 45.5918 32.0611 46.0251 31.05 46.6029C30.9055 46.1696 30.8333 45.7363 30.7611 45.3029H34.3ZM38.3444 46.8918C42.3166 46.8918 45.8555 48.6974 48.3111 51.5141C47.5889 51.5863 46.7944 51.5863 46 51.5863C38.0555 51.5863 33.7222 51.5863 33 50.864C32.6389 50.5029 32.2055 49.7085 31.8444 48.6974C33.7222 47.5418 35.9611 46.8918 38.3444 46.8918ZM28.5222 51.3696C28.5222 51.4418 28.45 51.4418 28.3778 51.5141V51.3696C28.45 51.3696 28.45 51.3696 28.5222 51.3696ZM38.3444 72.8918C31.1944 72.8918 25.3444 67.0418 25.3444 59.8918C25.3444 56.714 26.5 53.8252 28.3778 51.5141L28.5944 57.364L50.7666 56.1363C51.1278 57.364 51.3444 58.5918 51.3444 59.8918C51.3444 67.0418 45.4944 72.8918 38.3444 72.8918ZM50.8389 51.2974C48.8166 48.4085 45.8555 46.2418 42.3889 45.3029H53.5111C55.2444 45.3029 57.2666 45.9529 57.2666 49.0585V49.7807C56.1833 50.214 54.0166 50.9363 50.8389 51.2974ZM60.0111 71.0863C60.0111 72.4585 58.8555 73.614 57.4833 73.614C56.1111 73.614 54.9555 72.4585 54.9555 71.0863C54.9555 69.714 56.1111 68.5585 57.4833 68.5585C58.8555 68.5585 60.0111 69.714 60.0111 71.0863ZM38.3444 57.364C36.9722 57.364 35.8166 58.5196 35.8166 59.8918C35.8166 61.264 36.9722 62.4196 38.3444 62.4196C39.7166 62.4196 40.8722 61.264 40.8722 59.8918C40.8722 58.5196 39.7166 57.364 38.3444 57.364Z" fill="#6F4C23"/>
</svg>
