<svg width="32" height="25" viewBox="0 0 32 25" fill="none" xmlns="http://www.w3.org/2000/svg">
<path d="M17.316 24.3119L31.7157 3.5091C31.8818 3.26902 31.9791 2.98808 31.997 2.69669C32.0149 2.4053 31.9527 2.11456 31.8173 1.85596C31.6818 1.59736 31.4782 1.38075 31.2285 1.22958C30.9788 1.07842 30.6925 0.998456 30.4006 0.998357L1.60104 0.998354C1.30901 0.99816 1.02249 1.07791 0.772542 1.22896C0.522594 1.38001 0.318748 1.59659 0.183095 1.85525C0.0474418 2.1139 -0.0148435 2.40475 0.00298923 2.69628C0.020822 2.98782 0.118093 3.26891 0.284259 3.50909L14.684 24.3119C14.8319 24.5238 15.0288 24.6969 15.2579 24.8164C15.487 24.9359 15.7416 24.9984 16 24.9984C16.2584 24.9984 16.513 24.9359 16.7421 24.8164C16.9712 24.6969 17.1681 24.5238 17.316 24.3119V24.3119Z" fill="#323232"/>
</svg>
