<svg width="22" height="24" viewBox="0 0 22 24" fill="none" xmlns="http://www.w3.org/2000/svg">
<path d="M21.3333 6.66667H17.5867C16.9853 5.62365 16.1557 4.73023 15.16 4.05333L17.3333 1.88L15.4533 0L12.56 2.89333C11.9467 2.74667 11.32 2.66667 10.6667 2.66667C10.0133 2.66667 9.38667 2.74667 8.78667 2.89333L5.88 0L4 1.88L6.16 4.05333C5.17333 4.73333 4.34667 5.62667 3.74667 6.66667H0V9.33333H2.78667C2.72 9.77333 2.66667 10.2133 2.66667 10.6667V12H0V14.6667H2.66667V16C2.66667 16.4533 2.72 16.8933 2.78667 17.3333H0V20H3.74667C5.13333 22.3867 7.70667 24 10.6667 24C13.6267 24 16.2 22.3867 17.5867 20H21.3333V17.3333H18.5467C18.6133 16.8933 18.6667 16.4533 18.6667 16V14.6667H21.3333V12H18.6667V10.6667C18.6667 10.2133 18.6133 9.77333 18.5467 9.33333H21.3333V6.66667ZM13.3333 17.3333H8V14.6667H13.3333V17.3333ZM13.3333 12H8V9.33333H13.3333V12Z" fill="#247249"/>
</svg>
