<svg width="92" height="92" viewBox="0 0 92 92" fill="none" xmlns="http://www.w3.org/2000/svg">
<path fill-rule="evenodd" clip-rule="evenodd" d="M91.1709 0.829113C92.2764 1.9346 92.2764 3.72694 91.1709 4.83243L4.83243 91.1709C3.72694 92.2764 1.9346 92.2764 0.829113 91.1709C-0.276371 90.0654 -0.276371 88.2731 0.829113 87.1676L87.1676 0.829113C88.2731 -0.276371 90.0654 -0.276371 91.1709 0.829113ZM15.0957 64.8951L19.8368 60.154H18.201C16.3928 56.3544 15.2584 52.1783 14.9513 47.7694H27.2863C27.3355 49.3162 27.4376 50.86 27.5925 52.3982L37.1752 42.8155H32.2451C32.3842 38.6414 32.9452 34.4921 33.9195 30.4309H47.0621V32.9287L54.5137 25.4771H52.0159V10.997C55.1127 11.9399 58.1878 14.6594 60.8069 19.1839L64.4154 15.5754C63.9046 14.7712 63.3592 13.989 62.7806 13.2312C63.7055 13.6147 64.6109 14.0369 65.4947 14.4961L69.1416 10.8491C63.2192 7.47874 56.4728 5.66169 49.539 5.66169C39.0283 5.66169 28.948 9.83707 21.5158 17.2693C14.0836 24.7015 9.90824 34.7817 9.90824 45.2925C9.90824 52.2262 11.7253 58.9726 15.0957 64.8951ZM27.2863 42.8155H14.9513C15.2515 38.5206 16.3538 34.3199 18.201 30.4309H28.8319C27.97 34.3048 27.4349 38.471 27.2863 42.8155ZM30.1695 25.4771H21.0792C24.8786 20.0258 30.1594 15.7763 36.2974 13.2312C35.1857 14.6875 34.1965 16.2335 33.3399 17.8531C32.0562 20.294 30.9951 22.8457 30.1695 25.4771ZM37.7142 20.1864C40.4487 15.0591 43.743 12.0076 47.0621 10.997V25.4771H35.3958C36.0794 23.5649 36.8572 21.7914 37.7142 20.1864ZM19.0869 84.9234H83.5077C85.0711 84.9234 86.3385 83.656 86.3385 82.0926V17.6718L80.677 23.3333V79.2618H24.7485L19.0869 84.9234ZM42.3043 61.706L45.5074 58.5029H68.7249V67.3097H42.3043V61.706ZM63.1211 40.8892L54.3142 49.6961H68.7249V40.8892H63.1211Z" fill="white"/>
</svg>
