<svg width="85" height="84" viewBox="0 0 85 84" fill="none" xmlns="http://www.w3.org/2000/svg">
<path fill-rule="evenodd" clip-rule="evenodd" d="M6.07143 78V6H78.9286V78H6.07143ZM0 3C0 1.34314 1.35914 0 3.03571 0H81.9643C83.6409 0 85 1.34315 85 3V81C85 82.6569 83.6409 84 81.9643 84H3.03571C1.35913 84 0 82.6569 0 81V3ZM66.1112 18.6668H37.7779V28.0001H66.1112V18.6668ZM66.1112 37.3335H37.7779V46.6668H66.1112V37.3335ZM66.1112 56.0001H37.7779V65.3335H66.1112V56.0001ZM28.3335 18.6668H18.889V28.0001H28.3335V18.6668ZM28.3335 37.3335H18.889V46.6668H28.3335V37.3335ZM28.3335 56.0001H18.889V65.3335H28.3335V56.0001Z" fill="white"/>
</svg>
