<svg width="85" height="84" viewBox="0 0 85 84" fill="none" xmlns="http://www.w3.org/2000/svg">
<path fill-rule="evenodd" clip-rule="evenodd" d="M5.40813 39.375H18.6362C18.7956 34.7708 19.3694 30.3555 20.2937 26.25H8.89313C6.91219 30.3715 5.73013 34.8233 5.40813 39.375V39.375ZM11.9797 21H21.7281C22.6135 18.2113 23.7515 15.5071 25.1281 12.9202C26.0467 11.2038 27.1075 9.56544 28.2997 8.022C21.7174 10.7193 16.0542 15.2228 11.9797 21V21ZM42.5 0C31.2283 0 20.4183 4.42499 12.448 12.3015C4.47767 20.178 0 30.8609 0 42C0 53.1391 4.47767 63.822 12.448 71.6985C20.4183 79.575 31.2283 84 42.5 84C53.7717 84 64.5817 79.575 72.552 71.6985C80.5223 63.822 85 53.1391 85 42C85 30.8609 80.5223 20.178 72.552 12.3015C64.5817 4.42499 53.7717 0 42.5 0V0ZM39.8438 5.65425C36.2844 6.72525 32.7516 9.95925 29.8191 15.393C28.9 17.094 28.0659 18.9735 27.3328 21H39.8438V5.65425ZM39.8438 26.25H25.7497C24.7048 30.554 24.1032 34.9514 23.9541 39.375H39.8438V26.25ZM45.1562 39.375V26.25H59.2503C60.2437 30.2662 60.8759 34.692 61.0459 39.375H45.1562ZM39.8438 44.625H23.9594C24.1068 49.0485 24.7066 53.4459 25.7497 57.75H39.8438V44.625ZM45.1562 57.75V44.625H61.0406C60.8934 49.0485 60.2936 53.4459 59.2503 57.75H45.1562ZM39.8438 63H27.3328C28.0659 65.0265 28.9 66.906 29.8191 68.607C32.7516 74.0407 36.2897 77.2695 39.8438 78.3458V63ZM28.2997 75.978C27.1074 74.4346 26.0466 72.7963 25.1281 71.0797C23.7515 68.4929 22.6136 65.7887 21.7281 63H11.9797C16.0542 68.7772 21.7174 73.2807 28.2997 75.978V75.978ZM8.89313 57.75H20.2937C19.333 53.4348 18.7782 49.0411 18.6362 44.625H5.40813C5.7375 49.2975 6.95406 53.7232 8.89313 57.75ZM56.7003 75.978C63.2826 73.2807 68.9458 68.7772 73.0203 63H63.2772C62.3897 65.7888 61.25 68.4929 59.8719 71.0797C58.9536 72.7964 57.8927 74.4347 56.7003 75.978V75.978ZM57.6672 63H45.1562V78.3458C48.7156 77.2748 52.2484 74.0407 55.1809 68.607C56.1469 66.8004 56.9779 64.9264 57.6672 63ZM64.7063 57.75H76.1069C78.0459 53.7232 79.2625 49.2975 79.5919 44.625H66.3637C66.2219 49.0411 65.667 53.4349 64.7063 57.75ZM66.3637 39.375H79.5919C79.2697 34.8233 78.0877 30.3716 76.1069 26.25H64.7063C65.6306 30.3555 66.2044 34.7708 66.3637 39.375ZM63.2719 21C62.3862 18.2114 61.2482 15.5072 59.8719 12.9202C58.9535 11.2037 57.8927 9.56533 56.7003 8.022C63.2826 10.7193 68.9458 15.2228 73.0203 21H63.2772H63.2719ZM57.6672 21H45.1562V5.65425C48.7156 6.72525 52.2484 9.95925 55.1809 15.393C56.1 17.094 56.9341 18.9735 57.6672 21Z" fill="white"/>
</svg>
