<svg width="391" height="318" viewBox="0 0 391 318" fill="none" xmlns="http://www.w3.org/2000/svg">
<path d="M17.2837 116.137V90.3998L26.0799 82.2318L46.913 116.137H66.9745L38.2711 71.1356L59.8758 51.255L49.9994 39.3883L17.2837 70.3651V7.33281L0 9.02805V116.137H17.2837Z" fill="white"/>
<path d="M165.886 38.926C174.013 38.926 179.98 41.3404 183.787 46.1693C187.696 50.9982 189.651 57.7792 189.651 66.5122V116.137H172.213V69.1322C172.213 63.995 171.39 60.1422 169.744 57.5737C168.2 54.9024 165.526 53.5667 161.719 53.5667C158.736 53.5667 155.598 54.44 152.306 56.1867C149.014 57.9333 145.464 60.2963 141.658 63.2759C141.761 63.995 141.812 65.0738 141.812 66.5122V116.137H124.374V69.1322C124.374 63.995 123.551 60.1422 121.905 57.5737C120.362 54.9024 117.687 53.5667 113.88 53.5667C108.428 53.5667 101.535 57.0086 93.2015 63.8923V116.137H75.9177V41.3918H87.4916L90.578 50.3304C94.899 46.8371 99.5285 44.0631 104.467 42.0082C109.405 39.9534 113.932 38.926 118.047 38.926C128.129 38.926 134.97 42.6761 138.571 50.1762C142.892 46.7858 147.47 44.0631 152.306 42.0082C157.244 39.9534 161.771 38.926 165.886 38.926Z" fill="white"/>
<path d="M331.332 228.607C339.459 228.607 345.426 231.022 349.233 235.851C353.142 240.68 355.097 247.461 355.097 256.194V305.818H337.659V258.814C337.659 253.677 336.836 249.824 335.19 247.255C333.646 244.584 330.972 243.248 327.165 243.248C324.181 243.248 321.044 244.122 317.752 245.868C314.459 247.615 310.91 249.978 307.104 252.957C307.206 253.677 307.258 254.755 307.258 256.194V305.818H289.82V258.814C289.82 253.677 288.997 249.824 287.351 247.255C285.807 244.584 283.133 243.248 279.326 243.248C273.873 243.248 266.981 246.69 258.647 253.574V305.818H241.364V231.073H252.938L256.024 240.012C260.345 236.519 264.974 233.745 269.913 231.69C274.851 229.635 279.378 228.607 283.493 228.607C293.575 228.607 300.416 232.358 304.017 239.858C308.338 236.467 312.916 233.745 317.752 231.69C322.69 229.635 327.216 228.607 331.332 228.607Z" fill="white"/>
<path d="M380.661 219.052C383.541 219.052 385.959 218.076 387.914 216.124C389.971 214.069 391 211.604 391 208.727C391 205.953 389.971 203.59 387.914 201.638C385.959 199.583 383.541 198.555 380.661 198.555C377.883 198.555 375.517 199.583 373.562 201.638C371.607 203.59 370.63 205.953 370.63 208.727C370.63 211.604 371.556 214.069 373.408 216.124C375.362 218.076 377.78 219.052 380.661 219.052ZM389.611 305.818V231.073H372.173V305.818H389.611Z" fill="white"/>
<path d="M349.606 0L373.787 26.7494L110.501 318L86.3199 291.251L349.606 0Z" fill="white"/>
</svg>
