<svg width="115" height="115" viewBox="0 0 115 115" fill="none" xmlns="http://www.w3.org/2000/svg">
<rect x="0.888879" y="0.722222" width="113.389" height="113.389" rx="6.5" fill="#FFFFFA" className='background' stroke="#252525" stroke-width="1.44444"/>
<path d="M0.166656 80.8889H115V107.611C115 111.6 111.766 114.833 107.778 114.833H7.38888C3.40016 114.833 0.166656 111.6 0.166656 107.611V80.8889Z" fill="#252525" className='bottom'/>
<path d="M19.997 103.889V88.9289H16.565V95.0669H10.999V88.7969L7.56701 88.9289V103.889H10.999V97.7949H16.565V103.889H19.997ZM30.0833 88.5989C28.6167 88.6136 27.3113 88.9582 26.1673 89.6329C25.0233 90.3076 24.1287 91.2389 23.4833 92.4269C22.8527 93.6149 22.5373 94.9642 22.5373 96.4749C22.5373 97.9122 22.838 99.2176 23.4393 100.391C24.0553 101.564 24.928 102.496 26.0573 103.185C27.2013 103.86 28.5433 104.197 30.0833 104.197C31.55 104.182 32.8553 103.845 33.9993 103.185C35.1433 102.51 36.0307 101.579 36.6613 100.391C37.3067 99.2029 37.6293 97.8462 37.6293 96.3209C37.6293 94.8836 37.3287 93.5782 36.7273 92.4049C36.126 91.2316 35.2533 90.3076 34.1093 89.6329C32.98 88.9436 31.638 88.5989 30.0833 88.5989ZM26.1013 96.4529C26.1013 95.4702 26.2847 94.6049 26.6513 93.8569C27.018 93.0942 27.502 92.5076 28.1033 92.0969C28.7193 91.6862 29.394 91.4809 30.1273 91.4809C30.9193 91.4809 31.6087 91.6936 32.1953 92.1189C32.7967 92.5296 33.2587 93.1016 33.5813 93.8349C33.904 94.5682 34.0653 95.3969 34.0653 96.3209C34.0653 97.4062 33.8893 98.3229 33.5373 99.0709C33.1853 99.8189 32.7013 100.384 32.0853 100.765C31.484 101.132 30.8093 101.315 30.0613 101.315C28.844 101.315 27.876 100.868 27.1573 99.9729C26.4533 99.0636 26.1013 97.8902 26.1013 96.4529ZM50.0593 101.205H43.5693V88.9289H40.1373V103.889H50.4553L50.0593 101.205ZM58.6734 103.889C60.096 103.889 61.3354 103.581 62.3914 102.965C63.4474 102.349 64.2614 101.476 64.8334 100.347C65.4054 99.2029 65.6914 97.8609 65.6914 96.3209C65.6914 94.8689 65.4274 93.5929 64.8994 92.4929C64.3714 91.3782 63.5794 90.5056 62.5234 89.8749C61.482 89.2442 60.2134 88.9289 58.7174 88.9289H52.4694V103.889H58.6734ZM58.6734 91.7229C59.8027 91.7229 60.6607 92.1336 61.2474 92.9549C61.834 93.7762 62.1274 94.8982 62.1274 96.3209C62.1274 97.9342 61.8047 99.1369 61.1594 99.9289C60.514 100.721 59.634 101.117 58.5194 101.117H55.9014V91.7229H58.6734ZM79.5189 88.5989C78.0522 88.6136 76.7469 88.9582 75.6029 89.6329C74.4589 90.3076 73.5642 91.2389 72.9189 92.4269C72.2882 93.6149 71.9729 94.9642 71.9729 96.4749C71.9729 97.9122 72.2735 99.2176 72.8749 100.391C73.4909 101.564 74.3635 102.496 75.4929 103.185C76.6369 103.86 77.9789 104.197 79.5189 104.197C80.9855 104.182 82.2909 103.845 83.4349 103.185C84.5789 102.51 85.4662 101.579 86.0969 100.391C86.7422 99.2029 87.0649 97.8462 87.0649 96.3209C87.0649 94.8836 86.7642 93.5782 86.1629 92.4049C85.5615 91.2316 84.6889 90.3076 83.5449 89.6329C82.4155 88.9436 81.0735 88.5989 79.5189 88.5989ZM75.5369 96.4529C75.5369 95.4702 75.7202 94.6049 76.0869 93.8569C76.4535 93.0942 76.9375 92.5076 77.5389 92.0969C78.1549 91.6862 78.8295 91.4809 79.5629 91.4809C80.3549 91.4809 81.0442 91.6936 81.6309 92.1189C82.2322 92.5296 82.6942 93.1016 83.0169 93.8349C83.3395 94.5682 83.5009 95.3969 83.5009 96.3209C83.5009 97.4062 83.3249 98.3229 82.9729 99.0709C82.6209 99.8189 82.1369 100.384 81.5209 100.765C80.9195 101.132 80.2449 101.315 79.4969 101.315C78.2795 101.315 77.3115 100.868 76.5929 99.9729C75.8889 99.0636 75.5369 97.8902 75.5369 96.4529ZM93.0049 103.889V94.9569L99.3409 103.889H102.641V88.9289H99.2089V97.9709L92.8729 88.9289H89.5729V103.889H93.0049ZM105.584 98.4769L108.312 99.4449L108.686 88.3129H105.188L105.584 98.4769ZM106.948 100.259C106.435 100.259 106.002 100.435 105.65 100.787C105.298 101.139 105.122 101.572 105.122 102.085C105.122 102.584 105.298 103.009 105.65 103.361C106.002 103.713 106.435 103.889 106.948 103.889C107.462 103.889 107.887 103.713 108.224 103.361C108.576 103.009 108.752 102.584 108.752 102.085C108.752 101.572 108.576 101.139 108.224 100.787C107.887 100.435 107.462 100.259 106.948 100.259Z" fill="#FFFFFA" className='text'/>
<path d="M86.6166 47.8111C86.7611 47.5944 86.8333 47.3778 86.9777 47.0889C86.8333 47.3055 86.6889 47.5944 86.6166 47.8111Z" fill="#FF0000"/>
<path d="M54.8388 35.0278C53.8277 35.0278 52.4555 35.1 50.5055 35.1C52.0944 35.1 53.5388 35.1 54.8388 35.0278Z" fill="#FF00FF"/>
<path d="M21.8333 24.5555H14.6111V72.9444H21.8333V24.5555Z" fill="#6F4C23" className='table'/>
<path d="M100.556 24.5555H93.3334V72.9444H100.556V24.5555Z" fill="#6F4C23" className='table'/>
<path d="M100.556 12.2778H14.6111V23.1111H100.556V12.2778Z" fill="#6F4C23" className='table'/>
<path d="M86.6889 55.6111C84.9556 56.9833 82.7889 57.7778 80.3333 57.7778C79.9722 57.7778 79.6833 57.7778 79.3222 57.7056L71.5222 51.5667L86.6889 55.6111ZM80.4056 38.2778L90.1556 45.7167C89.0722 41.4556 85.1 38.2778 80.4056 38.2778ZM93.2611 50.1222C93.2611 49.9778 93.1889 49.9056 93.1889 49.7611C93.0444 49.2556 92.8278 48.8222 92.6111 48.3889C92.5389 48.2444 92.4667 48.1722 92.3945 48.1C92.3222 48.0278 92.25 47.9556 92.1778 47.8833C91.9611 47.6667 91.7444 47.45 91.4556 47.2333L76.2889 35.6778C74.1944 34.0889 71.3056 34.5222 69.7167 36.5444C68.7778 37.7722 68.5611 39.3611 68.9944 40.7333C73.7611 42.25 78.2389 44.85 79.6111 46.2222C81.0556 47.6667 78.8889 46.2222 76.7222 44.7778C74.6278 43.4056 67.7667 40.5889 65.3833 40.4444C65.3111 40.4444 65.2389 40.4444 65.1667 40.4444C63.7945 40.4444 63 40.4444 60.9778 40.4444C59.6778 40.4444 58.2333 40.5167 56.6445 40.5167C56.5722 40.5167 56.5 40.5167 56.4278 40.5167C51.0111 40.6611 44.5833 41.0222 41.3333 41.8167C37.0722 42.9 33.3889 45.4278 32.6667 49.7611C32.1611 52.9389 33.1722 54.8889 34.0389 56.0444C34.2556 56.4056 34.4722 56.6944 34.7611 57.0556L42.6333 64.9278H29.4167C26.8167 64.9278 24.7222 67.0222 24.7222 69.6222C24.7222 72.2222 26.8167 74.3167 29.4167 74.3167H53.9722C55.85 74.3167 57.5833 73.1611 58.3056 71.4278C59.0278 69.6944 58.6667 67.6722 57.2945 66.3L48.7 57.7056C49.8556 57.7056 50.7945 57.7056 51.4445 57.7056C53.4667 57.7056 55.9945 57.7056 58.6667 57.2C60.7611 56.7667 63 56.1167 65.1667 54.8167C67.1889 53.6611 68.5611 52.1444 69.3556 50.5556L87.4111 55.3944C87.4833 55.3944 87.5556 55.4667 87.6278 55.4667C87.7 55.4667 87.7722 55.4667 87.9167 55.5389C87.9889 55.5389 88.1333 55.5389 88.2056 55.5389C88.35 55.5389 88.4222 55.5389 88.5667 55.5389C88.8556 55.5389 89.0722 55.5389 89.3611 55.4667C89.5056 55.4667 89.5778 55.3944 89.7222 55.3944C89.7945 55.3944 89.8667 55.3944 89.9389 55.3222C90.0111 55.3222 90.0833 55.25 90.1556 55.25C90.6611 55.1056 91.0944 54.8167 91.4556 54.5278C91.5278 54.4556 91.6 54.3833 91.6722 54.3833C91.7445 54.3111 91.8889 54.1667 91.9611 54.0944C92.1056 53.95 92.1778 53.8778 92.25 53.7333C92.3222 53.6611 92.3944 53.5889 92.4667 53.4444C92.5389 53.3 92.6111 53.2278 92.6833 53.1556C92.8278 52.9389 92.9 52.7222 93.0445 52.4333C93.1167 52.2889 93.1167 52.1444 93.1889 52.0722C93.1889 52 93.2611 51.9278 93.2611 51.7833C93.2611 51.7111 93.2611 51.6389 93.3333 51.4944C93.3333 51.4222 93.3333 51.2778 93.4056 51.2056C93.4056 51.0611 93.4056 50.9889 93.4056 50.8444C93.3333 50.7 93.3333 50.4111 93.2611 50.1222ZM100.483 59.3667C99.9778 56.8389 97.45 55.1778 94.9222 55.7556L79.6833 58.9333L70.15 51.7833C68.6333 53.6611 65.9611 56.1889 61.9167 57.3444L75.7833 67.7444C76.5778 68.3222 77.5889 68.6833 78.6 68.6833C78.8889 68.6833 79.25 68.6833 79.5389 68.6111L96.8722 65C99.3278 64.35 100.989 61.8945 100.483 59.3667ZM36.7111 79.0833L51.8778 76.9167C53.0333 76.7722 54.3333 76.5556 55.7778 76.3389C61.6278 75.4722 69.7167 74.3167 76.5778 73.5944C87.8444 72.4389 89.2167 73.45 89.3611 73.5944C89.5056 73.8833 89.5056 74.1722 89.2889 74.4611C88.2056 76.1944 83.0056 77.6389 81.3444 77.6389C80.9111 77.6389 80.6222 77.9278 80.6222 78.3611C80.6222 78.7944 80.9111 79.0833 81.3444 79.0833C83.0778 79.0833 89 77.7111 90.5167 75.2556C90.95 74.5333 91.0222 73.7389 90.6611 73.0167C89.3611 70.4889 77.3722 71.7167 55.5611 74.9667C54.1167 75.1833 52.7444 75.4 51.6611 75.5444L36.4944 77.7111C36.1333 77.7833 35.8445 78.1445 35.9167 78.5056C35.9889 78.8667 36.2778 79.1556 36.6389 79.1556C36.6389 79.0833 36.7111 79.0833 36.7111 79.0833Z" fill="#252525" className='person'/>
</svg>
