<svg viewBox="0 0 115 115" fill="none" xmlns="http://www.w3.org/2000/svg">
<rect x="0.722222" y="0.722222" width="113.389" height="113.389" rx="6.5" fill="#FFFFFA" className='background' stroke="#252525" stroke-width="1.44444"/>
<path d="M0 80.8889H114.833V107.611C114.833 111.6 111.6 114.833 107.611 114.833H7.22222C3.2335 114.833 0 111.6 0 107.611V80.8889Z" fill="#252525" className='bottom'/>
<path d="M32.5213 103.889C33.944 103.889 35.1833 103.581 36.2393 102.965C37.2953 102.349 38.1093 101.476 38.6813 100.347C39.2533 99.2029 39.5393 97.8609 39.5393 96.3209C39.5393 94.8689 39.2753 93.5929 38.7473 92.4929C38.2193 91.3782 37.4273 90.5056 36.3713 89.8749C35.33 89.2442 34.0613 88.9289 32.5653 88.9289H26.3173V103.889H32.5213ZM32.5213 91.7229C33.6507 91.7229 34.5087 92.1336 35.0953 92.9549C35.682 93.7762 35.9753 94.8982 35.9753 96.3209C35.9753 97.9342 35.6527 99.1369 35.0073 99.9289C34.362 100.721 33.482 101.117 32.3673 101.117H29.7493V91.7229H32.5213ZM42.0439 103.889H45.4759V98.6969H48.1599L50.9539 103.889H54.8039L51.3059 97.7289C52.0099 97.3329 52.5672 96.7976 52.9779 96.1229C53.3886 95.4482 53.5939 94.6709 53.5939 93.7909C53.5939 92.1776 53.0292 90.9676 51.8999 90.1609C50.7706 89.3396 49.3259 88.9289 47.5659 88.9289H42.0439V103.889ZM47.4559 91.7009C48.2772 91.7009 48.9079 91.8769 49.3479 92.2289C49.7879 92.5809 50.0079 93.1236 50.0079 93.8569C50.0079 94.5169 49.7732 95.0376 49.3039 95.4189C48.8492 95.7856 48.2479 95.9689 47.4999 95.9689H45.4759V91.7009H47.4559ZM63.2712 88.5989C61.8045 88.6136 60.4992 88.9582 59.3552 89.6329C58.2112 90.3076 57.3165 91.2389 56.6712 92.4269C56.0405 93.6149 55.7252 94.9642 55.7252 96.4749C55.7252 97.9122 56.0258 99.2176 56.6272 100.391C57.2432 101.564 58.1158 102.496 59.2452 103.185C60.3892 103.86 61.7312 104.197 63.2712 104.197C64.7378 104.182 66.0432 103.845 67.1872 103.185C68.3312 102.51 69.2185 101.579 69.8492 100.391C70.4945 99.2029 70.8172 97.8462 70.8172 96.3209C70.8172 94.8836 70.5165 93.5782 69.9152 92.4049C69.3138 91.2316 68.4412 90.3076 67.2972 89.6329C66.1678 88.9436 64.8258 88.5989 63.2712 88.5989ZM59.2892 96.4529C59.2892 95.4702 59.4725 94.6049 59.8392 93.8569C60.2058 93.0942 60.6898 92.5076 61.2912 92.0969C61.9072 91.6862 62.5818 91.4809 63.3152 91.4809C64.1072 91.4809 64.7965 91.6936 65.3832 92.1189C65.9845 92.5296 66.4465 93.1016 66.7692 93.8349C67.0918 94.5682 67.2532 95.3969 67.2532 96.3209C67.2532 97.4062 67.0772 98.3229 66.7252 99.0709C66.3732 99.8189 65.8892 100.384 65.2732 100.765C64.6718 101.132 63.9972 101.315 63.2492 101.315C62.0318 101.315 61.0638 100.868 60.3452 99.9729C59.6412 99.0636 59.2892 97.8902 59.2892 96.4529ZM76.7572 99.1149H78.6492C79.7638 99.1149 80.7905 98.9316 81.7292 98.5649C82.6825 98.1836 83.4452 97.6116 84.0172 96.8489C84.5892 96.0862 84.8752 95.1476 84.8752 94.0329C84.8752 92.9036 84.6038 91.9576 84.0612 91.1949C83.5332 90.4322 82.8145 89.8676 81.9052 89.5009C80.9958 89.1196 79.9765 88.9289 78.8472 88.9289H73.3252V103.889H76.7572V99.1149ZM78.7372 91.7009C79.5438 91.7009 80.1672 91.9062 80.6072 92.3169C81.0618 92.7276 81.2892 93.3289 81.2892 94.1209C81.2745 94.8102 81.0325 95.3602 80.5632 95.7709C80.1085 96.1669 79.5145 96.3649 78.7812 96.3649H76.7572V91.7009H78.7372ZM86.5006 98.4769L89.2286 99.4449L89.6026 88.3129H86.1046L86.5006 98.4769ZM87.8646 100.259C87.3513 100.259 86.9186 100.435 86.5666 100.787C86.2146 101.139 86.0386 101.572 86.0386 102.085C86.0386 102.584 86.2146 103.009 86.5666 103.361C86.9186 103.713 87.3513 103.889 87.8646 103.889C88.3779 103.889 88.8033 103.713 89.1406 103.361C89.4926 103.009 89.6686 102.584 89.6686 102.085C89.6686 101.572 89.4926 101.139 89.1406 100.787C88.8033 100.435 88.3779 100.259 87.8646 100.259Z" fill="#FFFFFA" className='text'/>
<path d="M50.5555 43.4777C50.4833 43.4777 50.4833 43.4777 50.5555 43.4777C49.4722 40.7333 48.9666 39.1444 48.8222 38.1333C48.8222 38.2055 48.8222 38.2777 48.8944 38.35C48.8944 38.4944 48.9666 38.6389 48.9666 38.7111C49.0389 38.8555 49.0389 39 49.1111 39.0722L50.5555 43.4777Z" fill="#FF0000"/>
<path d="M35.3938 54.6006L35.321 54.5278L35.3938 54.6006Z" fill="black"/>
<path d="M42.3988 44.6333C41.8932 44.0555 41.5321 43.3333 41.3877 42.5389L40.2321 37.2667C38.6432 38.5667 36.9821 39.9389 35.6821 40.95C35.8988 41.6722 36.2599 42.3222 36.7655 42.8278C47.4543 53.5167 48.0321 53.5167 49.9099 53.5167C49.9821 53.5167 49.9821 53.5167 50.0543 53.5167L42.3988 44.6333ZM70.7099 39.1444C70.421 39.65 69.771 39.8666 69.2655 39.65C68.7599 39.4333 68.5432 38.7111 68.7599 38.2055C68.9766 37.7 69.3377 36.4722 69.2655 35.1722C69.1932 33.8 68.6877 32.9333 67.821 32.4278C66.8099 31.9222 65.871 31.85 65.0766 32.2111C63.8488 32.7167 62.8377 34.0889 62.1155 36.1111C61.6099 37.5555 60.021 42.7555 58.071 48.9667L58.5766 49.5444C60.1655 51.35 59.9488 54.0944 58.1432 55.6833C57.421 56.3333 56.5543 56.6222 55.6877 56.7667C52.4377 67.3111 49.1877 77.8555 49.1155 78.0722C48.971 78.5055 48.5377 78.8667 48.1043 78.8667C47.9599 78.8667 47.8877 78.8667 47.8155 78.7944C47.2377 78.65 46.9488 78 47.0932 77.4222C47.1655 77.2055 50.3432 66.8055 53.5932 56.4055C53.0155 56.1889 52.5099 55.7555 52.0766 55.3222L42.6877 44.4889C42.1821 43.9111 41.8932 43.2611 41.7488 42.5389L40.2321 35.6055C38.3543 37.3389 36.621 38.9278 35.4655 39.7944C34.671 40.4444 33.7321 41.0944 32.721 41.7444L44.5655 50.7722C46.0821 51.9278 46.6599 54.0222 45.9377 55.8278L37.9932 76.05C37.3432 77.7833 35.6821 78.7944 33.9488 78.7944C33.4432 78.7944 32.8655 78.7222 32.3599 78.5055C30.121 77.6389 29.0377 75.1111 29.9043 72.8722L36.621 55.6833L35.2488 54.6L35.1766 54.5278C34.3099 53.8055 27.0877 48.0278 25.4988 47.1611C23.9099 46.2944 31.3488 53.0833 33.5155 55.25C34.1655 56.6222 34.021 58.2833 33.1543 59.5833L20.8766 76.9167C20.0099 78.1444 18.7099 78.7222 17.3377 78.7222C16.471 78.7222 15.6043 78.4333 14.8099 77.9278C12.8599 76.5555 12.4266 73.8111 13.7988 71.8611L24.4877 56.7667L17.771 45.4278C16.7599 44.3444 15.9655 42.4667 15.9655 39.7222C15.9655 32.5 26.7988 25.2778 30.4099 22.3889C34.021 19.5 39.7988 14.4444 44.8543 17.3333C44.8543 17.3333 44.9266 17.3333 44.9266 17.4055C44.421 16.3222 44.1321 15.0222 44.1321 13.7222C44.1321 8.95554 48.0321 5.05554 52.7988 5.05554C57.5655 5.05554 61.4655 8.95554 61.4655 13.7222C61.4655 18.4889 57.5655 22.3889 52.7988 22.3889C50.921 22.3889 49.2599 21.8111 47.8155 20.8C48.8266 23.5444 48.321 26.65 47.4543 28.1667L49.9099 39.5055L56.4099 47.0167C58.1432 41.3111 59.5877 36.7611 60.0932 35.3889C60.9599 32.7167 62.4043 30.9111 64.2821 30.1889C65.7266 29.6111 67.3155 29.6833 68.8321 30.4778C70.421 31.2722 71.3599 32.8611 71.5043 34.9555C71.5766 36.6166 71.2155 38.2055 70.7099 39.1444Z" fill="#252525" className='person'/>
<path d="M97.7932 55.6111L88.4043 66.4444L79.7377 55.6111H85.1543V52.7222H92.3766V55.6111H97.7932ZM92.521 41.1666H85.2988V48.3889H92.521V41.1666ZM92.521 30.3333H85.2988V37.5555H92.521V30.3333Z" fill="#247249" className='arrow'/>
</svg>
