<svg width="302" height="220" viewBox="0 0 302 220" fill="none" xmlns="http://www.w3.org/2000/svg">
<g clip-path="url(#clip0)">
<path d="M189.684 77.8457L189.596 78.3257L188.2 100.536L183.4 101.583L182.527 101.758L184.796 70.2095C184.796 70.1658 184.796 70.1658 184.796 70.1222C184.796 70.0785 184.796 70.0349 184.796 70.0349L185.713 71.0385L189.684 77.8457Z" fill="#42210B"/>
<path d="M122.529 82.602V82.6456L122.398 83.1256V86.9219L121.307 87.271L120.085 84.1292L120.26 80.7693L120.521 76.6239L120.652 77.0603L122.529 82.602Z" fill="#42210B"/>
<path d="M68.2897 169.96L65.2352 173.451V183.793L56.7263 183.313H56.6826V167.648L56.8135 167.56L66.9806 160.797L67.0679 160.579L68.2897 169.96Z" fill="url(#paint0_linear)"/>
<path d="M173.887 84.871L176.069 76.1439L179.996 78.762L173.887 84.871Z" fill="url(#paint1_linear)"/>
<path d="M227.079 114.849L227.384 114.892L226.948 125.016L226.119 125.059L223.414 125.234V122.441L220.795 121.743L219.705 122.092V116.55L229.915 105.205L230.395 109.176L226.817 114.805L227.079 114.849Z" fill="url(#paint2_linear)"/>
<path d="M171.531 115.11L171.269 115.416L173.888 156.739L173.189 157.35L171.269 159.051L170.44 169.567L160.142 169.306L159.706 169.567L157.742 145.088L162.106 131.561L163.415 109.743L168.651 98.8344L168.215 76.5803C168.215 75.9694 166.6 72.6094 165.597 70.4713V70.4277L165.553 70.384L164.375 51.7953L165.03 51.0535L164.942 50.7481L164.55 49.2645L164.462 48.959L165.946 37.0465L165.99 36.6102L166.251 36.6538L168.564 43.33L168.608 43.5046H168.651V53.8898L170.833 60.8715L172.36 92.5072L174.149 110.572L174.106 110.616L171.531 115.11Z" fill="url(#paint3_linear)"/>
<path d="M171.531 115.11L171.269 115.416L173.887 156.739L173.189 157.35L171.269 159.051L170.44 169.567L160.142 169.306L154.688 169.524L159.706 169.567L157.742 145.088L162.106 131.561L163.415 109.743L168.651 98.8344L168.215 76.5803C168.215 75.9694 166.6 72.6094 165.597 70.4713V70.4277L165.553 70.384L164.375 51.7953L165.029 51.0535L164.942 50.7481L164.549 49.2645L164.462 48.959L165.946 37.0465L165.989 36.6102L166.251 36.6538L168.564 43.33L168.607 43.5046H168.651V53.8898L170.833 60.8715L172.36 92.5072L174.149 110.572L174.106 110.616L171.531 115.11Z" fill="url(#paint4_linear)"/>
<path d="M35.1264 192.214C35.1264 192.214 35.1264 197.451 35.1264 199.196C35.1264 199.283 35.1264 199.414 35.1264 199.501C35.0828 200.549 34.69 201.771 34.2973 202.774L34.0355 201.552L33.861 201.683L32.901 202.381L32.8137 202.469C33.0319 201.291 33.2501 199.763 33.4246 197.887L35.1264 192.214Z" fill="url(#paint5_linear)"/>
<path d="M121.525 156.433L116.288 162.542L116.812 180.302L113.714 176.156L108.652 176.2H108.609L108.87 159.051L112.012 146.833L112.143 146.79L121.961 145.088L122.179 144.826L121.525 156.433Z" fill="url(#paint6_linear)"/>
<path d="M112.143 146.79C111.227 150.935 109.612 157.873 109.307 158.179C109.045 158.44 108.827 167.866 108.653 176.2H108.609L97.3073 176.287L90.1511 179.691H90.1074V166.906L90.1947 166.164L92.8128 142.601L111.925 146.833H112.012L112.143 146.79Z" fill="url(#paint7_linear)"/>
<path d="M48.5661 142.993C48.5225 144.564 48.4352 146.441 48.3916 148.273H48.3479L45.3807 148.797L40.4499 144.913L40.1008 138.761H40.1445L47.9989 143.124L48.5661 142.993Z" fill="url(#paint8_linear)"/>
<path d="M133.743 132.434V168.346L126.586 173.058L122.397 159.924L127.197 153.379L128.943 137.234L121.219 134.004L121.35 130.906L127.154 132.695L133.743 132.434Z" fill="url(#paint9_linear)"/>
<path d="M148.535 172.535L143.692 170.877L142.906 146.833L144.652 142.034L143.779 111.925L139.852 107.125L139.415 91.8527L138.979 90.98L139.634 85.1765L140.157 85.482L146.833 86.1801H146.877L148.535 172.535Z" fill="url(#paint10_linear)"/>
<path d="M177.902 104.289L174.193 110.572L174.149 110.616L172.142 94.4708C172.142 94.4708 170.833 70.4713 170.396 63.926C169.96 57.3806 167.778 53.8898 167.778 53.8898L168.564 43.33L168.607 43.5046H168.651L176.854 45.5554L176.069 76.1003C176.025 76.4493 175.196 80.5511 174.76 83.0819C174.716 83.3001 174.716 83.5619 174.716 83.9547V83.9983C174.847 87.7946 176.985 99.5762 177.902 104.289Z" fill="url(#paint11_linear)"/>
<path d="M176.811 154.164L173.887 156.739L173.189 157.35C172.884 154.601 172.273 149.277 171.706 142.034C170.833 131.125 171.269 115.416 171.269 115.416L171.531 115.241L175.415 120.87L175.72 120.958L175.807 121.001C175.938 123.096 176.069 126.15 176.069 129.423C176.069 130.252 176.069 131.343 176.113 132.652C176.244 138.63 176.593 148.797 176.811 154.164Z" fill="url(#paint12_linear)"/>
<path d="M173.713 162.717C173.495 164.2 173.059 166.993 172.622 169.611L170.44 169.567L171.27 159.051L173.713 162.717Z" fill="url(#paint13_linear)"/>
<path d="M204.258 162.368L198.323 161.233L197.014 162.106V155.124L203.996 155.997L204.039 155.953L204.258 162.368Z" fill="url(#paint14_linear)"/>
<path d="M218.483 147.968L210.977 147.706L213.159 152.07L210.759 154.906L210.105 152.07L208.49 145.961H218.701L218.483 147.968Z" fill="url(#paint15_linear)"/>
<path d="M239.908 163.371L239.341 166.251L230.614 161.888V157.742L239.777 163.415L239.908 163.371Z" fill="url(#paint16_linear)"/>
<path d="M254.395 166.557L253.915 172.011L252.868 167.778L247.195 162.106L246.846 162.368L247.064 159.968L247.195 159.924L254.177 166.469L254.395 166.557Z" fill="url(#paint17_linear)"/>
<path d="M56.7261 183.313H56.6824L51.708 183.051L44.7263 187.851L41.2355 192.694L41.1482 192.825C41.3664 189.858 41.6718 186.149 42.1518 183.051C42.2391 182.527 42.2827 181.96 42.3264 181.349C42.3264 181.131 42.3263 180.869 42.37 180.651C42.37 180.52 42.37 180.389 42.37 180.258C42.37 179.996 42.37 179.691 42.37 179.429C42.37 179.298 42.37 179.211 42.37 179.08C42.37 178.906 42.37 178.731 42.37 178.556C42.37 178.207 42.3264 177.815 42.3264 177.466C42.1518 174.629 41.7155 171.793 41.3664 169.96L56.6388 167.778L56.8133 167.648L56.9442 167.56C56.9879 171.793 56.857 178.251 56.7261 183.313Z" fill="url(#paint18_linear)"/>
<path d="M79.8529 117.379L79.8093 119.125L72.1731 117.423L71.9985 117.379C72.0858 116.725 72.2167 116.158 72.304 115.678L72.4349 115.634H72.4785L79.8529 117.379Z" fill="url(#paint19_linear)"/>
<path d="M94.6016 113.889L94.1652 115.852L87.7072 114.325L87.489 114.456V112.71L87.7072 112.58L94.6016 113.889Z" fill="url(#paint20_linear)"/>
<path d="M111.052 87.751V89.5837L103.852 90.3255L103.154 92.6381L101.932 88.9728L111.052 87.751Z" fill="#C69C6D"/>
<path d="M100.798 106.907L106.034 99.0525L102.544 96.8271L102.718 94.8199L107.78 98.6162L100.798 106.907Z" fill="#C69C6D"/>
<path d="M99.8818 67.635L99.5327 73.3513L98.18 70.2531L89.8892 67.1986L88.7983 67.3296V64.2314L89.0165 64.1442L99.8818 67.635Z" fill="url(#paint21_linear)"/>
<path d="M21.4687 194.527H21.4251L18.9815 195.4V189.596L18.1524 189.422L14.6179 188.113V184.273L14.6616 184.404L19.8105 186.804L20.5523 186.847H20.7269V186.978L21.4687 194.527Z" fill="url(#paint22_linear)"/>
<path d="M75.795 186.149L74.4423 187.24L73.6569 189.247L73.0896 184.36H73.046L73.1769 184.229L65.2352 183.793V173.451L67.5915 170.44L70.0351 167.342L69.5988 154.251L62.6171 147.706L61.5698 139.634L73.0896 146.004V145.961L73.2641 145.917L75.795 186.149Z" fill="url(#paint23_linear)"/>
<path d="M104.07 119.168L104.943 116.725L103.198 114.979L103.46 112.623H103.503L103.852 112.58L108.216 117.379L104.07 119.168Z" fill="#C69C6D"/>
<path d="M193.96 118.252V124.361L190.12 126.848C190.076 125.757 190.076 124.623 190.12 123.532C190.12 123.401 190.12 123.27 190.12 123.139C190.12 122.965 190.12 122.834 190.12 122.703C190.164 121.132 190.251 119.649 190.294 118.558C190.294 118.47 190.294 118.339 190.294 118.252C190.294 118.034 190.338 117.859 190.338 117.729C190.338 117.685 190.338 117.641 190.338 117.598C190.338 117.554 190.338 117.51 190.338 117.467V117.423L193.96 118.252Z" fill="url(#paint24_linear)"/>
<path d="M209.45 120.827C209.276 122.616 209.058 124.623 208.839 126.368L197.014 124.317V118.907L201.596 119.998L209.45 120.827Z" fill="url(#paint25_linear)"/>
<path d="M243.05 121.35L242.701 123.968L226.948 124.972L226.075 125.016C226.25 122.703 226.468 120.128 226.643 118.863C227.079 116.245 226.643 114.936 226.643 114.936L227.035 114.805L227.341 114.849L227.603 114.892L229.043 115.11L236.897 116.419H236.941L236.81 118.121L228.606 116.987L227.646 121.612L228.126 123.401L243.05 121.35Z" fill="url(#paint26_linear)"/>
<path d="M238.73 107.3L238.599 109.307L231.268 107.78L230.396 109.176L229.916 105.205L229.959 105.161L238.686 107.343L238.73 107.3Z" fill="url(#paint27_linear)"/>
<path d="M282.234 117.336L281.842 120.696L275.558 118.601V115.285L282.234 117.336Z" fill="url(#paint28_linear)"/>
<path d="M198.76 106.209V108.172L196.796 109.089L196.142 107.867V101.496L196.36 101.671L198.105 106.471L198.76 106.209Z" fill="url(#paint29_linear)"/>
<path d="M194.614 89.8891H194.832V93.4236L192.214 96.5217V93.1618L193.087 89.671L192.258 82.7766L195.487 86.3983L194.614 89.8891Z" fill="url(#paint30_linear)"/>
<path d="M209.363 96.7399C209.188 97.6126 209.057 98.5289 209.014 99.358L208.141 99.4889L204.432 94.9072V90.98L204.868 90.8927L204.65 91.1981L209.363 96.7399Z" fill="url(#paint31_linear)"/>
<path d="M223.588 99.4889L223.239 101.191L222.977 101.234L219.486 99.0089L219.268 95.6053L219.486 95.5617L223.414 99.4889H223.588Z" fill="url(#paint32_linear)"/>
<path d="M211.894 80.2456C211.807 80.7693 211.763 81.3365 211.676 81.8602L208.578 81.162L207.749 81.2493L207.574 79.4166H207.705L211.894 80.2456Z" fill="#C69C6D"/>
<path d="M208.359 66.5442L207.967 68.7259L206.832 68.9441L202.25 65.5842V58.908H202.469L207.705 63.2715L207.923 63.1842L207.487 65.2351L208.359 66.5442Z" fill="url(#paint33_linear)"/>
<path d="M223.806 68.5513L223.501 71.3003L221.668 71.1258L218.832 68.9877V64.3623L223.414 68.5077L223.806 68.5513Z" fill="url(#paint34_linear)"/>
<path d="M240.344 66.7623L240.17 68.4204L236.504 68.0713L235.457 68.8132L235.152 66.3696L240.344 66.7623Z" fill="url(#paint35_linear)"/>
<path d="M216.65 50.3553V53.1044L214.032 50.7917V47.3881L216.65 50.3553Z" fill="url(#paint36_linear)"/>
<path d="M197.887 30.3267V53.6717L195.487 54.5444L193.611 57.0753C193.611 57.0316 193.611 56.9443 193.611 56.9007L193.654 56.3335L193.698 55.6789C193.698 55.5916 193.698 55.5044 193.698 55.4171C193.698 55.1553 193.741 54.8935 193.741 54.588C193.741 54.1953 193.785 53.8026 193.829 53.4099C193.829 53.0608 193.872 52.6681 193.916 52.2754C193.916 52.2317 193.916 52.2317 193.916 52.1881C193.96 51.3154 194.047 50.399 194.091 49.439L194.178 48.2609L194.92 36.3048L195.007 34.603L195.051 34.1666C195.051 34.0357 195.051 33.9048 195.094 33.7739V33.4248C195.094 33.3376 195.094 33.2939 195.094 33.2066C195.094 33.1194 195.094 33.0321 195.094 32.9885C195.094 32.8576 195.094 32.7703 195.094 32.6394L195.138 31.723C195.138 31.5921 195.138 31.4612 195.181 31.3303C195.181 31.243 195.181 31.1121 195.181 31.0249L195.225 30.414L195.269 30.1522L195.749 30.8503L197.887 30.3267Z" fill="url(#paint37_linear)"/>
<path d="M183.487 25.134V27.2285L183.269 27.4903L181.742 26.1376L179.778 24.4358L172.797 24.8722L169.306 22.6904L173.233 23.9995L181.524 23.1268L181.742 23.3886L183.269 25.3086L183.487 25.134Z" fill="#C69C6D"/>
<path d="M237.639 30.1085L237.29 31.8102L229.086 28.7994L228.868 28.9739V26.6612L229.086 26.6176L237.377 30.1085H237.639Z" fill="url(#paint38_linear)"/>
<path d="M234.846 14.5742L231.835 14.007L231.792 13.9634L231.573 8.55255L231.661 8.63982L234.628 10.6034H234.715L234.846 14.5742Z" fill="url(#paint39_linear)"/>
<path d="M257.886 0L246.54 5.23626L245.668 12.2179L245.188 12.3488L244.446 4.27628L244.795 3.49084L257.886 0Z" fill="#C69C6D"/>
<path d="M251.209 21.8178L251.035 23.5196L250.904 23.5632L247.195 19.4615V17.4542H247.413L250.904 21.8178H251.209Z" fill="url(#paint40_linear)"/>
<path d="M150.76 38.2684V41.3665L150.542 41.4538L148.142 40.4502V37.1775L150.542 38.3993L150.76 38.2684Z" fill="url(#paint41_linear)"/>
<path d="M145.961 29.1921C145.961 29.2357 145.961 29.2357 145.917 29.2794C145.655 30.0212 145.437 30.7194 145.219 31.4175L140.724 30.9812L140.506 28.363L145.961 29.1921Z" fill="url(#paint42_linear)"/>
<path d="M135.706 30.9812L135.314 33.3375L131.168 30.5885L131.386 28.4067L135.706 30.9812Z" fill="url(#paint43_linear)"/>
<path d="M143.124 61.526L142.731 63.5332L133.961 61.6133L134.223 59.8678L134.397 59.7806L143.124 61.526Z" fill="url(#paint44_linear)"/>
<path d="M152.419 66.7622L152.288 68.944L149.888 66.7622V63.9259L150.281 63.7078L150.106 64.1441L152.288 66.7622H152.419Z" fill="url(#paint45_linear)"/>
<path d="M206.527 11.3016L206.309 13.0034L205.959 13.0907L203.821 10.9526L203.909 9.68713L206.396 11.3453L206.527 11.3016Z" fill="#C69C6D"/>
<path d="M121.35 130.906L121.219 134.005L118.47 132.87H119.212L118.689 132.652L118.078 131.299L118.601 125.67H118.689L121.307 130.906H121.35Z" fill="url(#paint46_linear)"/>
<path d="M72.4786 115.634L72.1731 117.423L71.9986 117.379L61.9624 118.252L72.304 115.678L72.4349 115.634H72.4786Z" fill="url(#paint47_linear)"/>
<path d="M108.783 127.808L108.652 129.728L106.034 130.034L99.969 128.026L100.1 126.15L108.652 127.852L108.783 127.808Z" fill="url(#paint48_linear)"/>
<path d="M80.5935 199.589C80.5935 199.632 80.5503 199.632 80.5072 199.632C80.464 199.632 80.5072 199.632 80.5935 199.589Z" fill="#8C6239"/>
<path d="M92.8127 142.601L90.1946 166.164L90.151 179.691H90.1073L82.9947 183.051L83.6056 194.832L81.0748 196.36L80.8566 196.491C80.9002 195.182 80.9002 193.96 80.9002 193.96L80.7693 193.916L78.6312 184.534L78.5876 184.404L78.413 183.967L77.7585 184.491L75.7076 186.149L73.1768 145.917L92.2018 142.47L92.8127 142.601Z" fill="url(#paint49_linear)"/>
<path d="M118.47 80.5074V83.8674L112.579 89.4527L111.052 89.5836V87.7509L111.27 87.7073L118.47 80.5074Z" fill="#8C6239"/>
<path d="M128.943 80.9438L128.681 84.9146L128.637 84.9583L122.397 86.9219V83.1256L122.528 82.6456L122.616 82.9074L128.812 80.8129L128.856 80.5511L128.943 80.9438Z" fill="#8C6239"/>
<path d="M168.651 98.8344L161.233 100.143L160.797 85.3074C160.797 85.3074 168.215 77.453 168.215 76.5803L168.651 98.8344Z" fill="url(#paint50_linear)"/>
<path d="M165.597 70.4277L165.553 70.384C165.073 69.424 164.724 68.7259 164.724 68.7259L164.637 68.595L162.237 68.2022L161.713 64.1441L161.801 64.1005L161.713 63.9696L159.531 57.4243L164.419 51.8389L165.073 51.0971L164.986 50.7917L165.204 50.879L165.597 70.4277Z" fill="url(#paint51_linear)"/>
<path d="M181.218 102.02L178.905 102.543L177.902 104.289C177.073 99.7508 175.065 88.5364 174.76 84.042V83.9983L180.04 78.7621L181.218 102.02Z" fill="url(#paint52_linear)"/>
<path d="M158.266 38.4429L157.96 38.3992L150.76 41.3665V38.2683L157.917 34.472L158.266 38.4429Z" fill="url(#paint53_linear)"/>
<path d="M192.215 52.5807V58.9079L191.604 59.737H191.778L191.516 65.4096L188.113 65.8896L186.978 45.1627L191.778 41.6719V41.7591V41.8464C191.865 43.1555 192.215 50.2244 192.215 52.5807Z" fill="#8C6239"/>
<path d="M34.9085 213.072L35.3448 207.836L34.2539 202.818L33.9921 201.596L33.8176 201.727V201.378C33.8176 201.378 34.9521 200.985 35.1266 199.501C35.1266 199.414 35.1266 199.283 35.1266 199.196C35.1266 197.451 35.1266 192.214 35.1266 192.214H34.8212L30.1086 192.476H29.8904L30.8504 185.451H30.9376L30.9813 185.407L41.192 169.96C41.6283 172.186 42.021 174.847 42.1956 177.466C42.1956 177.858 42.2392 178.207 42.2392 178.556C42.2392 178.731 42.2392 178.905 42.2392 179.08C42.2392 179.211 42.2392 179.298 42.2392 179.429C42.2392 179.691 42.2392 179.996 42.2392 180.258C42.2392 180.389 42.2392 180.52 42.2392 180.651C42.2392 180.869 42.2392 181.131 42.1956 181.349C42.0647 184.927 41.5847 189.073 41.1483 192.694L41.0611 192.825L40.6683 193.392L40.4065 194.44L38.1375 201.814L37.483 206.396L37.0902 212.199L43.3301 220.01L34.9085 213.072Z" fill="url(#paint54_linear)"/>
<path d="M70.0349 167.342L67.5913 170.44L67.1113 160.491L69.5549 154.513L69.2931 154.251H69.5985L70.0349 167.342Z" fill="url(#paint55_linear)"/>
<path d="M128.943 137.234L127.197 153.379L121.525 156.433L121.961 145.088L122.179 144.826L128.943 137.234Z" fill="url(#paint56_linear)"/>
<path d="M126.587 173.058L121.961 176.069V187.24L116.812 180.302L116.289 162.542L122.398 159.924L126.587 173.058Z" fill="url(#paint57_linear)"/>
<path d="M141.161 128.506V144.215L138.979 150.324V169.262L134.615 167.778L133.743 168.346V132.434H134.179L141.161 128.506Z" fill="url(#paint58_linear)"/>
<path d="M203.123 37.3083L203.516 51.6644L197.887 53.6716V30.3267L203.123 22.9086L203.385 22.865L204.432 36.4356L203.123 37.3083Z" fill="url(#paint59_linear)"/>
<path d="M218.09 28.9303L217.959 28.8431L215.559 27.054L213.465 27.2286L213.596 21.5996L217.523 18.9814V19.0687C217.566 19.7232 218.003 24.5232 218.09 28.9303Z" fill="url(#paint60_linear)"/>
<path d="M242.395 13.2215V9.3816L242.308 8.85797L244.446 4.27625L245.188 12.3488L242.395 13.2215Z" fill="url(#paint61_linear)"/>
<path d="M244.141 29.6721V29.8903L243.835 32.3339L243.791 32.203L243.486 31.4175L237.377 31.8539L237.29 31.8103L237.639 30.1085L244.053 29.6721H244.141Z" fill="#8C6239"/>
<path d="M213.465 11.3889L206.309 13.0034L206.527 11.3016L212.941 9.59983H213.247L213.159 9.38165H213.378L213.465 11.3889Z" fill="url(#paint62_linear)"/>
<path d="M247.195 17.4542V19.4614L246.54 18.7633L242.613 19.636L242.09 19.2433L241.959 16.7997L242.177 17.0179L247.195 17.4542Z" fill="#8C6239"/>
<path d="M228.868 26.6613V28.974L223.413 33.163L222.061 32.0721L222.323 28.5813V28.494L222.41 28.5813L228.868 26.6613Z" fill="#8C6239"/>
<path d="M227.341 45.3809L219.05 48.8718L219.006 49.0027L218.919 49.2645L218.832 49.0899L218.439 47.9118H218.57L227.341 45.3809Z" fill="#8C6239"/>
<path d="M212.505 63.7078H212.767L212.287 63.926V67.9404L207.967 68.7259L208.36 66.5441L207.487 65.235L207.923 63.1842L214.687 59.3442H215.079L215.254 61.6569L212.505 63.7078Z" fill="#8C6239"/>
<path d="M235.457 68.8131L230.832 71.9985L229.741 71.9113V68.8568L234.759 66.3259L235.152 66.3696L235.457 68.8131Z" fill="url(#paint63_linear)"/>
<path d="M199.065 75.9694L198.934 78.1076L193.087 81.642V78.3694L198.978 75.9258L199.065 75.9694Z" fill="url(#paint64_linear)"/>
<path d="M219.486 99.0089L218.177 98.1798L208.97 99.4016C209.057 98.5725 209.188 97.6562 209.319 96.7835L209.407 96.9144L219.225 95.6489L219.486 99.0089Z" fill="url(#paint65_linear)"/>
<path d="M203.56 104.332V106.514L202.469 106.471L198.76 108.172V106.209L203.341 104.289L203.56 104.332Z" fill="url(#paint66_linear)"/>
<path d="M218.177 83.3438L213.378 87.2709L211.85 87.14V85.9619H212.069L218.177 83.3438Z" fill="#8C6239"/>
<path d="M207.749 81.2493L204.869 81.5111V79.722L205.087 79.8529L207.574 79.4166L207.749 81.2493Z" fill="url(#paint67_linear)"/>
<path d="M244.009 103.023L243.922 104.725L239.559 109.525L238.599 109.307L238.73 107.3L243.922 102.98L244.009 103.023Z" fill="url(#paint68_linear)"/>
<path d="M219.705 116.55V122.092L212.068 124.361L209.887 126.543L208.883 126.368L209.538 120.827L209.887 120.87L219.705 116.55Z" fill="url(#paint69_linear)"/>
<path d="M245.231 113.889L237.377 118.252L236.897 118.165L236.984 116.507L245.231 113.889Z" fill="url(#paint70_linear)"/>
<path d="M255.966 119.779L250.904 123.488L242.7 124.012L243.05 121.35L243.486 121.307L255.617 114.805L255.966 119.779Z" fill="url(#paint71_linear)"/>
<path d="M275.558 115.285V118.601L274.467 118.252L265.304 120.87L263.777 120.434V117.292L263.995 117.379L275.34 115.198L275.558 115.285Z" fill="url(#paint72_linear)"/>
<path d="M293.449 116.245V118.601L292.794 118.252L282.322 120.87L281.842 120.696L282.234 117.336L282.322 117.379L293.23 116.07L293.449 116.245Z" fill="#754C24"/>
<path d="M190.381 117.423C190.381 117.423 190.381 117.423 190.381 117.467C190.381 117.51 190.381 117.554 190.381 117.598C190.381 117.641 190.381 117.685 190.381 117.728C190.381 117.859 190.382 118.034 190.338 118.252C190.338 118.339 190.338 118.427 190.338 118.558C190.294 119.518 190.207 121.045 190.163 122.703C190.163 122.834 190.163 123.008 190.163 123.139C190.163 123.27 190.163 123.401 190.163 123.532C190.12 124.667 190.12 125.801 190.12 126.892L180.913 132.87V122.092L190.251 117.379L190.381 117.423Z" fill="url(#paint73_linear)"/>
<path d="M197.014 155.124V162.106L185.233 169.96L181.742 169.873V164.069L183.923 163.415L197.014 155.124Z" fill="url(#paint74_linear)"/>
<path d="M210.76 154.906L208.36 157.742V163.153L204.258 162.368L204.04 155.953L210.105 152.07L210.76 154.906Z" fill="url(#paint75_linear)"/>
<path d="M223.196 157.742V162.237L218.832 165.16L217.523 164.898V160.36L223.196 157.742Z" fill="url(#paint76_linear)"/>
<path d="M247.064 159.968L246.846 162.368L240.65 166.906L239.341 166.251L239.908 163.371L247.064 159.968Z" fill="url(#paint77_linear)"/>
<path d="M70.4711 190.774V192.694L66.1512 191.298L65.2349 191.429V189.291L70.4711 190.774Z" fill="url(#paint78_linear)"/>
<path d="M73.962 205.13V206.919L73.6566 207.05L68.2021 209.669L73.5693 205.436L73.962 205.13Z" fill="#8C6239"/>
<path d="M33.3813 197.887C33.3813 197.887 33.3813 199.72 32.8577 202.381L32.7704 202.469L18.1089 212.723L33.2504 198.018L33.3813 197.887Z" fill="url(#paint79_linear)"/>
<path d="M17.236 193.087V196.011L0 202.032L17.236 193.087Z" fill="url(#paint80_linear)"/>
<path d="M24.5667 143.997H24.4358L17.8905 151.415L15.0542 149.626V147.401L15.2724 147.488L24.3922 140.986L24.5667 143.997Z" fill="url(#paint81_linear)"/>
<path d="M113.976 75.533L112.143 74.6166L103.198 76.7548V73.3512L103.416 73.7439L113.801 71.1258L113.976 75.533Z" fill="#8C6239"/>
<path d="M188.593 23.6068L188.505 25.6577L187.633 25.3086H185.015V25.3522L184.884 25.4395L184.796 24.2177V24.1741L184.927 24.0868L185.015 23.9995L188.505 23.5632L188.593 23.6068Z" fill="#8C6239"/>
<path d="M40.4499 144.913L39.2718 143.997H24.5666L24.3921 140.986L24.4357 140.943L40.1009 138.761L40.4499 144.913Z" fill="url(#paint82_linear)"/>
<path d="M31.025 185.407L30.1087 192.476H29.8905L26.836 192.651L21.4688 194.527H21.4252L20.5525 186.847H20.727H20.9016L20.9452 186.76L30.8941 185.451H30.9814L31.025 185.407Z" fill="url(#paint83_linear)"/>
<path d="M120.652 77.0603C120.521 78.1512 120.39 79.4602 120.259 80.7693C120.172 81.8166 120.085 82.8638 119.998 83.9111L119.561 82.8202L118.47 83.8674V80.4638L118.601 80.3329L117.379 77.2348L113.976 75.533L113.801 71.1695H113.889L120.434 76.4058L120.521 76.6676L120.652 77.0603Z" fill="url(#paint84_linear)"/>
<path d="M158.615 66.195V67.6786L152.288 68.944L152.419 66.7623L158.397 66.3259L158.615 66.195Z" fill="url(#paint85_linear)"/>
<path d="M166.033 36.6102L165.946 37.0029L164.549 49.2645L164.462 48.959V48.9154L161.888 39.2719L158.266 38.4429L157.917 34.472H157.96L166.033 36.6102Z" fill="url(#paint86_linear)"/>
<path d="M188.113 65.8895L187.502 65.9768L185.189 69.5549L184.796 70.0785C184.796 70.0785 184.796 70.1222 184.796 70.1658C184.796 70.1658 184.796 70.2094 184.796 70.2531C184.753 72.3476 184.098 93.1181 183.4 101.627L182.527 101.802L181.262 102.063L180.04 78.8056L176.113 76.1875L176.898 45.6427H176.986L187.022 45.2063L188.113 65.8895Z" fill="url(#paint87_linear)"/>
<path d="M202.25 58.908V65.5842L200.287 64.1442L191.516 65.4096L191.778 59.6934L202.25 58.908Z" fill="url(#paint88_linear)"/>
<path d="M218.832 64.3623V68.9877L216.432 67.1986L212.287 67.9404V63.9259L212.767 63.7078L218.614 64.1441L218.832 64.3623Z" fill="url(#paint89_linear)"/>
<path d="M229.741 68.8568V71.9113L223.501 71.3004L223.806 68.5513L229.523 68.944L229.741 68.8568Z" fill="url(#paint90_linear)"/>
<path d="M192.084 82.2529L191.996 82.4711L192.258 82.7765L193.087 89.6709L192.214 93.1618V96.5217L191.56 97.3071L191.342 97.5253V101.889L188.942 100.362L188.2 100.536L189.596 78.3257L189.684 77.8457L189.814 78.1075L192.913 78.4566L193.087 78.3693V81.642L192.084 82.2529Z" fill="url(#paint91_linear)"/>
<path d="M203.036 93.249L202.469 92.5072H195.618L194.833 93.4236V89.8891H202.905L203.036 93.249Z" fill="url(#paint92_linear)"/>
<path d="M180.869 122.092V132.826L180.825 132.87L180.738 132.914L178.469 134.441L178.251 134.615L178.556 152.637L176.811 154.164L176.113 132.608L175.72 120.958H175.807L180.651 122.179L180.869 122.092Z" fill="url(#paint93_linear)"/>
<path d="M181.742 164.069V169.873L172.666 169.655L173.713 162.717L173.888 162.979L181.611 164.113L181.742 164.069Z" fill="url(#paint94_linear)"/>
<path d="M217.523 160.36V164.898L208.359 163.153V157.742L217.523 160.36Z" fill="url(#paint95_linear)"/>
<path d="M230.614 157.742V161.888L226.686 159.924L223.196 162.237V157.742H230.614Z" fill="url(#paint96_linear)"/>
<path d="M126.325 72.2167V73.7003L126.237 73.6567L124.797 72.8712L123.096 68.6386V69.0313C123.096 68.9004 123.096 68.7695 123.096 68.595C123.096 68.5513 123.096 68.5077 123.096 68.4204L123.139 67.3295V67.2859L124.317 67.635L126.237 71.4313L126.325 72.2167Z" fill="#C7B299"/>
<path d="M160.142 169.306L152.506 173.887L148.535 172.535L146.877 86.1801L160.797 85.3074L161.233 100.143L163.415 109.743L163.851 130.688C163.851 130.688 159.051 141.161 159.051 147.27C159.051 152.506 158.397 161.582 160.142 169.306Z" fill="url(#paint97_linear)"/>
<path d="M148.142 37.1774V40.4501L145.306 39.2719V31.4175H145.262C145.481 30.6757 145.699 29.9339 145.917 29.2794C145.917 29.2358 145.917 29.2358 145.961 29.1921L146.179 29.2358L147.924 37.0902L148.142 37.1774Z" fill="url(#paint98_linear)"/>
<path d="M195.313 30.0649C195.313 30.3267 195.269 30.6321 195.225 30.9376C195.225 31.0248 195.225 31.1558 195.225 31.243C195.225 31.3739 195.225 31.5048 195.182 31.6357C195.182 31.9412 195.138 32.2466 195.138 32.5521C195.138 32.6394 195.138 32.7703 195.138 32.9012C195.138 32.9884 195.138 33.0757 195.138 33.1193C195.138 33.2066 195.138 33.2503 195.138 33.3375V33.6866C195.138 33.8175 195.138 33.9484 195.094 34.0793L195.051 34.5157L195.007 35.3448L194.963 36.2175C194.92 37.0465 194.876 37.9193 194.789 38.8792C194.745 39.6647 194.702 40.5374 194.614 41.4101C194.571 42.2828 194.527 43.1555 194.44 44.0719C194.396 44.6828 194.353 45.25 194.309 45.8609C194.265 46.6463 194.222 47.4318 194.178 48.2172L194.091 49.3954C194.047 50.3554 193.96 51.2717 193.916 52.1444C193.916 52.1881 193.916 52.1881 193.916 52.2317C193.916 52.6244 193.873 53.0171 193.829 53.3662C193.785 53.7589 193.785 54.1953 193.742 54.5444C193.742 54.8498 193.698 55.1116 193.698 55.3734C193.698 55.4607 193.698 55.548 193.698 55.6353L193.654 56.2898L193.611 56.8571C193.611 56.9007 193.611 56.988 193.611 57.0316L192.214 58.8643L191.778 41.8028V41.7155V41.6283L193.087 31.1558L192.956 31.1121L191.996 27.054L188.505 25.6577L188.593 23.6068L192.433 25.745L195.313 30.0649Z" fill="url(#paint99_linear)"/>
<path d="M207.923 47.3445V50.2245L204.389 51.3153V51.359L203.516 51.6644L203.123 37.3083L205.523 42.3264L207.705 47.1263H207.836L207.923 47.3445Z" fill="url(#paint100_linear)"/>
<path d="M221.887 25.5268L221.014 25.9631V26.0504L220.796 26.1813L220.927 26.3995L220.272 30.6321L219.094 29.7158L218.09 28.9303L217.959 28.8431L217.523 19.0687V18.9815L214.032 11.258L213.465 11.3889L213.378 9.38165H220.447L221.887 25.5268Z" fill="url(#paint101_linear)"/>
<path d="M242.395 9.3816V13.2215H242.352L239.297 14.1379L239.341 14.1815L239.123 16.9742L236.417 14.9233L234.846 14.5742L234.715 10.6034L242.177 9.16342L242.308 8.85797L242.395 9.3816Z" fill="url(#paint102_linear)"/>
<path d="M263.777 117.292V120.434L257.449 118.689L255.966 119.779L255.617 114.805L255.704 114.761L263.777 117.292Z" fill="url(#paint103_linear)"/>
<path d="M140.725 30.9812H140.506L135.706 33.5993L135.314 33.3375L135.706 30.9812L140.506 28.363L140.725 30.9812Z" fill="url(#paint104_linear)"/>
<path d="M151.852 59.7806L150.281 63.7078L149.888 63.9259V66.7623L147.924 65.0168L149.233 62.3987L143.561 63.7078L142.732 63.5332L143.124 61.526L151.852 59.7806Z" fill="url(#paint105_linear)"/>
<path d="M132.085 80.6383L131.997 81.3801V85.7437L129.597 84.6528L128.681 84.9146L128.637 84.9582L128.855 80.5511L128.899 80.5074V80.4638L129.597 75.4893L126.325 73.7003L126.194 73.6567L126.106 71.1258L126.281 71.4312V71.4749L126.543 71.9985L131.779 74.6166L132.085 80.6383Z" fill="#754C24"/>
<path d="M162.237 68.2023L158.833 67.635L158.615 67.6786V66.195L161.713 64.1442L162.237 68.2023Z" fill="#754C24"/>
<path d="M103.198 73.3513V76.7548L101.234 77.2348L99.5327 73.3513L99.8818 67.635H99.9254L103.198 73.3513Z" fill="url(#paint106_linear)"/>
<path d="M88.7982 64.2314V67.3296L83.8674 67.9841L83.9983 66.5441V66.2387L84.2165 66.3259L88.7982 64.2314Z" fill="url(#paint107_linear)"/>
<path d="M87.4892 112.71V114.456L79.853 119.125H79.8093L79.853 117.379L87.4892 112.71Z" fill="#754C24"/>
<path d="M104.071 119.169L99.0526 121.307L99.4017 123.227L98.8344 121.525L98.5726 127.547L98.1799 127.416L96.8708 120.434L104.725 116.943L104.551 116.725H104.943L104.071 119.169Z" fill="#754C24"/>
<path d="M62.6603 148.055L60.653 146.179L48.3478 148.273H48.3042L48.5224 142.993H48.566L61.5258 139.634H61.5694L62.6603 148.055Z" fill="url(#paint108_linear)"/>
<path d="M18.9815 189.596V189.727L18.8506 189.683L18.9815 189.596Z" fill="#754C24"/>
<path d="M18.9815 190.12V195.4L17.2361 196.011V193.087L18.9815 190.12Z" fill="url(#paint109_linear)"/>
<path d="M73.6568 189.247L72.0859 193.218L70.4714 192.694V190.774L71.126 188.156V188.113V188.069L71.7805 185.669L73.0896 184.36L73.6568 189.247Z" fill="url(#paint110_linear)"/>
<path d="M144.651 142.034L141.161 144.215V128.507L143.779 111.925L144.651 142.034Z" fill="url(#paint111_linear)"/>
<path d="M143.692 170.877L138.979 169.262V150.324L142.906 146.833L143.692 170.877Z" fill="url(#paint112_linear)"/>
<path d="M139.764 107.343L131.997 98.398L139.415 91.8527L139.764 107.343Z" fill="url(#paint113_linear)"/>
<path d="M256.795 177.815L256.62 179.996H255.922L254.918 175.938L255.486 168.651L256.795 177.815Z" fill="#754C24"/>
<path d="M211.85 85.9619V87.1401L207.705 86.8346L207.269 87.4892L206.832 85.9619H211.85Z" fill="#754C24"/>
<path d="M204.869 79.722V81.5111L204.214 81.5983L198.978 78.1075H198.934L199.065 75.9694L204.869 79.722Z" fill="#754C24"/>
<path d="M221.581 60.7406L215.996 61.0897L215.254 61.657L215.079 59.3443L221.319 58.908L221.581 60.7406Z" fill="#754C24"/>
<path d="M214.032 47.3882V50.7917L213.814 50.6172L208.141 50.1808L207.923 50.2245V47.1263H213.814L214.032 47.3882Z" fill="#754C24"/>
<path d="M246.409 32.683L245.929 35.8247L245.231 36.2174L243.835 32.3339L243.791 32.203L244.053 29.6721H244.14H244.359L246.104 32.7266L246.409 32.683Z" fill="#754C24"/>
<path d="M231.835 14.007L231.792 13.9633L229.522 13.527L223.85 15.7088L226.032 23.1268L221.974 25.4831L221.886 25.5268L220.446 9.38162H221.45L231.486 8.50891L231.573 8.55255L231.661 8.63982L231.835 14.007Z" fill="#754C24"/>
<path d="M242.09 19.2432L239.122 16.9742L239.34 14.1815L241.959 16.7996L242.09 19.2432Z" fill="#754C24"/>
<path d="M185.015 25.3522L184.884 25.4395L183.487 27.2285V25.134L184.796 24.1741L184.927 24.0868L185.015 25.3522Z" fill="#754C24"/>
<path d="M213.552 21.5995L213.421 27.2285L210.323 27.4903L209.014 33.163L204.563 36.5665L204.432 36.4356L203.385 22.865L213.552 21.5995Z" fill="#754C24"/>
<path d="M193.087 31.1993L191.778 41.6719L189.16 32.0721L192.956 31.3302V31.243L193.087 31.1993Z" fill="#754C24"/>
<path d="M138.979 150.324L141.161 144.215L144.652 142.033L142.906 146.833L138.979 150.324Z" fill="#42210B"/>
<path d="M116.289 162.542L121.525 156.433L127.197 153.379L122.398 159.924L116.289 162.542Z" fill="#42210B"/>
<path d="M12.6107 180.564L11.8689 183.487L11.8252 183.313L9.6871 185.32L0.174561 184.534L9.16347 184.185L12.4798 180.302L12.6107 180.564Z" fill="#42210B"/>
<path d="M65.235 189.291V191.429L54.937 193.087L65.0168 189.247L65.235 189.291Z" fill="#42210B"/>
<path d="M80.5935 199.589C80.5935 199.632 80.5503 199.632 80.5072 199.632C80.464 199.632 80.5072 199.632 80.5935 199.589Z" fill="#42210B"/>
<path d="M81.1185 196.36L80.9003 196.491L75.8823 199.501L75.2714 206.265L73.9623 206.919L73.6568 207.05L73.5696 205.436L73.9623 205.13L74.0496 205.043L73.7441 198.541L80.2894 194.265L80.944 193.96C80.944 193.96 81.0749 194.963 81.1185 196.36Z" fill="url(#paint114_linear)"/>
<path d="M118.906 200.069L125.015 191.342L121.961 187.24V176.069L127.634 191.342L118.906 200.069Z" fill="url(#paint115_linear)"/>
<path d="M222.759 148.142L218.483 147.968L218.701 145.961H218.832L222.759 148.142Z" fill="#42210B"/>
<path d="M263.776 169.96L255.486 168.651L254.918 175.938L253.915 172.011L254.395 166.557L263.776 169.96Z" fill="#42210B"/>
<path d="M266.394 179.996H256.62L256.795 177.815L266.394 179.996Z" fill="#42210B"/>
<path d="M182.178 149.452L178.6 152.637L178.251 134.615C178.251 134.615 178.731 136.099 179.386 138.194L182.178 149.452Z" fill="#42210B"/>
<path d="M198.978 115.198L196.927 118.907L197.014 118.95V124.318L194.614 123.925L193.96 124.361V118.252L194.134 118.296L198.541 113.889L205.523 115.634L210.323 111.271L205.959 116.943L198.978 115.198Z" fill="#42210B"/>
<path d="M196.141 101.496V107.867L193.742 103.416L191.342 101.889V97.5253H191.385H191.342L196.141 101.496Z" fill="#42210B"/>
<path d="M213.814 106.907L203.56 106.514V104.332L213.814 106.907Z" fill="#42210B"/>
<path d="M207.269 87.4892L204.956 90.8055L204.432 90.98V94.9072L203.036 93.249L202.905 89.8891L206.832 85.9619L207.269 87.4892Z" fill="#42210B"/>
<path d="M230.832 100.362L223.239 101.191L223.588 99.4889L230.832 100.362Z" fill="#42210B"/>
<path d="M251.34 105.598L243.922 104.725L244.01 103.023L251.34 105.598Z" fill="#42210B"/>
<path d="M301.958 123.052L293.449 118.601V116.245L301.958 123.052Z" fill="#42210B"/>
<path d="M163.415 109.743L161.233 100.143L168.651 98.8344L163.415 109.743Z" fill="#42210B"/>
<path d="M123.183 67.286L123.139 68.4205V68.595V68.9877C123.139 68.8568 123.139 68.7259 123.139 68.5514L123.052 68.5077L114.761 65.0169L123.183 67.286Z" fill="#42210B"/>
<path d="M134.223 59.8679L133.961 61.6133L133.525 61.5261L126.543 62.8351L134.223 59.8679Z" fill="#42210B"/>
<path d="M83.9109 66.195L83.8672 67.984L83.3436 68.0713L78.1073 64.5805L65.8894 64.1441L78.98 63.7078L83.9109 66.195Z" fill="#42210B"/>
<path d="M102.543 94.689L102.718 94.8199L102.543 96.8272L99.925 95.1254L101.67 89.0164L101.932 88.9728L103.154 92.6382L102.543 94.689Z" fill="#42210B"/>
<path d="M103.503 112.623L103.285 115.067L103.241 115.198L102.543 114.325L95.1253 116.07L94.1653 115.852L94.6016 113.889H94.6889L103.46 112.623H103.503Z" fill="#42210B"/>
<path d="M100.1 126.15L99.9689 128.027L98.5725 127.547L98.8343 121.525L99.4016 123.227L99.9252 126.107L100.1 126.15Z" fill="#42210B"/>
<path d="M118.601 125.67L118.078 131.299L116.943 128.725L108.652 129.728L108.783 127.808L118.601 125.67Z" fill="#42210B"/>
<path d="M15.0544 147.401V149.626L3.49097 142.252L15.0544 147.401Z" fill="#42210B"/>
<path d="M14.6179 184.273V188.113L13.4398 187.676L11.8689 183.487L12.6107 180.564L14.6179 184.273Z" fill="url(#paint116_linear)"/>
<path d="M139.634 85.1765L138.979 90.98H138.848L138.499 90.5V90.4563L134.397 86.8346L131.997 85.7437V81.3802L132.128 81.162V81.4674L132.652 81.5983L139.634 85.1765Z" fill="#42210B"/>
<path d="M218.614 76.3621L212.505 82.0347L211.719 81.8602L211.894 80.2457L212.069 80.2893L218.614 76.3621Z" fill="#42210B"/>
<path d="M227.777 54.5444L222.977 60.6533L221.581 60.7406L221.319 58.9079H221.668L227.777 54.5444Z" fill="#42210B"/>
<path d="M246.977 64.1442L240.868 68.5077L240.17 68.4204L240.344 66.7623H240.431L246.977 64.1442Z" fill="#42210B"/>
<path d="M219.006 49.0027L218.919 49.2645L217.305 53.6717L216.65 53.1044V50.3554L216.868 50.6172L218.177 47.9991L218.439 47.9118H218.57L219.006 49.0027Z" fill="#42210B"/>
<path d="M221.101 26.0067L221.014 26.0503V25.9631L221.101 26.0067Z" fill="#42210B"/>
<path d="M222.323 28.494V28.5812L221.974 31.9848L220.272 30.6321L220.927 26.3995L222.323 28.494Z" fill="#42210B"/>
<path d="M253.959 31.4175L245.93 35.8247L246.41 32.683L253.959 31.4175Z" fill="#42210B"/>
<path d="M259.631 21.3814L251.035 23.5195L251.209 21.8178L259.631 21.3814Z" fill="#42210B"/>
<path d="M203.865 9.64343L203.778 10.9089H195.487L203.778 9.59979L203.865 9.64343Z" fill="#42210B"/>
<path d="M183.487 25.134V27.2285L183.269 27.4903L181.742 26.1376V23.3886L183.269 25.3086L183.487 25.134Z" fill="#42210B"/>
<path d="M131.387 28.4067L131.168 30.5884L130.47 30.1085H120.434L131.343 28.363L131.387 28.4067Z" fill="#42210B"/>
</g>
<defs>
<linearGradient id="paint0_linear" x1="62.7091" y1="165.632" x2="61.2081" y2="186.837" gradientUnits="userSpaceOnUse">
<stop stop-color="#42210B"/>
<stop offset="0.733" stop-color="#1C0E05"/>
</linearGradient>
<linearGradient id="paint1_linear" x1="176.993" y1="83.2309" x2="176.704" y2="75.268" gradientUnits="userSpaceOnUse">
<stop stop-color="#8C6239"/>
<stop offset="1" stop-color="#361B09"/>
</linearGradient>
<linearGradient id="paint2_linear" x1="219.986" y1="112.217" x2="227.08" y2="115.402" gradientUnits="userSpaceOnUse">
<stop stop-color="#8C6239"/>
<stop offset="1" stop-color="#361B09"/>
</linearGradient>
<linearGradient id="paint3_linear" x1="173.306" y1="47.5184" x2="163.75" y2="175.505" gradientUnits="userSpaceOnUse">
<stop stop-color="#8C6239"/>
<stop offset="0.9404" stop-color="#361B09"/>
</linearGradient>
<linearGradient id="paint4_linear" x1="162.297" y1="103.2" x2="184.331" y2="104.81" gradientUnits="userSpaceOnUse">
<stop stop-color="#BD9B76"/>
<stop offset="0.2279" stop-color="#8C6C4E" stop-opacity="0.7036"/>
<stop offset="0.4724" stop-color="#5D4029" stop-opacity="0.3855"/>
<stop offset="0.6608" stop-color="#412512" stop-opacity="0.1405"/>
<stop offset="0.7688" stop-color="#361B09" stop-opacity="0"/>
</linearGradient>
<linearGradient id="paint5_linear" x1="36.4503" y1="190.254" x2="33.1686" y2="203.187" gradientUnits="userSpaceOnUse">
<stop stop-color="#FFF2E3"/>
<stop offset="0.9985" stop-color="#B88C55"/>
</linearGradient>
<linearGradient id="paint6_linear" x1="121.218" y1="140.77" x2="109.635" y2="179.572" gradientUnits="userSpaceOnUse">
<stop stop-color="#FFF2E3"/>
<stop offset="0.917" stop-color="#B88C55"/>
</linearGradient>
<linearGradient id="paint7_linear" x1="101.474" y1="148.267" x2="100.22" y2="178.574" gradientUnits="userSpaceOnUse">
<stop stop-color="#D4B188"/>
<stop offset="0.8932" stop-color="#452B0A"/>
</linearGradient>
<linearGradient id="paint8_linear" x1="44.3335" y1="140.349" x2="44.3335" y2="146.913" gradientUnits="userSpaceOnUse">
<stop stop-color="#D4B188"/>
<stop offset="0.9985" stop-color="#855F33"/>
</linearGradient>
<linearGradient id="paint9_linear" x1="127.462" y1="129.705" x2="127.607" y2="180.233" gradientUnits="userSpaceOnUse">
<stop stop-color="#D4B188"/>
<stop offset="0.8201" stop-color="#4F330F"/>
</linearGradient>
<linearGradient id="paint10_linear" x1="142.906" y1="87.5977" x2="144.644" y2="166.648" gradientUnits="userSpaceOnUse">
<stop stop-color="#D4B188"/>
<stop offset="0.9985" stop-color="#422706"/>
</linearGradient>
<linearGradient id="paint11_linear" x1="171.996" y1="42.702" x2="176.37" y2="136.179" gradientUnits="userSpaceOnUse">
<stop stop-color="#A17041"/>
<stop offset="1" stop-color="#1F0E05"/>
</linearGradient>
<linearGradient id="paint12_linear" x1="167.743" y1="123.873" x2="176.065" y2="142.693" gradientUnits="userSpaceOnUse">
<stop stop-color="#D4B188"/>
<stop offset="0.9874" stop-color="#734E24"/>
</linearGradient>
<linearGradient id="paint13_linear" x1="169.597" y1="157.894" x2="174.23" y2="173.241" gradientUnits="userSpaceOnUse">
<stop offset="0.1848" stop-color="#D4B188"/>
<stop offset="0.8364" stop-color="#855F33"/>
</linearGradient>
<linearGradient id="paint14_linear" x1="200.832" y1="152.032" x2="200.253" y2="171.433" gradientUnits="userSpaceOnUse">
<stop stop-color="#D4B188"/>
<stop offset="0.9149" stop-color="#855F33"/>
</linearGradient>
<linearGradient id="paint15_linear" x1="209.551" y1="143.619" x2="217.424" y2="153.978" gradientUnits="userSpaceOnUse">
<stop stop-color="#D4B188"/>
<stop offset="1" stop-color="#5E3F1C"/>
</linearGradient>
<linearGradient id="paint16_linear" x1="235.949" y1="159.56" x2="234.213" y2="163.9" gradientUnits="userSpaceOnUse">
<stop stop-color="#D4B188"/>
<stop offset="0.9985" stop-color="#855F33"/>
</linearGradient>
<linearGradient id="paint17_linear" x1="250.693" y1="160.37" x2="250.548" y2="168.767" gradientUnits="userSpaceOnUse">
<stop stop-color="#D4B188"/>
<stop offset="0.9149" stop-color="#855F33"/>
</linearGradient>
<linearGradient id="paint18_linear" x1="46.9053" y1="164.922" x2="49.8009" y2="186.349" gradientUnits="userSpaceOnUse">
<stop stop-color="#D4B188"/>
<stop offset="0.9985" stop-color="#855F33"/>
</linearGradient>
<linearGradient id="paint19_linear" x1="76.5213" y1="114.091" x2="75.6526" y2="120.027" gradientUnits="userSpaceOnUse">
<stop stop-color="#FFF2E3"/>
<stop offset="0.9985" stop-color="#B88C55"/>
</linearGradient>
<linearGradient id="paint20_linear" x1="91.2009" y1="110.966" x2="90.7311" y2="117.895" gradientUnits="userSpaceOnUse">
<stop stop-color="#D4B188"/>
<stop offset="0.9985" stop-color="#855F33"/>
</linearGradient>
<linearGradient id="paint21_linear" x1="94.5163" y1="62.2017" x2="93.9372" y2="74.9424" gradientUnits="userSpaceOnUse">
<stop stop-color="#D4B188"/>
<stop offset="0.8932" stop-color="#452B0A"/>
</linearGradient>
<linearGradient id="paint22_linear" x1="17.1234" y1="186.282" x2="20.7912" y2="194.389" gradientUnits="userSpaceOnUse">
<stop stop-color="#D4B188"/>
<stop offset="0.9985" stop-color="#855F33"/>
</linearGradient>
<linearGradient id="paint23_linear" x1="67.7498" y1="147.664" x2="71.4176" y2="199.979" gradientUnits="userSpaceOnUse">
<stop stop-color="#D4B188"/>
<stop offset="0.9149" stop-color="#855F33"/>
</linearGradient>
<linearGradient id="paint24_linear" x1="191.83" y1="119.771" x2="192.41" y2="127.589" gradientUnits="userSpaceOnUse">
<stop stop-color="#D4B188"/>
<stop offset="0.9985" stop-color="#855F33"/>
</linearGradient>
<linearGradient id="paint25_linear" x1="202.972" y1="118.946" x2="203.551" y2="126.764" gradientUnits="userSpaceOnUse">
<stop stop-color="#D4B188"/>
<stop offset="0.9985" stop-color="#855F33"/>
</linearGradient>
<linearGradient id="paint26_linear" x1="234.45" y1="111.341" x2="234.595" y2="124.805" gradientUnits="userSpaceOnUse">
<stop stop-color="#D4B188"/>
<stop offset="0.9985" stop-color="#855F33"/>
</linearGradient>
<linearGradient id="paint27_linear" x1="234.825" y1="103.456" x2="233.956" y2="109.392" gradientUnits="userSpaceOnUse">
<stop stop-color="#D4B188"/>
<stop offset="0.9985" stop-color="#855F33"/>
</linearGradient>
<linearGradient id="paint28_linear" x1="278.824" y1="110.864" x2="278.969" y2="124.328" gradientUnits="userSpaceOnUse">
<stop stop-color="#D4B188"/>
<stop offset="0.9985" stop-color="#855F33"/>
</linearGradient>
<linearGradient id="paint29_linear" x1="197.616" y1="96.7988" x2="197.327" y2="110.843" gradientUnits="userSpaceOnUse">
<stop stop-color="#D4B188"/>
<stop offset="0.9985" stop-color="#855F33"/>
</linearGradient>
<linearGradient id="paint30_linear" x1="195.471" y1="83.4086" x2="190.693" y2="95.1358" gradientUnits="userSpaceOnUse">
<stop stop-color="#D4B188"/>
<stop offset="0.9874" stop-color="#734E24"/>
</linearGradient>
<linearGradient id="paint31_linear" x1="206.93" y1="91.7336" x2="206.641" y2="105.777" gradientUnits="userSpaceOnUse">
<stop stop-color="#D4B188"/>
<stop offset="0.5932" stop-color="#855F33"/>
</linearGradient>
<linearGradient id="paint32_linear" x1="221.523" y1="93.1807" x2="221.233" y2="107.225" gradientUnits="userSpaceOnUse">
<stop stop-color="#D4B188"/>
<stop offset="0.6345" stop-color="#855F33"/>
</linearGradient>
<linearGradient id="paint33_linear" x1="206.319" y1="58.6074" x2="202.555" y2="74.8229" gradientUnits="userSpaceOnUse">
<stop stop-color="#D4B188"/>
<stop offset="0.8585" stop-color="#422706"/>
</linearGradient>
<linearGradient id="paint34_linear" x1="221.877" y1="64.7424" x2="219.573" y2="74.6646" gradientUnits="userSpaceOnUse">
<stop stop-color="#D4B188"/>
<stop offset="0.9985" stop-color="#422706"/>
</linearGradient>
<linearGradient id="paint35_linear" x1="237.717" y1="64.6138" x2="237.862" y2="71.7081" gradientUnits="userSpaceOnUse">
<stop stop-color="#D4B188"/>
<stop offset="0.9985" stop-color="#855F33"/>
</linearGradient>
<linearGradient id="paint36_linear" x1="215.217" y1="44.5057" x2="215.362" y2="51.5999" gradientUnits="userSpaceOnUse">
<stop stop-color="#D4B188"/>
<stop offset="0.9985" stop-color="#855F33"/>
</linearGradient>
<linearGradient id="paint37_linear" x1="195.135" y1="30.7144" x2="196.85" y2="67.3592" gradientUnits="userSpaceOnUse">
<stop stop-color="#A17041"/>
<stop offset="1" stop-color="#1F0E05"/>
</linearGradient>
<linearGradient id="paint38_linear" x1="233.151" y1="24.9457" x2="233.296" y2="32.0399" gradientUnits="userSpaceOnUse">
<stop stop-color="#D4B188"/>
<stop offset="0.9985" stop-color="#855F33"/>
</linearGradient>
<linearGradient id="paint39_linear" x1="233.147" y1="8.62534" x2="233.292" y2="15.7196" gradientUnits="userSpaceOnUse">
<stop stop-color="#D4B188"/>
<stop offset="0.9985" stop-color="#855F33"/>
</linearGradient>
<linearGradient id="paint40_linear" x1="249.594" y1="18.187" x2="248.452" y2="23.7321" gradientUnits="userSpaceOnUse">
<stop stop-color="#D4B188"/>
<stop offset="0.9985" stop-color="#855F33"/>
</linearGradient>
<linearGradient id="paint41_linear" x1="149.722" y1="35.9042" x2="149.335" y2="40.7302" gradientUnits="userSpaceOnUse">
<stop stop-color="#FFF2E3"/>
<stop offset="0.9985" stop-color="#B88C55"/>
</linearGradient>
<linearGradient id="paint42_linear" x1="143.123" y1="27.2674" x2="143.509" y2="32.4795" gradientUnits="userSpaceOnUse">
<stop stop-color="#FFF2E3"/>
<stop offset="0.9985" stop-color="#B88C55"/>
</linearGradient>
<linearGradient id="paint43_linear" x1="133.311" y1="25.4434" x2="133.504" y2="33.3581" gradientUnits="userSpaceOnUse">
<stop offset="0.1312" stop-color="#D4B188"/>
<stop offset="0.9985" stop-color="#855F33"/>
</linearGradient>
<linearGradient id="paint44_linear" x1="138.983" y1="56.3925" x2="138.211" y2="65.4655" gradientUnits="userSpaceOnUse">
<stop offset="0.251" stop-color="#FFF2E3"/>
<stop offset="0.8286" stop-color="#B88C55"/>
</linearGradient>
<linearGradient id="paint45_linear" x1="151.162" y1="63.3258" x2="151.162" y2="69.8892" gradientUnits="userSpaceOnUse">
<stop offset="0.1312" stop-color="#D4B188"/>
<stop offset="0.9985" stop-color="#855F33"/>
</linearGradient>
<linearGradient id="paint46_linear" x1="120.638" y1="123.784" x2="118.611" y2="141.013" gradientUnits="userSpaceOnUse">
<stop stop-color="#8C6239"/>
<stop offset="1" stop-color="#361B09"/>
</linearGradient>
<linearGradient id="paint47_linear" x1="72.9677" y1="111.671" x2="63.2673" y2="121.806" gradientUnits="userSpaceOnUse">
<stop stop-color="#8C6239"/>
<stop offset="1" stop-color="#361B09"/>
</linearGradient>
<linearGradient id="paint48_linear" x1="104.868" y1="124.498" x2="103.565" y2="133.474" gradientUnits="userSpaceOnUse">
<stop stop-color="#8C6239"/>
<stop offset="1" stop-color="#361B09"/>
</linearGradient>
<linearGradient id="paint49_linear" x1="83.0472" y1="144.89" x2="84.5094" y2="197.546" gradientUnits="userSpaceOnUse">
<stop stop-color="#8C6239"/>
<stop offset="0.768" stop-color="#361B09"/>
</linearGradient>
<linearGradient id="paint50_linear" x1="164.898" y1="78.6866" x2="164.608" y2="100.983" gradientUnits="userSpaceOnUse">
<stop stop-color="#8C6239"/>
<stop offset="1" stop-color="#361B09"/>
</linearGradient>
<linearGradient id="paint51_linear" x1="162.168" y1="51.3877" x2="163.616" y2="76.5796" gradientUnits="userSpaceOnUse">
<stop stop-color="#8C6239"/>
<stop offset="0.768" stop-color="#361B09"/>
</linearGradient>
<linearGradient id="paint52_linear" x1="177.748" y1="78.3547" x2="178.182" y2="106.008" gradientUnits="userSpaceOnUse">
<stop stop-color="#8C6239"/>
<stop offset="1" stop-color="#361B09"/>
</linearGradient>
<linearGradient id="paint53_linear" x1="154.138" y1="32.7313" x2="154.717" y2="44.0242" gradientUnits="userSpaceOnUse">
<stop stop-color="#8C6239"/>
<stop offset="1" stop-color="#361B09"/>
</linearGradient>
<linearGradient id="paint54_linear" x1="36.4675" y1="177.609" x2="36.7077" y2="218.858" gradientUnits="userSpaceOnUse">
<stop stop-color="#8C6239"/>
<stop offset="1" stop-color="#361B09"/>
</linearGradient>
<linearGradient id="paint55_linear" x1="68.9522" y1="153.641" x2="68.1559" y2="175.213" gradientUnits="userSpaceOnUse">
<stop stop-color="#8C6239"/>
<stop offset="1" stop-color="#361B09"/>
</linearGradient>
<linearGradient id="paint56_linear" x1="125.404" y1="141.647" x2="124.922" y2="156.318" gradientUnits="userSpaceOnUse">
<stop stop-color="#8C6239"/>
<stop offset="1" stop-color="#361B09"/>
</linearGradient>
<linearGradient id="paint57_linear" x1="120.214" y1="161.659" x2="122.531" y2="185.113" gradientUnits="userSpaceOnUse">
<stop stop-color="#8C6239"/>
<stop offset="1" stop-color="#361B09"/>
</linearGradient>
<linearGradient id="paint58_linear" x1="134.886" y1="129.35" x2="143.862" y2="196.094" gradientUnits="userSpaceOnUse">
<stop stop-color="#A17041"/>
<stop offset="1" stop-color="#1F0E05"/>
</linearGradient>
<linearGradient id="paint59_linear" x1="200.097" y1="22.0685" x2="201.689" y2="56.5264" gradientUnits="userSpaceOnUse">
<stop stop-color="#8C6239"/>
<stop offset="0.768" stop-color="#361B09"/>
</linearGradient>
<linearGradient id="paint60_linear" x1="215.407" y1="20.0062" x2="215.998" y2="32.7906" gradientUnits="userSpaceOnUse">
<stop stop-color="#8C6239"/>
<stop offset="0.768" stop-color="#361B09"/>
</linearGradient>
<linearGradient id="paint61_linear" x1="243.412" y1="4.4757" x2="244.221" y2="21.9747" gradientUnits="userSpaceOnUse">
<stop stop-color="#8C6239"/>
<stop offset="0.768" stop-color="#361B09"/>
</linearGradient>
<linearGradient id="paint62_linear" x1="209.716" y1="8.60935" x2="210.118" y2="17.299" gradientUnits="userSpaceOnUse">
<stop stop-color="#8C6239"/>
<stop offset="0.768" stop-color="#361B09"/>
</linearGradient>
<linearGradient id="paint63_linear" x1="232.447" y1="65.9181" x2="232.737" y2="74.6049" gradientUnits="userSpaceOnUse">
<stop stop-color="#8C6239"/>
<stop offset="1" stop-color="#361B09"/>
</linearGradient>
<linearGradient id="paint64_linear" x1="195.871" y1="75.9829" x2="196.45" y2="84.2354" gradientUnits="userSpaceOnUse">
<stop stop-color="#A17041"/>
<stop offset="1" stop-color="#1F0E05"/>
</linearGradient>
<linearGradient id="paint65_linear" x1="213.97" y1="95.2337" x2="214.549" y2="103.486" gradientUnits="userSpaceOnUse">
<stop stop-color="#A17041"/>
<stop offset="0.839" stop-color="#1F0E05"/>
</linearGradient>
<linearGradient id="paint66_linear" x1="200.966" y1="103.509" x2="201.546" y2="111.761" gradientUnits="userSpaceOnUse">
<stop stop-color="#A17041"/>
<stop offset="1" stop-color="#1F0E05"/>
</linearGradient>
<linearGradient id="paint67_linear" x1="206.024" y1="77.2963" x2="206.603" y2="85.5488" gradientUnits="userSpaceOnUse">
<stop stop-color="#A17041"/>
<stop offset="0.8663" stop-color="#1F0E05"/>
</linearGradient>
<linearGradient id="paint68_linear" x1="237.675" y1="105.051" x2="246.651" y2="107.802" gradientUnits="userSpaceOnUse">
<stop stop-color="#A17041"/>
<stop offset="1" stop-color="#1F0E05"/>
</linearGradient>
<linearGradient id="paint69_linear" x1="211.101" y1="119.138" x2="219.923" y2="125.554" gradientUnits="userSpaceOnUse">
<stop stop-color="#8C6239"/>
<stop offset="0.8534" stop-color="#361B09"/>
</linearGradient>
<linearGradient id="paint70_linear" x1="240.928" y1="111.554" x2="241.507" y2="131.245" gradientUnits="userSpaceOnUse">
<stop stop-color="#A17041"/>
<stop offset="0.5911" stop-color="#1F0E05"/>
</linearGradient>
<linearGradient id="paint71_linear" x1="249.026" y1="111.316" x2="249.605" y2="131.006" gradientUnits="userSpaceOnUse">
<stop stop-color="#A17041"/>
<stop offset="1" stop-color="#1F0E05"/>
</linearGradient>
<linearGradient id="paint72_linear" x1="269.457" y1="110.715" x2="270.036" y2="130.406" gradientUnits="userSpaceOnUse">
<stop stop-color="#A17041"/>
<stop offset="0.7948" stop-color="#1F0E05"/>
</linearGradient>
<linearGradient id="paint73_linear" x1="183.677" y1="118.73" x2="190.771" y2="142.04" gradientUnits="userSpaceOnUse">
<stop stop-color="#A17041"/>
<stop offset="1" stop-color="#1F0E05"/>
</linearGradient>
<linearGradient id="paint74_linear" x1="188.842" y1="160.924" x2="192.645" y2="172.078" gradientUnits="userSpaceOnUse">
<stop stop-color="#8C6239"/>
<stop offset="0.768" stop-color="#361B09"/>
</linearGradient>
<linearGradient id="paint75_linear" x1="206.333" y1="152.614" x2="208.36" y2="163.038" gradientUnits="userSpaceOnUse">
<stop stop-color="#8C6239"/>
<stop offset="1" stop-color="#361B09"/>
</linearGradient>
<linearGradient id="paint76_linear" x1="219.925" y1="155.134" x2="221.083" y2="171.639" gradientUnits="userSpaceOnUse">
<stop stop-color="#8C6239"/>
<stop offset="0.768" stop-color="#361B09"/>
</linearGradient>
<linearGradient id="paint77_linear" x1="241.012" y1="156.851" x2="249.12" y2="180.015" gradientUnits="userSpaceOnUse">
<stop stop-color="#8C6239"/>
<stop offset="0.768" stop-color="#361B09"/>
</linearGradient>
<linearGradient id="paint78_linear" x1="68.888" y1="190.238" x2="64.6699" y2="193.34" gradientUnits="userSpaceOnUse">
<stop stop-color="#804924"/>
<stop offset="0.8234" stop-color="#1C0E05"/>
</linearGradient>
<linearGradient id="paint79_linear" x1="27.0659" y1="199.037" x2="24.7494" y2="211.561" gradientUnits="userSpaceOnUse">
<stop stop-color="#8C6239"/>
<stop offset="1" stop-color="#361B09"/>
</linearGradient>
<linearGradient id="paint80_linear" x1="14.3065" y1="193.786" x2="7.06747" y2="200.446" gradientUnits="userSpaceOnUse">
<stop stop-color="#8C6239"/>
<stop offset="1" stop-color="#361B09"/>
</linearGradient>
<linearGradient id="paint81_linear" x1="19.9686" y1="146.054" x2="21.2384" y2="149.879" gradientUnits="userSpaceOnUse">
<stop stop-color="#8C6239"/>
<stop offset="1" stop-color="#361B09"/>
</linearGradient>
<linearGradient id="paint82_linear" x1="33.1451" y1="136.273" x2="32.1799" y2="144.96" gradientUnits="userSpaceOnUse">
<stop stop-color="#FFF2E3"/>
<stop offset="0.9985" stop-color="#B88C55"/>
</linearGradient>
<linearGradient id="paint83_linear" x1="27.3142" y1="181.328" x2="24.0325" y2="195.227" gradientUnits="userSpaceOnUse">
<stop stop-color="#FFF2E3"/>
<stop offset="0.9985" stop-color="#B88C55"/>
</linearGradient>
<linearGradient id="paint84_linear" x1="117.231" y1="71.0475" x2="117.231" y2="88.8073" gradientUnits="userSpaceOnUse">
<stop stop-color="#FFF2E3"/>
<stop offset="0.9985" stop-color="#4F300A"/>
</linearGradient>
<linearGradient id="paint85_linear" x1="155.243" y1="63.8997" x2="155.629" y2="70.4631" gradientUnits="userSpaceOnUse">
<stop stop-color="#FFF2E3"/>
<stop offset="0.9985" stop-color="#B88C55"/>
</linearGradient>
<linearGradient id="paint86_linear" x1="162.007" y1="34.9432" x2="161.138" y2="51.1587" gradientUnits="userSpaceOnUse">
<stop stop-color="#FFF2E3"/>
<stop offset="0.9985" stop-color="#B88C55"/>
</linearGradient>
<linearGradient id="paint87_linear" x1="181.097" y1="43.9509" x2="183.703" y2="114.314" gradientUnits="userSpaceOnUse">
<stop stop-color="#FFF2E3"/>
<stop offset="0.9985" stop-color="#4F300A"/>
</linearGradient>
<linearGradient id="paint88_linear" x1="196.961" y1="57.006" x2="196.817" y2="73.6558" gradientUnits="userSpaceOnUse">
<stop stop-color="#FFF2E3"/>
<stop offset="0.9985" stop-color="#4F300A"/>
</linearGradient>
<linearGradient id="paint89_linear" x1="215.616" y1="59.9258" x2="215.471" y2="76.5757" gradientUnits="userSpaceOnUse">
<stop stop-color="#FFF2E3"/>
<stop offset="0.8686" stop-color="#4F300A"/>
</linearGradient>
<linearGradient id="paint90_linear" x1="226.656" y1="67.0765" x2="226.559" y2="78.2172" gradientUnits="userSpaceOnUse">
<stop stop-color="#FFF2E3"/>
<stop offset="0.9985" stop-color="#4F300A"/>
</linearGradient>
<linearGradient id="paint91_linear" x1="191.523" y1="75.6897" x2="189.785" y2="113.767" gradientUnits="userSpaceOnUse">
<stop stop-color="#FFF2E3"/>
<stop offset="0.9985" stop-color="#4F300A"/>
</linearGradient>
<linearGradient id="paint92_linear" x1="198.988" y1="86.669" x2="198.843" y2="103.319" gradientUnits="userSpaceOnUse">
<stop stop-color="#FFF2E3"/>
<stop offset="0.6814" stop-color="#4F300A"/>
</linearGradient>
<linearGradient id="paint93_linear" x1="177.571" y1="121.686" x2="181.19" y2="168.306" gradientUnits="userSpaceOnUse">
<stop stop-color="#D4B188"/>
<stop offset="0.8932" stop-color="#452B0A"/>
</linearGradient>
<linearGradient id="paint94_linear" x1="177.366" y1="159.141" x2="177.077" y2="178.831" gradientUnits="userSpaceOnUse">
<stop stop-color="#FFF2E3"/>
<stop offset="0.9985" stop-color="#4F300A"/>
</linearGradient>
<linearGradient id="paint95_linear" x1="212.941" y1="155.6" x2="212.941" y2="173.263" gradientUnits="userSpaceOnUse">
<stop stop-color="#FFF2E3"/>
<stop offset="0.9985" stop-color="#4F300A"/>
</linearGradient>
<linearGradient id="paint96_linear" x1="226.283" y1="153.678" x2="228.02" y2="171.341" gradientUnits="userSpaceOnUse">
<stop stop-color="#FFF2E3"/>
<stop offset="0.9985" stop-color="#4F300A"/>
</linearGradient>
<linearGradient id="paint97_linear" x1="155.531" y1="86.5127" x2="154.952" y2="162.378" gradientUnits="userSpaceOnUse">
<stop stop-color="#FFF2E3"/>
<stop offset="0.9985" stop-color="#4F300A"/>
</linearGradient>
<linearGradient id="paint98_linear" x1="146.923" y1="30.0149" x2="146.536" y2="40.8252" gradientUnits="userSpaceOnUse">
<stop stop-color="#D4B188"/>
<stop offset="0.8932" stop-color="#452B0A"/>
</linearGradient>
<linearGradient id="paint99_linear" x1="192.061" y1="24.2293" x2="190.324" y2="62.3067" gradientUnits="userSpaceOnUse">
<stop stop-color="#FFF2E3"/>
<stop offset="0.9985" stop-color="#4F300A"/>
</linearGradient>
<linearGradient id="paint100_linear" x1="205.429" y1="37.9772" x2="205.8" y2="55.0392" gradientUnits="userSpaceOnUse">
<stop stop-color="#FFF2E3"/>
<stop offset="0.9902" stop-color="#4F300A"/>
</linearGradient>
<linearGradient id="paint101_linear" x1="217.396" y1="6.89408" x2="217.975" y2="33.5338" gradientUnits="userSpaceOnUse">
<stop stop-color="#FFF2E3"/>
<stop offset="0.9985" stop-color="#4F300A"/>
</linearGradient>
<linearGradient id="paint102_linear" x1="238.51" y1="7.81578" x2="238.759" y2="19.2324" gradientUnits="userSpaceOnUse">
<stop stop-color="#FFF2E3"/>
<stop offset="0.9985" stop-color="#4F300A"/>
</linearGradient>
<linearGradient id="paint103_linear" x1="259.867" y1="113.041" x2="259.432" y2="124.334" gradientUnits="userSpaceOnUse">
<stop stop-color="#FFF2E3"/>
<stop offset="0.9985" stop-color="#4F300A"/>
</linearGradient>
<linearGradient id="paint104_linear" x1="138.021" y1="27.034" x2="138.021" y2="35.5279" gradientUnits="userSpaceOnUse">
<stop stop-color="#8C6239"/>
<stop offset="1" stop-color="#361B09"/>
</linearGradient>
<linearGradient id="paint105_linear" x1="147.296" y1="58.6928" x2="147.296" y2="67.1866" gradientUnits="userSpaceOnUse">
<stop stop-color="#8C6239"/>
<stop offset="1" stop-color="#361B09"/>
</linearGradient>
<linearGradient id="paint106_linear" x1="101.796" y1="68.5103" x2="101.226" y2="76.9248" gradientUnits="userSpaceOnUse">
<stop stop-color="#D4B188"/>
<stop offset="0.9985" stop-color="#855F33"/>
</linearGradient>
<linearGradient id="paint107_linear" x1="86.7523" y1="61.5579" x2="85.7782" y2="75.9262" gradientUnits="userSpaceOnUse">
<stop stop-color="#D4B188"/>
<stop offset="0.9985" stop-color="#855F33"/>
</linearGradient>
<linearGradient id="paint108_linear" x1="54.7722" y1="142.782" x2="56.7629" y2="157.016" gradientUnits="userSpaceOnUse">
<stop stop-color="#42210B"/>
<stop offset="0.4546" stop-color="#1C0E05"/>
</linearGradient>
<linearGradient id="paint109_linear" x1="18.1088" y1="192.881" x2="18.1088" y2="197.297" gradientUnits="userSpaceOnUse">
<stop stop-color="#8C6239"/>
<stop offset="1" stop-color="#361B09"/>
</linearGradient>
<linearGradient id="paint110_linear" x1="72.013" y1="188.757" x2="72.1845" y2="195.624" gradientUnits="userSpaceOnUse">
<stop stop-color="#8C6239"/>
<stop offset="1" stop-color="#361B09"/>
</linearGradient>
<linearGradient id="paint111_linear" x1="141.894" y1="116.613" x2="143.342" y2="145.425" gradientUnits="userSpaceOnUse">
<stop stop-color="#8C6239"/>
<stop offset="1" stop-color="#361B09"/>
</linearGradient>
<linearGradient id="paint112_linear" x1="141.508" y1="147.152" x2="141.219" y2="170.897" gradientUnits="userSpaceOnUse">
<stop stop-color="#8C6239"/>
<stop offset="1" stop-color="#361B09"/>
</linearGradient>
<linearGradient id="paint113_linear" x1="135.49" y1="92.3774" x2="137.517" y2="118.148" gradientUnits="userSpaceOnUse">
<stop stop-color="#8C6239"/>
<stop offset="0.768" stop-color="#361B09"/>
</linearGradient>
<linearGradient id="paint114_linear" x1="78.8861" y1="199.615" x2="71.5702" y2="204.052" gradientUnits="userSpaceOnUse">
<stop stop-color="#613110"/>
<stop offset="0.8681" stop-color="#1C0E05"/>
</linearGradient>
<linearGradient id="paint115_linear" x1="116.482" y1="182.717" x2="128.644" y2="199.222" gradientUnits="userSpaceOnUse">
<stop stop-color="#804924"/>
<stop offset="0.8234" stop-color="#1C0E05"/>
</linearGradient>
<linearGradient id="paint116_linear" x1="13.35" y1="181.401" x2="13.2052" y2="187.917" gradientUnits="userSpaceOnUse">
<stop stop-color="#8C6239"/>
<stop offset="1" stop-color="#361B09"/>
</linearGradient>
<clipPath id="clip0">
<rect width="301.958" height="219.966" fill="white"/>
</clipPath>
</defs>
</svg>
