<svg viewBox="0 0 115 115" fill="none" xmlns="http://www.w3.org/2000/svg">
<rect x="1" y="1" width="113" height="113" rx="9" fill="#FFFFFA" className='background' stroke="#252525" stroke-width="2"/>
<path d="M0 81.0063H115V105C115 110.523 110.523 115 105 115H10C4.47715 115 0 110.523 0 105V81.0063Z" fill="#252525" className='bottom'/>
<path d="M32.6047 104.006C34.0273 104.006 35.2667 103.698 36.3227 103.082C37.3787 102.466 38.1927 101.594 38.7647 100.464C39.3367 99.3203 39.6227 97.9783 39.6227 96.4383C39.6227 94.9863 39.3587 93.7103 38.8307 92.6103C38.3027 91.4956 37.5107 90.623 36.4547 89.9923C35.4133 89.3616 34.1447 89.0463 32.6487 89.0463H26.4007V104.006H32.6047ZM32.6047 91.8403C33.734 91.8403 34.592 92.251 35.1787 93.0723C35.7653 93.8936 36.0587 95.0156 36.0587 96.4383C36.0587 98.0516 35.736 99.2543 35.0907 100.046C34.4453 100.838 33.5653 101.234 32.4507 101.234H29.8327V91.8403H32.6047ZM42.1272 104.006H45.5592V98.8143H48.2432L51.0372 104.006H54.8872L51.3892 97.8463C52.0932 97.4503 52.6506 96.915 53.0612 96.2403C53.4719 95.5656 53.6772 94.7883 53.6772 93.9083C53.6772 92.295 53.1126 91.085 51.9832 90.2783C50.8539 89.457 49.4092 89.0463 47.6492 89.0463H42.1272V104.006ZM47.5392 91.8183C48.3606 91.8183 48.9912 91.9943 49.4312 92.3463C49.8712 92.6983 50.0912 93.241 50.0912 93.9743C50.0912 94.6343 49.8566 95.155 49.3872 95.5363C48.9326 95.903 48.3312 96.0863 47.5832 96.0863H45.5592V91.8183H47.5392ZM63.3545 88.7163C61.8878 88.731 60.5825 89.0756 59.4385 89.7503C58.2945 90.425 57.3998 91.3563 56.7545 92.5443C56.1238 93.7323 55.8085 95.0816 55.8085 96.5923C55.8085 98.0296 56.1092 99.335 56.7105 100.508C57.3265 101.682 58.1992 102.613 59.3285 103.302C60.4725 103.977 61.8145 104.314 63.3545 104.314C64.8212 104.3 66.1265 103.962 67.2705 103.302C68.4145 102.628 69.3018 101.696 69.9325 100.508C70.5778 99.3203 70.9005 97.9636 70.9005 96.4383C70.9005 95.001 70.5998 93.6956 69.9985 92.5223C69.3972 91.349 68.5245 90.425 67.3805 89.7503C66.2512 89.061 64.9092 88.7163 63.3545 88.7163ZM59.3725 96.5703C59.3725 95.5876 59.5558 94.7223 59.9225 93.9743C60.2892 93.2116 60.7732 92.625 61.3745 92.2143C61.9905 91.8036 62.6652 91.5983 63.3985 91.5983C64.1905 91.5983 64.8798 91.811 65.4665 92.2363C66.0678 92.647 66.5298 93.219 66.8525 93.9523C67.1752 94.6856 67.3365 95.5143 67.3365 96.4383C67.3365 97.5236 67.1605 98.4403 66.8085 99.1883C66.4565 99.9363 65.9725 100.501 65.3565 100.882C64.7552 101.249 64.0805 101.432 63.3325 101.432C62.1152 101.432 61.1472 100.985 60.4285 100.09C59.7245 99.181 59.3725 98.0076 59.3725 96.5703ZM76.8405 99.2323H78.7325C79.8472 99.2323 80.8738 99.049 81.8125 98.6823C82.7658 98.301 83.5285 97.729 84.1005 96.9663C84.6725 96.2036 84.9585 95.265 84.9585 94.1503C84.9585 93.021 84.6872 92.075 84.1445 91.3123C83.6165 90.5496 82.8978 89.985 81.9885 89.6183C81.0792 89.237 80.0598 89.0463 78.9305 89.0463H73.4085V104.006H76.8405V99.2323ZM78.8205 91.8183C79.6272 91.8183 80.2505 92.0236 80.6905 92.4343C81.1452 92.845 81.3725 93.4463 81.3725 94.2383C81.3578 94.9276 81.1158 95.4776 80.6465 95.8883C80.1918 96.2843 79.5978 96.4823 78.8645 96.4823H76.8405V91.8183H78.8205ZM86.5839 98.5943L89.3119 99.5623L89.6859 88.4303H86.1879L86.5839 98.5943ZM87.9479 100.376C87.4346 100.376 87.0019 100.552 86.6499 100.904C86.2979 101.256 86.1219 101.689 86.1219 102.202C86.1219 102.701 86.2979 103.126 86.6499 103.478C87.0019 103.83 87.4346 104.006 87.9479 104.006C88.4612 104.006 88.8866 103.83 89.2239 103.478C89.5759 103.126 89.7519 102.701 89.7519 102.202C89.7519 101.689 89.5759 101.256 89.2239 100.904C88.8866 100.552 88.4612 100.376 87.9479 100.376Z" fill="#FFFFFA" className='text'/>
<path d="M50.6289 43.5409C50.5566 43.5409 50.5566 43.5409 50.6289 43.5409C49.544 40.7924 49.0377 39.2012 48.8931 38.1887C48.8931 38.261 48.8931 38.3333 48.9654 38.4056C48.9654 38.5503 49.0377 38.6949 49.0377 38.7673C49.11 38.9119 49.11 39.0566 49.1824 39.1289L50.6289 43.5409Z" fill="#FF0000"/>
<path d="M74.0628 63.0692C75.9433 64.8773 76.088 67.8427 74.2798 69.7232C73.3396 70.7358 72.11 71.2421 70.8081 71.2421C69.6509 71.2421 68.4937 70.8081 67.6257 69.9402L56.7767 59.8144C56.1981 59.3081 55.7641 58.6572 55.5471 57.9339L50.6289 43.5409L49.11 39.1289C49.0377 38.9842 49.0377 38.8396 48.9654 38.7673C48.9654 38.6226 48.893 38.478 48.893 38.4056C48.893 38.261 48.8207 38.1163 48.8207 38.044C48.8207 37.8993 48.8207 37.827 48.8207 37.6824V37.827C48.8207 36.5975 48.0974 38.7673 48.8207 40.9371C49.11 41.805 49.544 42.9622 49.9779 44.0471C47.3742 45.4214 38.9119 48.5314 33.849 49.4717L43.2515 62.8522C44.2641 64.2987 44.4088 66.1792 43.6132 67.6981C42.8176 69.2893 41.2264 70.2295 39.4182 70.2295H14.1037C11.5 70.1572 9.40247 68.0597 9.40247 65.4559C9.40247 62.8522 11.5 60.7547 14.1037 60.7547H30.3773L20.0345 46.1446C19.9622 46.0723 19.9622 46 19.8899 46C18.4433 43.8302 16.9968 37.3207 22.783 34.4276C28.5691 31.5346 48.8207 25.0251 51.7138 25.0251C54.1729 25.0251 56.632 25.5314 58.2232 27.0503C58.2232 26.978 58.2232 26.9056 58.2232 26.8333C58.2232 21.4088 62.7798 17.0692 68.349 17.0692C73.9182 17.0692 78.4748 21.4088 78.4748 26.8333C78.4748 32.2578 73.9182 36.5975 68.349 36.5975C64.7327 36.5975 61.5503 34.7893 59.7421 31.9685C59.6698 33.5597 59.3081 35.0786 58.9465 35.8742C58.8018 36.1635 58.5849 36.5975 58.2955 36.9591L64.154 53.8113L74.0628 63.0692Z" fill="#252525" className='person'/>
<path d="M104.73 39.4182L95.3271 50.2673L86.6478 39.4182H92.0724V36.5251H99.3051V39.4182H104.73ZM99.4497 24.9528H92.217V32.1855H99.4497V24.9528ZM99.4497 14.1038H92.217V21.3365H99.4497V14.1038Z" fill="#247249" className='arrow'/>
</svg>
