<svg viewBox="0 0 115 115" fill="none" xmlns="http://www.w3.org/2000/svg">
<rect x="1" y="1" width="113" height="113" rx="9" fill="#FFFFFA" className='background' stroke="#252525" stroke-width="2"/>
<path d="M0 81.0063H115V105C115 110.523 110.523 115 105 115H10C4.47715 115 0 110.523 0 105V81.0063Z" fill="#252525" className='bottom'/>
<path d="M19.9137 104.006V89.0463H16.4817V95.1843H10.9157V88.9143L7.48369 89.0463V104.006H10.9157V97.9123H16.4817V104.006H19.9137ZM30 88.7163C28.5333 88.731 27.228 89.0756 26.084 89.7503C24.94 90.425 24.0453 91.3563 23.4 92.5443C22.7693 93.7323 22.454 95.0816 22.454 96.5923C22.454 98.0296 22.7547 99.335 23.356 100.508C23.972 101.682 24.8447 102.613 25.974 103.302C27.118 103.977 28.46 104.314 30 104.314C31.4667 104.3 32.772 103.962 33.916 103.302C35.06 102.628 35.9473 101.696 36.578 100.508C37.2233 99.3203 37.546 97.9636 37.546 96.4383C37.546 95.001 37.2453 93.6956 36.644 92.5223C36.0427 91.349 35.17 90.425 34.026 89.7503C32.8967 89.061 31.5547 88.7163 30 88.7163ZM26.018 96.5703C26.018 95.5876 26.2013 94.7223 26.568 93.9743C26.9347 93.2116 27.4187 92.625 28.02 92.2143C28.636 91.8036 29.3107 91.5983 30.044 91.5983C30.836 91.5983 31.5253 91.811 32.112 92.2363C32.7133 92.647 33.1753 93.219 33.498 93.9523C33.8207 94.6856 33.982 95.5143 33.982 96.4383C33.982 97.5236 33.806 98.4403 33.454 99.1883C33.102 99.9363 32.618 100.501 32.002 100.882C31.4007 101.249 30.726 101.432 29.978 101.432C28.7607 101.432 27.7927 100.985 27.074 100.09C26.37 99.181 26.018 98.0076 26.018 96.5703ZM49.976 101.322H43.486V89.0463H40.054V104.006H50.372L49.976 101.322ZM58.59 104.006C60.0127 104.006 61.252 103.698 62.308 103.082C63.364 102.466 64.178 101.594 64.75 100.464C65.322 99.3203 65.608 97.9783 65.608 96.4383C65.608 94.9863 65.344 93.7103 64.816 92.6103C64.288 91.4956 63.496 90.623 62.44 89.9923C61.3987 89.3616 60.13 89.0463 58.634 89.0463H52.386V104.006H58.59ZM58.59 91.8403C59.7194 91.8403 60.5774 92.251 61.164 93.0723C61.7507 93.8936 62.044 95.0156 62.044 96.4383C62.044 98.0516 61.7214 99.2543 61.076 100.046C60.4307 100.838 59.5507 101.234 58.436 101.234H55.818V91.8403H58.59ZM79.4355 88.7163C77.9689 88.731 76.6635 89.0756 75.5195 89.7503C74.3755 90.425 73.4809 91.3563 72.8355 92.5443C72.2049 93.7323 71.8895 95.0816 71.8895 96.5923C71.8895 98.0296 72.1902 99.335 72.7915 100.508C73.4075 101.682 74.2802 102.613 75.4095 103.302C76.5535 103.977 77.8955 104.314 79.4355 104.314C80.9022 104.3 82.2075 103.962 83.3515 103.302C84.4955 102.628 85.3829 101.696 86.0135 100.508C86.6589 99.3203 86.9815 97.9636 86.9815 96.4383C86.9815 95.001 86.6809 93.6956 86.0795 92.5223C85.4782 91.349 84.6055 90.425 83.4615 89.7503C82.3322 89.061 80.9902 88.7163 79.4355 88.7163ZM75.4535 96.5703C75.4535 95.5876 75.6369 94.7223 76.0035 93.9743C76.3702 93.2116 76.8542 92.625 77.4555 92.2143C78.0715 91.8036 78.7462 91.5983 79.4795 91.5983C80.2715 91.5983 80.9609 91.811 81.5475 92.2363C82.1489 92.647 82.6109 93.219 82.9335 93.9523C83.2562 94.6856 83.4175 95.5143 83.4175 96.4383C83.4175 97.5236 83.2415 98.4403 82.8895 99.1883C82.5375 99.9363 82.0535 100.501 81.4375 100.882C80.8362 101.249 80.1615 101.432 79.4135 101.432C78.1962 101.432 77.2282 100.985 76.5095 100.09C75.8055 99.181 75.4535 98.0076 75.4535 96.5703ZM92.9215 104.006V95.0743L99.2575 104.006H102.558V89.0463H99.1255V98.0883L92.7895 89.0463H89.4895V104.006H92.9215ZM105.501 98.5943L108.229 99.5623L108.603 88.4303H105.105L105.501 98.5943ZM106.865 100.376C106.352 100.376 105.919 100.552 105.567 100.904C105.215 101.256 105.039 101.689 105.039 102.202C105.039 102.701 105.215 103.126 105.567 103.478C105.919 103.83 106.352 104.006 106.865 104.006C107.378 104.006 107.804 103.83 108.141 103.478C108.493 103.126 108.669 102.701 108.669 102.202C108.669 101.689 108.493 101.256 108.141 100.904C107.804 100.552 107.378 100.376 106.865 100.376Z" fill="#FFFFFA" className='text'/>
<path d="M21.698 22.783H14.4653V71.2421H21.698V22.783Z" fill="#6F4C23" className='table'/>
<path d="M100.535 22.783H93.3019V71.2421H100.535V22.783Z" fill="#6F4C23" className='table'/>
<path d="M100.535 10.4874H14.4653V21.3365H100.535V10.4874Z" fill="#6F4C23" className='table'/>
<path d="M85.9245 50.2673C84.1887 51.6415 82.0189 52.4371 79.5597 52.4371C79.1981 52.4371 78.9088 52.4371 78.5472 52.3648L70.7358 46.217L85.9245 50.2673ZM79.6321 32.9088L89.3962 40.3585C88.3113 36.0912 84.3333 32.9088 79.6321 32.9088ZM92.5063 44.7704C92.5063 44.6258 92.4339 44.5535 92.4339 44.4088C92.2893 43.9025 92.0723 43.4686 91.8553 43.0346C91.783 42.8899 91.7107 42.8176 91.6384 42.7453C91.566 42.673 91.4937 42.6006 91.4214 42.5283C91.2044 42.3113 90.9874 42.0943 90.6981 41.8774L75.5094 30.305C73.4119 28.7138 70.5189 29.1478 68.9277 31.173C67.9874 32.4025 67.7704 33.9937 68.2044 35.3679C72.978 36.8868 77.4623 39.4906 78.8365 40.8648C80.283 42.3113 78.1132 40.8648 75.9434 39.4182C73.8459 38.044 66.9748 35.2233 64.588 35.0786C64.5157 35.0786 64.4434 35.0786 64.3711 35.0786C62.9968 35.0786 62.2013 35.0786 60.1761 35.0786C58.8742 35.0786 57.4277 35.1509 55.8365 35.1509C55.7642 35.1509 55.6918 35.1509 55.6195 35.1509C50.195 35.2956 43.7579 35.6572 40.5031 36.4528C36.2358 37.5377 32.5472 40.0692 31.8239 44.4088C31.3176 47.5912 32.3302 49.544 33.1981 50.7013C33.4151 51.0629 33.6321 51.3522 33.9214 51.7138L41.805 59.5975H28.5692C25.9654 59.5975 23.8679 61.695 23.8679 64.2987C23.8679 66.9025 25.9654 69 28.5692 69H53.1604C55.0409 69 56.7767 67.8428 57.5 66.1069C58.2233 64.3711 57.8616 62.3459 56.4874 60.9717L47.8805 52.3648C49.0377 52.3648 49.978 52.3648 50.6289 52.3648C52.6541 52.3648 55.1855 52.3648 57.8616 51.8585C59.9591 51.4245 62.2013 50.7736 64.3711 49.4717C66.3962 48.3145 67.7704 46.7956 68.566 45.2044L86.6478 50.0503C86.7201 50.0503 86.7924 50.1226 86.8648 50.1226C86.9371 50.1226 87.0094 50.1226 87.1541 50.195C87.2264 50.195 87.3711 50.195 87.4434 50.195C87.588 50.195 87.6604 50.195 87.805 50.195C88.0943 50.195 88.3113 50.195 88.6006 50.1226C88.7453 50.1226 88.8176 50.0503 88.9623 50.0503C89.0346 50.0503 89.1069 50.0503 89.1792 49.978C89.2516 49.978 89.3239 49.9057 89.3962 49.9057C89.9025 49.761 90.3365 49.4717 90.6981 49.1824C90.7704 49.1101 90.8428 49.0377 90.9151 49.0377C90.9874 48.9654 91.1321 48.8208 91.2044 48.7484C91.3491 48.6038 91.4214 48.5314 91.4937 48.3868C91.566 48.3145 91.6384 48.2421 91.7107 48.0975C91.783 47.9528 91.8553 47.8805 91.9277 47.8082C92.0723 47.5912 92.1447 47.3742 92.2893 47.0849C92.3616 46.9403 92.3616 46.7956 92.4339 46.7233C92.4339 46.6509 92.5063 46.5786 92.5063 46.434C92.5063 46.3616 92.5063 46.2893 92.5786 46.1447C92.5786 46.0723 92.5786 45.9277 92.6509 45.8553C92.6509 45.7107 92.6509 45.6384 92.6509 45.4937C92.5786 45.3491 92.5786 45.0597 92.5063 44.7704ZM99.739 54.0283C99.2327 51.4969 96.7013 49.8333 94.1698 50.412L78.9088 53.522L69.3616 46.3616C67.8428 48.2421 65.1667 50.7736 61.1163 51.9308L75.0031 62.3459C75.7987 62.9245 76.8113 63.2862 77.8239 63.2862C78.1132 63.2862 78.4748 63.2862 78.7641 63.2138L96.1226 59.5975C98.5817 59.0189 100.245 56.5597 99.739 54.0283Z" fill="#252525" className='person'/>
<path d="M86.5754 47.8805C86.7201 47.6635 86.7924 47.4466 86.9371 47.1573C86.7924 47.3742 86.6478 47.6635 86.5754 47.8805Z" fill="#FF0000"/>
<path d="M54.7515 35.0786C53.7389 35.0786 52.3647 35.1509 50.4119 35.1509C52.0031 35.1509 53.4496 35.1509 54.7515 35.0786Z" fill="#FF00FF"/>
</svg>
