<svg viewBox="0 0 390 225" fill="none" xmlns="http://www.w3.org/2000/svg">
<rect x="4" y="1" width="383" height="223" rx="6" fill="#EFF3EF" className='background' stroke="#323232" stroke-width="2"/>
<path d="M362.873 195.414C362.111 197 358.682 197 355.254 197H351.825C351.634 192.162 347.786 188.275 343.062 188.275C338.376 188.275 334.49 192.162 334.3 197H302.297C302.107 192.162 298.259 188.275 293.535 188.275C288.849 188.275 284.963 192.162 284.772 197H274.105C273.114 197 272.924 195.612 273.038 194.224H273C273 194.224 274.943 183.992 276.01 182.327C277.381 180.185 282.906 181.573 285.496 178.083C285.763 177.687 286.03 177.29 286.296 176.775C286.563 176.299 286.753 175.862 286.982 175.426V175.387C288.087 173.483 288.392 173.047 289.344 171.976C290.03 171.183 290.716 170.588 291.439 170.072C294.83 167.733 298.64 168.01 301.116 168.01H326.261C327.785 168.01 330.452 169.993 331.976 171.579C333.5 173.166 338.071 178.718 339.214 178.718C340.357 178.718 350.263 179.908 355.597 183.873C360.93 187.839 363.635 193.827 362.873 195.414Z" fill="#3EA9DF"/>
<path d="M276.923 197H273.948C273.098 197 272.935 195.033 273.033 193.066H273C273 193.066 273.131 191.886 273.36 190.087C274.177 189.975 275.157 189.918 275.909 190.256C276.89 190.649 277.151 194.583 276.923 197Z" fill="#3EA9DF"/>
<path d="M362.893 195.135C362.469 196.362 361.164 196.853 359.501 197C358.49 195.233 359.142 191.994 360.283 190.227C360.675 189.638 361.197 189.245 361.719 189C362.795 191.748 363.219 194.153 362.893 195.135Z" fill="#D1D2D4"/>
<path d="M212 14V88H153.677C150.538 88 148 85.4605 148 82.3203V19.6797C148 16.5395 150.538 14 153.677 14H212Z" fill="#333333"/>
<path d="M179 14H177V87H179V14Z" fill="#F9A823"/>
<path d="M175 14H173V87H175V14Z" fill="#F9A823"/>
<path d="M212 14V88H238.311C241.456 88 244 85.4605 244 82.3203V19.6797C244 16.5395 241.456 14 238.311 14H212Z" fill="#B4C49B"/>
<path d="M375 82.8043C373.369 85.3217 372.038 87 372.038 87L334.803 79.9621C334.803 78.3651 334.341 73.4115 334.096 68.3226L315.207 76.3891C314.691 76.6056 314.147 76.7139 313.604 76.7139C312.924 76.7139 312.245 76.5515 311.647 76.2266C310.56 75.6311 309.799 74.5755 309.581 73.3303L303.058 34.3513C302.678 32.1317 304.2 30.0474 306.401 29.6685C308.63 29.2895 310.723 30.8053 311.103 32.9979L316.756 66.8879L334.042 59.4982C334.069 59.038 334.123 58.6049 334.178 58.1718C330.835 59.8501 326.649 60.0666 322.736 58.4425C315.941 55.6274 312.544 48.2917 315.153 42.093C317.762 35.8943 325.372 33.1332 332.167 35.9484C336.624 37.8161 339.614 41.6058 340.402 45.7473C340.429 45.7473 340.456 45.7202 340.456 45.7202C340.674 45.6119 340.918 45.5037 341.163 45.4224H341.19C341.271 45.3954 341.353 45.3412 341.462 45.3142H341.434C342.44 44.8811 344.424 44.2856 348.093 43.9607C354.344 43.4194 348.093 43.4194 344.832 43.69C342.522 43.8795 341.081 43.6088 340.402 43.3652C340.293 43.0945 340.184 42.8509 340.076 42.5802C338.581 39.332 335.863 36.7605 332.411 35.3258C330.509 34.5408 328.552 34.1619 326.649 34.1619C323.904 34.1619 321.268 34.9469 319.094 36.3544L312.381 32.5919C310.424 31.4821 309.717 29.0188 310.831 27.0699C311.946 25.1209 314.419 24.4171 316.376 25.5269L336.733 36.9499L339.45 37.0853C340.266 37.2748 341.326 37.4101 342.658 37.4642C352.523 37.8703 363.585 40.4418 369.836 50.1865C373.695 56.1687 374.864 76.0913 375 82.8043Z" fill="black" className='person'/>
<path d="M266.163 63.8815C264 66.6222 266.433 69.363 282.113 72.9259C297.792 76.4889 352.13 88 352.13 88L268.055 87.7259C267.325 87.5067 266.487 87.0682 265.595 86.2459C264.676 85.4237 264.216 84.4644 264 83.6148V67.4444C264 54.2889 264.135 41.8185 264.135 41.8185C264.135 41.8185 288.871 19.4815 300.225 14H327.259C297.305 26.0867 273.948 54.0696 267.623 62.0178C268.136 62.8948 269.623 64.8133 273.327 66.4852C279.869 69.4452 290.601 72.2681 305.226 74.8444C337.775 80.5726 368.079 86.4926 375 87.863H366.403C353.643 85.3963 329.962 80.8741 304.956 76.4889C289.412 73.7481 278.22 70.7333 271.678 67.5541C268.623 66.0467 267.19 64.4844 266.541 63.4156C266.406 63.58 266.271 63.7444 266.163 63.8815Z" fill="black" className='door-frame'/>
<path d="M302.848 34C302.041 34.2751 292.895 40.8778 289.667 43.629C286.44 46.3801 283.75 51.6073 284.019 53.8082C284.288 56.0091 287.515 59.8607 288.322 60.6861C289.129 61.5114 291.55 60.6861 295.047 58.4851C298.544 56.2842 300.427 54.9087 300.427 54.9087L305 51.8824L302.848 34ZM291.873 56.1467C289.99 56.6144 287.973 54.8261 287.354 52.1575C286.735 49.4889 287.758 46.9579 289.614 46.5177C291.497 46.05 293.514 47.8382 294.133 50.5068C294.778 53.1479 293.756 55.679 291.873 56.1467ZM299.351 52.3776C297.28 52.8728 295.101 51.0296 294.429 48.2234C293.783 45.4172 294.913 42.7486 296.957 42.2534C299.028 41.7582 301.207 43.6015 301.88 46.4076C302.552 49.1863 301.395 51.8824 299.351 52.3776Z" fill="black" className='gauge-cluster'/>
<path d="M293.969 52L290.193 51.3299C290.039 51.3096 289.977 51.2081 290.008 51.1269C290.039 51.0254 290.193 50.9848 290.317 51.0051H290.348L294 51.9594C294 51.9594 294 51.9797 293.969 52C293.969 52 294 52 293.969 52Z" fill="black"/>
<path d="M297.013 49.9645L298.523 47.1174C298.584 47.0193 298.735 46.9702 298.856 47.0193C298.976 47.0683 299.037 47.1911 298.976 47.2892V47.3138L297.044 49.9891C297.044 49.9891 297.013 50.0136 297.013 49.9891C297.013 49.9891 296.983 49.9645 297.013 49.9645Z" fill="black"/>
<path d="M308 68C307.022 66.9121 306.125 65.8241 305.337 64.709L305.12 64.9266C305.12 64.9266 301.588 66.5585 300.501 66.2865C299.414 66.0145 298.327 64.6546 297.512 63.0227C296.697 61.3908 296.969 59.2149 297.539 58.0181L300.908 55.6247C300.446 53.8568 300.175 52.0345 300.093 50.1578C299.903 45.6428 301.262 41.1822 303.001 38L303.843 43.0317C303.164 45.1804 302.729 47.6011 302.81 50.049C303.001 54.4551 304.359 58.4805 307.076 62.4787L308 68Z" fill="#6F4C23" className='steering-wheel'/>
<path d="M369.671 88H269.329C265.825 88 263 85.1467 263 81.6685V19.3315C263 15.8533 265.852 13 269.329 13H369.671C373.175 13 376 15.8533 376 19.3315V81.6685C376 85.1467 373.148 88 369.671 88ZM269.329 14.3587C266.586 14.3587 264.358 16.587 264.358 19.3315V81.6685C264.358 84.413 266.586 86.6413 269.329 86.6413H369.671C372.414 86.6413 374.642 84.413 374.642 81.6685V19.3315C374.642 16.587 372.414 14.3587 369.671 14.3587H269.329Z" fill="black" className='sub-img-outline'/>
<path d="M238.669 88H154.331C150.826 88 148 85.1467 148 81.6685V19.3315C148 15.8261 150.853 13 154.331 13H238.669C242.147 13 245 15.8533 245 19.3315V81.6685C245 85.1467 242.147 88 238.669 88ZM154.331 14.3587C151.587 14.3587 149.359 16.587 149.359 19.3315V81.6685C149.359 84.413 151.587 86.6413 154.331 86.6413H238.669C241.413 86.6413 243.641 84.413 243.641 81.6685V19.3315C243.641 16.587 241.413 14.3587 238.669 14.3587H154.331Z" fill="black" className='sub-img-outline'/>
<path d="M124.66 88H20.3398C16.857 88 14 85.1467 14 81.6685V19.3315C14 15.8533 16.857 13 20.3398 13H124.66C128.143 13 131 15.8533 131 19.3315V81.6685C131 85.1467 128.143 88 124.66 88ZM20.3398 14.3587C17.5916 14.3587 15.3605 16.587 15.3605 19.3315V81.6685C15.3605 84.413 17.5916 86.6413 20.3398 86.6413H124.66C127.408 86.6413 129.64 84.413 129.64 81.6685V19.3315C129.64 16.587 127.408 14.3587 124.66 14.3587H20.3398Z" fill="black" className='sub-img-outline'/>
<path d="M227.693 57.7414C226.061 59.6453 218.721 59.9173 217.905 59.9173C217.09 59.9173 210.565 59.3733 209.205 58.2854C207.846 57.1974 207.03 54.7496 207.03 54.4776C207.03 54.2056 207.03 53.3896 207.03 53.3896C207.03 53.6616 207.302 56.3815 209.477 57.5782C210.918 58.367 214.153 58.7749 216.464 58.9653C216.627 59.0469 216.845 59.1013 217.171 59.1013C217.334 59.1013 217.633 59.1013 218.041 59.0741C218.449 59.1013 218.748 59.1013 218.911 59.1013C219.21 59.1013 219.428 59.0469 219.591 58.9653C221.902 58.7749 225.137 58.367 226.578 57.5782C228.753 56.3815 229.025 53.6616 229.025 53.3896C229.052 53.3896 229.324 55.8375 227.693 57.7414Z" fill="#D1D2D4"/>
<path d="M226.333 17.7598C224.43 16.3999 217.905 16.1279 217.905 16.1279C217.905 16.1279 211.652 16.3999 209.749 17.7598C207.846 19.1198 207.03 22.1116 207.03 24.5594C207.03 24.5594 207.03 53.1178 207.03 53.3897C207.03 53.6617 207.302 56.3816 209.477 57.5783C210.918 58.367 214.153 58.775 216.464 58.9654C216.627 59.047 216.845 59.1014 217.144 59.1014C217.307 59.1014 217.606 59.1014 218.014 59.0742C218.422 59.1014 218.721 59.1014 218.884 59.1014C219.183 59.1014 219.401 59.047 219.564 58.9654C221.875 58.775 225.11 58.367 226.551 57.5783C228.726 56.3816 228.998 53.6617 228.998 53.3897C228.998 53.1178 228.998 24.5594 228.998 24.5594C229.052 22.1116 228.236 19.1198 226.333 17.7598Z" fill="#3EA9DF"/>
<path d="M227.584 19.0654C225.192 17.8958 221.875 16.8079 217.906 16.9439C212.713 17.1071 209.777 18.4126 208.309 19.3917C208.689 18.739 209.179 18.1678 209.75 17.7598C211.653 16.3999 217.906 16.1279 217.906 16.1279C217.906 16.1279 224.431 16.3999 226.334 17.7598C226.823 18.1134 227.231 18.5486 227.584 19.0654Z" fill="#3EA9DF"/>
<path d="M207.846 29.7271H208.662C208.662 29.7271 210.837 32.7189 210.837 33.8068C210.837 34.8947 210.837 40.0624 210.837 40.0624H208.118C208.118 40.0624 207.846 34.3508 207.846 29.7271Z" fill="#666666"/>
<path d="M208.118 40.6064H210.837V48.494L208.39 49.3099C208.39 49.3099 208.118 45.7741 208.118 44.1422C208.118 42.5103 208.118 40.6064 208.118 40.6064Z" fill="#666666"/>
<path d="M208.39 49.854L210.836 49.0381C210.836 49.0381 211.108 49.854 210.565 50.67C210.021 51.4859 209.749 52.0299 209.477 52.3019C209.205 52.5739 209.042 52.2747 208.933 52.0299C208.662 51.4859 208.39 49.854 208.39 49.854Z" fill="#666666"/>
<path d="M228.237 29.7271H227.421C227.421 29.7271 225.246 32.7189 225.246 33.8068C225.246 34.8947 225.246 40.0624 225.246 40.0624H227.965C227.965 40.0624 228.237 34.3508 228.237 29.7271Z" fill="#666666"/>
<path d="M227.965 40.6064H225.246V48.494L227.693 49.3099C227.693 49.3099 227.965 45.7741 227.965 44.1422C227.965 42.5103 227.965 40.6064 227.965 40.6064Z" fill="#666666"/>
<path d="M227.693 49.854L225.246 49.0381C225.246 49.0381 224.974 49.854 225.518 50.67C226.062 51.4859 226.334 52.0299 226.606 52.3019C226.877 52.5739 227.041 52.2747 227.149 52.0299C227.421 51.4859 227.693 49.854 227.693 49.854Z" fill="#666666"/>
<path d="M226.877 54.0153C226.605 53.4713 224.974 51.0235 224.702 50.7515C224.43 50.4795 224.43 50.2075 223.615 50.2075C222.799 50.2075 218.721 50.4795 218.177 50.4795C217.633 50.4795 213.555 50.2075 212.74 50.2075C211.924 50.2075 211.924 50.4795 211.652 50.7515C211.38 51.0235 209.749 53.4713 209.477 54.0153C209.205 54.5593 209.749 55.1032 212.468 55.3752C215.187 55.6472 216.818 55.6472 218.177 55.6472C219.537 55.6472 221.168 55.6472 223.887 55.3752C226.605 55.1032 227.149 54.5593 226.877 54.0153Z" fill="#666666"/>
<path d="M223.343 49.582H212.74C212.142 49.582 211.652 49.0924 211.652 48.4941V34.0789C211.652 33.4805 212.142 32.991 212.74 32.991H223.343C223.941 32.991 224.43 33.4805 224.43 34.0789V48.5213C224.43 49.0924 223.941 49.582 223.343 49.582Z" fill="#64AFE0"/>
<path d="M208.662 29.7271L205.127 30.2711C205.127 30.2711 205.236 29.8087 205.399 29.4551C205.671 28.9112 207.031 28.9112 207.031 28.9112C207.031 28.9112 208.118 28.6392 208.39 28.9112C208.662 29.1831 208.662 29.7271 208.662 29.7271Z" fill="#D1D2D4"/>
<path d="M227.421 29.7271L230.955 30.2711C230.955 30.2711 230.847 29.8087 230.683 29.4551C230.412 28.9112 229.052 28.9112 229.052 28.9112C229.052 28.9112 227.965 28.6392 227.693 28.9112C227.421 29.1831 227.421 29.7271 227.421 29.7271Z" fill="#D1D2D4"/>
<path d="M209.641 56.164L209.478 54.2874H226.877L226.334 57.7143C226.334 57.7143 222.527 59.0743 218.178 59.0743C213.828 59.0743 211 58.0679 211 58.0679L209.641 56.164Z" fill="#64AFE0"/>
<path d="M208.39 56.6536C208.39 56.6536 209.477 55.5656 210.837 56.3816C212.196 57.1975 211.924 58.2855 211.924 58.2855C211.924 58.2855 210.293 58.0135 209.749 57.7415C209.205 57.4695 208.39 56.6536 208.39 56.6536Z" fill="#FEC612"/>
<path d="M227.72 56.6536C227.72 56.6536 226.633 55.5656 225.273 56.3816C223.914 57.1975 224.186 58.2855 224.186 58.2855C224.186 58.2855 225.817 58.0135 226.361 57.7415C226.905 57.4695 227.72 56.6536 227.72 56.6536Z" fill="#FEC612"/>
<path d="M227.883 27.8232C227.883 27.8232 227.883 25.6473 227.611 23.1995C227.339 20.7516 226.524 18.5758 226.524 18.5758C226.524 18.5758 222.718 16.9438 218.368 16.9438C218.286 16.9438 218.204 16.9438 218.15 16.971C218.069 16.971 218.014 16.9438 217.933 16.9438C213.583 16.9438 209.776 18.5758 209.776 18.5758C209.776 18.5758 208.961 20.7516 208.689 23.1995C208.417 25.6473 208.417 27.8232 208.417 27.8232L218.15 27.3336L227.883 27.8232Z" fill="#64AFE0"/>
<path d="M218.313 25.9194C218.259 25.9194 218.232 25.9194 218.177 25.9194C218.123 25.9194 218.096 25.9194 218.041 25.9194C215.323 25.9194 208.526 27.2794 208.526 27.8233C208.526 28.3673 209.613 29.7272 210.429 30.8151C211.245 31.9031 211.788 32.447 212.332 32.447C212.876 32.447 216.954 32.447 218.041 32.447C218.096 32.447 218.123 32.447 218.177 32.447C218.232 32.447 218.259 32.447 218.313 32.447C219.401 32.447 223.479 32.447 224.023 32.447C224.566 32.447 225.11 31.9031 225.926 30.8151C226.741 29.7272 227.829 28.3673 227.829 27.8233C227.829 27.2794 221.032 25.9194 218.313 25.9194Z" fill="#666666"/>
<path d="M227.584 19.0654C225.192 17.8958 221.875 16.8079 217.906 16.9439C212.713 17.1071 209.777 18.4126 208.309 19.3917C208.689 18.739 209.179 18.1678 209.75 17.7598C211.653 16.3999 217.906 16.1279 217.906 16.1279C217.906 16.1279 224.431 16.3999 226.334 17.7598C226.823 18.1134 227.231 18.5486 227.584 19.0654Z" fill="#D1D2D4"/>
<path d="M335.225 178H332.562C331.962 178 331.362 178 330.725 178C322.212 178 314 177.966 314 177.966V170C314 170 324.425 170 326.6 170C328.362 170 331.887 173.779 333.462 175.243C333.462 175.243 333.462 175.243 333.5 175.277C333.762 175.481 335.225 176.638 335.562 176.979C336.35 177.66 335.975 178 335.225 178Z" fill="#666666"/>
<path d="M314 177.966V170H299.089L297 178C297 178 302.612 177.966 306.217 177.966C309.781 177.966 314 177.966 314 177.966Z" fill="#666666"/>
<path d="M295.97 177.916L298 170C298 170 293.343 170.404 291.592 171.853C289.84 173.301 288.806 175.592 288.248 176.299C287.651 177.006 288.248 177.343 288.806 177.579C290.398 178.253 295.97 177.916 295.97 177.916Z" fill="#666666"/>
<path d="M338 181.558V189.729C336.04 191.249 334.68 193.492 334.44 196H315.6C314.72 196 314 195.316 314 194.48V181.52C314 180.684 314.72 180 315.6 180H336.4C337.28 180.038 338 180.722 338 181.558Z" fill="#64AFE0"/>
<path d="M312 181.487V194.476C312 195.314 311.359 196 310.575 196H303.021C302.665 192.305 300.242 189.258 297 188.115V181.525C297 180.687 297.641 180.002 298.425 180.002H310.575C311.359 179.963 312 180.649 312 181.487Z" fill="#64AFE0"/>
<path d="M276.407 190.667C275.586 192.603 273.903 192.007 273 191.486C273.493 189.438 274.272 186.123 275.011 184C275.216 184.149 278.254 186.384 276.407 190.667Z" fill="#FEC612"/>
<path d="M361 189.894C360.635 190.557 359.765 191.693 358.585 190.43C356.339 187.999 357.069 185.6 357.293 185C357.574 185.253 357.827 185.505 358.08 185.758C358.08 185.758 358.08 185.789 358.108 185.789C358.389 186.137 358.726 186.515 359.034 186.831C359.034 186.831 359.034 186.831 359.062 186.863C359.849 187.873 360.523 188.915 361 189.894Z" fill="#FEC612"/>
<path d="M72.3169 76.3724C85.6804 76.3724 96.5137 65.5347 96.5137 52.1658C96.5137 38.7969 85.6804 27.9592 72.3169 27.9592C58.9534 27.9592 48.1201 38.7969 48.1201 52.1658C48.1201 65.5347 58.9534 76.3724 72.3169 76.3724Z" fill="#EFF3EF"/>
<path d="M57.2008 71.0685C54.1286 77.7321 47.3861 82.3559 39.5562 82.3559C28.8172 82.3559 20.1172 73.6524 20.1172 62.909C20.1172 52.1656 28.8172 43.4622 39.5562 43.4622C42.9546 43.4622 46.1627 44.3325 48.9358 45.8828C48.3921 47.8955 48.1202 49.9898 48.1202 52.1656C48.1202 59.8084 51.6817 66.6352 57.2008 71.0685Z" fill="#EFF3EF"/>
<path d="M39.5562 83.0359C28.4637 83.0359 19.4375 74.006 19.4375 62.909C19.4375 51.8121 28.4637 42.7822 39.5562 42.7822C42.9546 42.7822 46.3258 43.6526 49.2893 45.2845L49.7514 45.5293L49.6155 46.046C49.0718 48.0315 48.7999 50.0714 48.7999 52.1657C48.7999 59.3461 52.008 66.0369 57.6358 70.5246L58.0436 70.851L57.8261 71.3405C54.5364 78.4393 47.3589 83.0359 39.5562 83.0359ZM39.5562 44.1421C29.225 44.1421 20.7969 52.5737 20.7969 62.909C20.7969 73.2444 29.225 81.6759 39.5562 81.6759C46.6793 81.6759 53.2042 77.5962 56.358 71.259C50.6758 66.4992 47.4405 59.5908 47.4405 52.1657C47.4405 50.153 47.6852 48.1675 48.1474 46.2364C45.5102 44.8493 42.5468 44.1421 39.5562 44.1421Z" fill="black"/>
<path d="M124.788 62.6371C124.788 73.5164 115.952 82.3559 105.077 82.3559C97.2475 82.3559 90.4778 77.7866 87.2969 71.1773C92.8975 66.744 96.5134 59.89 96.5134 52.1657C96.5134 49.7994 96.1871 47.5419 95.5347 45.3661C98.3621 43.7886 101.597 42.9182 105.077 42.9182C115.952 42.9182 124.788 51.7577 124.788 62.6371Z" fill="#EFF3EF"/>
<path d="M105.077 83.036C97.2747 83.036 90.07 78.4938 86.6988 71.4767L86.4541 70.9871L86.8891 70.6607C92.5713 66.1458 95.8338 59.4006 95.8338 52.1658C95.8338 49.9083 95.5075 47.7053 94.8822 45.5566L94.7191 45.0398L95.1813 44.7678C98.1719 43.1087 101.597 42.2112 105.05 42.2112C116.306 42.2112 125.441 51.3498 125.441 62.61C125.441 73.8701 116.333 83.036 105.077 83.036ZM88.1669 71.3679C91.4022 77.6507 98.0087 81.6761 105.077 81.6761C115.572 81.6761 124.109 73.1358 124.109 62.6372C124.109 52.1386 115.572 43.5983 105.077 43.5983C102.032 43.5983 99.0419 44.3327 96.3503 45.7198C96.9212 47.8141 97.1931 49.9899 97.1931 52.1658C97.1931 59.6454 93.9034 66.6081 88.1669 71.3679Z" fill="black"/>
<path d="M94.5834 61.6851C90.8859 70.3342 82.3219 76.3722 72.317 76.3722C70.0604 76.3722 67.8582 76.073 65.792 75.4747V61.6851H94.5834Z" fill="#979797"/>
<path d="M94.5834 61.6851C90.8859 70.3342 82.3219 76.3722 72.317 76.3722C70.0604 76.3722 67.8582 76.073 65.792 75.4747V61.6851H94.5834Z" fill="#979797"/>
<path d="M58.723 68.3489C58.5599 68.3489 58.3968 68.2945 58.288 68.1857C53.639 64.1059 50.9746 58.2311 50.9746 52.0571C50.9746 40.1986 60.5989 30.5703 72.4526 30.5703C84.3063 30.5703 93.9307 40.1986 93.9307 52.0571C93.9307 53.3082 93.8219 54.5865 93.6044 55.8376C93.55 56.2184 93.1966 56.4632 92.816 56.3816C92.4354 56.3272 92.1907 55.9736 92.2722 55.5928C92.4897 54.4233 92.5713 53.2266 92.5713 52.0299C92.5713 40.9329 83.5451 31.903 72.4526 31.903C61.3602 31.903 52.334 40.9329 52.334 52.0299C52.334 57.8231 54.8352 63.3172 59.1852 67.1522C59.4571 67.397 59.4843 67.8321 59.2396 68.1041C59.1036 68.2673 58.9133 68.3489 58.723 68.3489Z" fill="black"/>
<path d="M93.2512 52.5738H89.7168C89.3362 52.5738 89.0371 52.2746 89.0371 51.8938C89.0371 51.5131 89.3362 51.2139 89.7168 51.2139H93.2512C93.6318 51.2139 93.9308 51.5131 93.9308 51.8938C93.9308 52.2746 93.6318 52.5738 93.2512 52.5738Z" fill="black"/>
<path d="M73.1323 35.4387C72.7517 35.4387 72.4526 35.1395 72.4526 34.7587V31.2229C72.4526 30.8422 72.7517 30.543 73.1323 30.543C73.5129 30.543 73.812 30.8422 73.812 31.2229V34.7587C73.812 35.1395 73.5129 35.4387 73.1323 35.4387Z" fill="black"/>
<path d="M55.7326 52.5738H52.1982C51.8176 52.5738 51.5186 52.2746 51.5186 51.8938C51.5186 51.5131 51.8176 51.2139 52.1982 51.2139H55.7326C56.1132 51.2139 56.4123 51.5131 56.4123 51.8938C56.4123 52.2746 56.1132 52.5738 55.7326 52.5738Z" fill="black"/>
<path d="M53.1496 59.2373C52.8777 59.2373 52.633 59.0742 52.5243 58.8294C52.3883 58.4758 52.5515 58.095 52.9049 57.9318L56.1674 56.5719C56.5208 56.4359 56.9014 56.5991 57.0646 56.9527C57.2005 57.3063 57.0374 57.687 56.6839 57.8502L53.4215 59.2101C53.3127 59.2101 53.2311 59.2373 53.1496 59.2373Z" fill="black"/>
<path d="M88.4933 46.1819C88.2214 46.1819 87.9768 46.0187 87.868 45.7739C87.7321 45.4204 87.8952 45.0396 88.2486 44.8764L91.5111 43.5165C91.8646 43.3805 92.2452 43.5437 92.4083 43.8973C92.5442 44.2508 92.3811 44.6316 92.0277 44.7948L88.7652 46.1547C88.6564 46.1547 88.5749 46.1819 88.4933 46.1819Z" fill="black"/>
<path d="M85.0134 40.688C84.8231 40.688 84.6328 40.6064 84.4968 40.4704C84.2521 40.1984 84.2793 39.7632 84.5512 39.5184L87.1884 37.1522C87.4603 36.9074 87.8953 36.9346 88.1399 37.2066C88.3846 37.4786 88.3574 37.9137 88.0856 38.1585L85.4484 40.5248C85.3125 40.6336 85.1765 40.688 85.0134 40.688Z" fill="black"/>
<path d="M121.281 74.278C121.118 74.278 120.982 74.2236 120.846 74.1148L117.312 71.2318C117.013 70.987 116.986 70.5791 117.203 70.2799C117.448 69.9807 117.856 69.9535 118.155 70.1711L121.716 73.0541C122.015 73.2989 122.043 73.7069 121.825 74.0061C121.689 74.1964 121.472 74.278 121.281 74.278Z" fill="black"/>
<path d="M124.652 62.0659L120.058 62.0115C119.677 62.0115 119.378 61.7123 119.378 61.3316C119.378 60.9508 119.704 60.6516 120.058 60.6516L124.625 60.706C125.006 60.706 125.305 61.0052 125.305 61.386C125.332 61.7667 125.033 62.0659 124.652 62.0659Z" fill="black"/>
<path d="M116.007 53.0906C115.817 53.0906 115.626 53.009 115.49 52.873C115.246 52.601 115.273 52.1658 115.545 51.9211L118.97 48.8748C119.242 48.63 119.677 48.6572 119.922 48.9292C120.167 49.2012 120.14 49.6364 119.868 49.8812L116.442 52.9274C116.333 53.0362 116.17 53.0906 116.007 53.0906Z" fill="black"/>
<path d="M57.0105 45.0941C56.929 45.0941 56.8474 45.0669 56.7387 45.0397L53.4762 43.6798C53.1227 43.5438 52.9596 43.1358 53.0956 42.7823C53.2315 42.4287 53.6393 42.2655 53.9927 42.4015L57.2552 43.7614C57.6087 43.8974 57.7718 44.3054 57.6358 44.659C57.5271 44.9309 57.2824 45.0941 57.0105 45.0941Z" fill="black"/>
<path d="M61.0344 39.872C60.8712 39.872 60.7081 39.8176 60.5722 39.7089L57.935 37.3426C57.6631 37.0978 57.6359 36.6626 57.8806 36.3906C58.1253 36.1187 58.5603 36.0915 58.8322 36.3363L61.4693 38.7025C61.7412 38.9473 61.7684 39.3825 61.5237 39.6545C61.415 39.8176 61.2247 39.872 61.0344 39.872Z" fill="black"/>
<path d="M57.0105 65.9824C56.8201 65.9824 56.6298 65.9008 56.4939 65.7648C56.2492 65.4928 56.2764 65.0576 56.5483 64.8129L59.1854 62.4466C59.4573 62.2018 59.8923 62.229 60.137 62.501C60.3817 62.773 60.3545 63.2082 60.0826 63.4529L57.4455 65.8192C57.3095 65.928 57.1736 65.9824 57.0105 65.9824Z" fill="black"/>
<path d="M79.7387 37.0978C79.6572 37.0978 79.5756 37.0978 79.5212 37.0706C79.1678 36.9346 78.9775 36.5538 79.1134 36.2002L80.3097 32.882C80.4456 32.5284 80.8262 32.338 81.1797 32.474C81.5331 32.61 81.7234 32.9908 81.5875 33.3444L80.3912 36.6626C80.2825 36.9346 80.0106 37.0978 79.7387 37.0978Z" fill="black"/>
<path d="M66.5261 36.5539C66.2543 36.5539 65.9824 36.3907 65.8736 36.0915L64.6774 32.7733C64.5414 32.4198 64.7318 32.039 65.0852 31.903C65.4386 31.767 65.8193 31.9574 65.9552 32.311L67.1515 35.6292C67.2874 35.9828 67.0971 36.3635 66.7436 36.4995C66.6621 36.5539 66.6077 36.5539 66.5261 36.5539Z" fill="black"/>
<path d="M40.0728 50.5882C39.6921 50.5882 39.3931 50.289 39.3931 49.9082V47.2971C39.3931 46.9164 39.6921 46.6172 40.0728 46.6172C40.4534 46.6172 40.7524 46.9164 40.7524 47.2971V49.9082C40.7524 50.289 40.4534 50.5882 40.0728 50.5882Z" fill="black"/>
<path d="M27.2399 63.2083H24.6299C24.2493 63.2083 23.9502 62.9091 23.9502 62.5283C23.9502 62.1476 24.2493 61.8484 24.6299 61.8484H27.2399C27.6205 61.8484 27.9196 62.1476 27.9196 62.5283C27.9196 62.9091 27.6205 63.2083 27.2399 63.2083Z" fill="black"/>
<path d="M25.3371 68.1311C25.0652 68.1311 24.8205 67.9679 24.7118 67.7231C24.5758 67.3695 24.739 66.9887 25.0924 66.8256L27.4849 65.8192C27.8383 65.6832 28.2189 65.8464 28.3821 66.2C28.518 66.5536 28.3549 66.9343 28.0014 67.0975L25.609 68.1039C25.5274 68.1039 25.4458 68.1311 25.3371 68.1311Z" fill="black"/>
<path d="M28.1918 57.7142C28.1103 57.7142 28.0287 57.687 27.9199 57.6598L25.5275 56.6534C25.174 56.5174 25.0109 56.1095 25.1468 55.7559C25.2828 55.4023 25.6906 55.2391 26.044 55.3751L28.4365 56.3815C28.7899 56.5174 28.9531 56.9254 28.8171 57.279C28.7084 57.551 28.4637 57.7142 28.1918 57.7142Z" fill="black"/>
<path d="M31.1551 53.8793C30.992 53.8793 30.8289 53.8249 30.6929 53.7161L28.7626 51.9754C28.4908 51.7306 28.4636 51.2954 28.7083 51.0235C28.9529 50.7515 29.3879 50.7243 29.6598 50.9691L31.5901 52.7098C31.862 52.9545 31.8892 53.3897 31.6445 53.6617C31.5357 53.7977 31.3454 53.8793 31.1551 53.8793Z" fill="black"/>
<path d="M28.1916 73.1085C28.0013 73.1085 27.811 73.0269 27.6751 72.891C27.4304 72.619 27.4576 72.1838 27.7294 71.939L29.6597 70.1983C29.9316 69.9535 30.3666 69.9807 30.6113 70.2527C30.856 70.5247 30.8288 70.9599 30.5569 71.2047L28.6266 72.9454C28.5179 73.0541 28.3547 73.1085 28.1916 73.1085Z" fill="black"/>
<path d="M44.9389 51.8392C44.8574 51.8392 44.7758 51.8392 44.7214 51.812C44.368 51.676 44.1777 51.2953 44.3136 50.9417L45.1836 48.4938C45.3195 48.1402 45.7002 47.9499 46.0536 48.0859C46.407 48.2218 46.5974 48.6026 46.4614 48.9562L45.5914 51.4041C45.4827 51.6488 45.2108 51.8392 44.9389 51.8392Z" fill="black"/>
<path d="M35.2062 51.4314C34.9344 51.4314 34.6625 51.2682 34.5537 50.969L33.6837 48.5211C33.5478 48.1676 33.7381 47.7868 34.0915 47.6508C34.445 47.5148 34.8256 47.7052 34.9615 48.0588L35.8315 50.5066C35.9675 50.8602 35.7772 51.241 35.4237 51.377C35.3422 51.4042 35.2606 51.4314 35.2062 51.4314Z" fill="black"/>
<path d="M71.501 47.27L76.6666 35.3027L74.7635 48.9019" fill="#979797"/>
<path d="M75.4433 48.9835L74.0839 48.7931L75.2802 40.1712L72.0992 47.5148L70.8486 46.9708L76.0142 35.0035C76.1502 34.7043 76.5036 34.5139 76.8299 34.6227C77.1561 34.7043 77.3736 35.0307 77.3192 35.3843L75.4433 48.9835Z" fill="black"/>
<path d="M72.0451 54.3416C73.9971 54.3416 75.5795 52.7586 75.5795 50.8058C75.5795 48.853 73.9971 47.27 72.0451 47.27C70.0931 47.27 68.5107 48.853 68.5107 50.8058C68.5107 52.7586 70.0931 54.3416 72.0451 54.3416Z" fill="#979797"/>
<path d="M72.0451 55.0216C69.7342 55.0216 67.8311 53.1177 67.8311 50.8058C67.8311 48.494 69.7342 46.5901 72.0451 46.5901C74.356 46.5901 76.2592 48.494 76.2592 50.8058C76.2592 53.1177 74.356 55.0216 72.0451 55.0216ZM72.0451 47.95C70.4682 47.95 69.1904 49.2283 69.1904 50.8058C69.1904 52.3833 70.4682 53.6617 72.0451 53.6617C73.622 53.6617 74.8998 52.3833 74.8998 50.8058C74.8998 49.2283 73.622 47.95 72.0451 47.95Z" fill="black"/>
<path d="M65.8188 76.1818C65.4382 76.1818 65.1392 75.8827 65.1392 75.5019V61.6851C65.1392 61.3043 65.4382 61.0051 65.8188 61.0051H94.5831C94.9637 61.0051 95.2628 61.3043 95.2628 61.6851C95.2628 62.0659 94.9637 62.365 94.5831 62.365H66.4985V75.5019C66.4985 75.8555 66.1995 76.1818 65.8188 76.1818Z" fill="black"/>
<path d="M79.3856 66.9888H69.5981C69.2175 66.9888 68.9185 66.6896 68.9185 66.3089C68.9185 65.9281 69.2175 65.6289 69.5981 65.6289H79.3856C79.7662 65.6289 80.0653 65.9281 80.0653 66.3089C80.0653 66.6896 79.7662 66.9888 79.3856 66.9888Z" fill="black"/>
<path d="M29.5508 74.3324C29.3877 74.3324 29.2246 74.278 29.0886 74.1693C25.7174 71.1774 23.7871 66.8801 23.7871 62.3652C23.7871 53.6617 30.8558 46.5901 39.5558 46.5901C42.8727 46.5901 46.0808 47.6236 48.7723 49.5547C49.0714 49.7723 49.1529 50.2075 48.9354 50.5067C48.7179 50.8058 48.2829 50.8874 47.9839 50.6698C45.537 48.902 42.628 47.95 39.583 47.95C31.6443 47.95 25.1737 54.4232 25.1737 62.3652C25.1737 66.4721 26.9408 70.4159 30.013 73.1629C30.2849 73.4077 30.3121 73.8429 30.0674 74.1149C29.9315 74.2509 29.7411 74.3324 29.5508 74.3324Z" fill="black"/>
<path d="M40.0999 65.2209C41.5263 65.2209 42.6827 64.0641 42.6827 62.6371C42.6827 61.2101 41.5263 60.0532 40.0999 60.0532C38.6734 60.0532 37.5171 61.2101 37.5171 62.6371C37.5171 64.0641 38.6734 65.2209 40.0999 65.2209Z" fill="#979797"/>
<path d="M40.0999 65.9009C38.3055 65.9009 36.8374 64.4322 36.8374 62.6371C36.8374 60.842 38.3055 59.3733 40.0999 59.3733C41.8943 59.3733 43.3624 60.842 43.3624 62.6371C43.3624 64.4322 41.8943 65.9009 40.0999 65.9009ZM40.0999 60.7332C39.0396 60.7332 38.1968 61.5764 38.1968 62.6371C38.1968 63.6979 39.0396 64.541 40.0999 64.541C41.1602 64.541 42.003 63.6979 42.003 62.6371C42.003 61.5764 41.1602 60.7332 40.0999 60.7332Z" fill="black"/>
<path d="M30.4484 66.9888C30.1765 66.9888 29.9318 66.8256 29.8231 66.5536C29.6872 66.2 29.8503 65.8192 30.2037 65.6832L37.2724 62.8546C37.6259 62.7186 38.0065 62.8818 38.1424 63.2354C38.2784 63.589 38.1152 63.9697 37.7618 64.1057L30.6931 66.9344C30.6115 66.9616 30.53 66.9888 30.4484 66.9888Z" fill="black"/>
<path d="M104.806 65.2209C106.232 65.2209 107.389 64.0641 107.389 62.6371C107.389 61.2101 106.232 60.0532 104.806 60.0532C103.38 60.0532 102.223 61.2101 102.223 62.6371C102.223 64.0641 103.38 65.2209 104.806 65.2209Z" fill="#979797"/>
<path d="M104.806 65.9009C103.012 65.9009 101.543 64.4322 101.543 62.6371C101.543 60.842 103.012 59.3733 104.806 59.3733C106.6 59.3733 108.068 60.842 108.068 62.6371C108.068 64.4322 106.6 65.9009 104.806 65.9009ZM104.806 60.7332C103.746 60.7332 102.903 61.5764 102.903 62.6371C102.903 63.6979 103.746 64.541 104.806 64.541C105.866 64.541 106.709 63.6979 106.709 62.6371C106.709 61.5764 105.866 60.7332 104.806 60.7332Z" fill="black"/>
<path d="M107.117 61.8212C106.872 61.8212 106.627 61.6852 106.491 61.4404C106.328 61.114 106.464 60.706 106.818 60.5428L117.149 55.6471C117.475 55.4839 117.883 55.6199 118.046 55.9735C118.209 56.2999 118.073 56.7079 117.72 56.8711L107.389 61.7668C107.307 61.794 107.225 61.8212 107.117 61.8212Z" fill="black"/>
<path d="M45.9451 73.1084H33.167V76.3722H45.9451V73.1084Z" fill="#8CC63F" className='odometer'/>
<path d="M45.9451 77.0522H33.167C32.7864 77.0522 32.4873 76.753 32.4873 76.3722V73.1084C32.4873 72.7276 32.7864 72.4285 33.167 72.4285H45.9451C46.3257 72.4285 46.6247 72.7276 46.6247 73.1084V76.3722C46.6247 76.753 46.3257 77.0522 45.9451 77.0522ZM33.8467 75.6923H45.2654V73.7884H33.8467V75.6923Z" fill="black"/>
<path d="M110.923 73.1084H98.1445V76.3722H110.923V73.1084Z" fill="#8CC63F" className='odometer'/>
<path d="M110.923 77.0522H98.1445C97.7639 77.0522 97.4648 76.753 97.4648 76.3722V73.1084C97.4648 72.7276 97.7639 72.4285 98.1445 72.4285H110.923C111.303 72.4285 111.602 72.7276 111.602 73.1084V76.3722C111.602 76.753 111.303 77.0522 110.923 77.0522ZM98.8242 75.6923H110.243V73.7884H98.8242V75.6923Z" fill="black"/>
<path d="M72.3169 77.0524C58.5873 77.0524 47.4404 65.901 47.4404 52.1658C47.4404 38.4306 58.5873 27.2793 72.3169 27.2793C86.0465 27.2793 97.1933 38.4306 97.1933 52.1658C97.1933 65.901 86.0465 77.0524 72.3169 77.0524ZM72.3169 28.6392C59.3485 28.6392 48.7998 39.1922 48.7998 52.1658C48.7998 65.1395 59.3485 75.6925 72.3169 75.6925C85.2853 75.6925 95.834 65.1395 95.834 52.1658C95.834 39.1922 85.2853 28.6392 72.3169 28.6392Z" fill="black"/>
<path d="M276.923 197H273.948C273.098 197 272.935 195.033 273.033 193.066H273C273 193.066 273.131 191.886 273.36 190.087C274.177 189.975 275.157 189.918 275.909 190.256C276.89 190.649 277.151 194.583 276.923 197Z" fill="#D1D2D4"/>
<path d="M362.893 195.368C362.469 196.442 361.164 196.871 359.501 197C358.49 195.454 359.142 192.62 360.283 191.074C360.675 190.558 361.197 190.215 361.719 190C362.795 192.405 363.219 194.509 362.893 195.368Z" fill="#D1D2D4"/>
<path d="M293.5 206C297.642 206 301 202.418 301 198C301 193.582 297.642 190 293.5 190C289.358 190 286 193.582 286 198C286 202.418 289.358 206 293.5 206Z" fill="black"/>
<path d="M343 206C346.866 206 350 202.418 350 198C350 193.582 346.866 190 343 190C339.134 190 336 193.582 336 198C336 202.418 339.134 206 343 206Z" fill="black"/>
<path d="M40.0311 185L20.2327 205H19V197.717L31.5888 185H40.0311ZM45.7838 185L25.9855 205H34.4278L54.2261 185H45.7838ZM59.9788 185L40.1805 205H48.6228L68.4212 185H59.9788ZM74.1739 185L54.3755 205H62.8178L82.6162 185H74.1739ZM88.3689 185L68.5706 205H77.0129L96.8112 185H88.3689ZM102.564 185L82.7656 205H91.2079L111.006 185H102.564ZM116.759 185L96.9607 205H105.403L125.201 185H116.759ZM130.954 185L111.156 205H119.598L139.396 185H130.954ZM145.149 185L125.351 205H133.793L153.591 185H145.149ZM159.344 185L139.546 205H147.988L167.786 185H159.344ZM173.539 185L153.741 205H162.183L181.981 185H173.539ZM187.734 185L167.936 205H176.378L196.177 185H187.734ZM201.929 185L182.131 205H190.573L210.372 185H201.929ZM216.124 185L196.326 205H204.768L224.567 185H216.124ZM230.319 185L210.521 205H218.963L238.762 185H230.319ZM244.514 185L224.716 205H233.158L245 193.038V185H244.514ZM238.911 205H245V198.849L238.911 205ZM19 185V191.906L25.836 185H19Z" fill="#323232" className='block'/>
<path d="M245 205H19V185H245V205ZM19.7446 204.273H244.255V185.727H19.7446V204.273Z" fill="#323232" className='block'/>
<path d="M365 204H367C367.56 204 368 203.574 368 203.032V161.968C368 161.426 367.56 161 367 161H365C364.44 161 364 161.426 364 161.968V203.032C364 203.574 364.44 204 365 204Z" fill="#6F4C23" className='table'/>
<path d="M269 204H271C271.56 204 272 203.574 272 203.032V161.968C272 161.426 271.56 161 271 161H269C268.44 161 268 161.426 268 161.968V203.032C268 203.574 268.44 204 269 204Z" fill="#6F4C23" className='table'/>
<path d="M268 157V159C268 159.56 268.42 160 268.954 160H367.046C367.58 160 368 159.56 368 159V157C368 156.44 367.58 156 367.046 156H268.954C268.42 156 268 156.44 268 157Z" fill="#6F4C23" className='table'/>
<path d="M201 64.516L205.678 59L210 64.516H207.292V66H203.708V64.516H201Z" fill="#EFF3EF"/>
<path d="M48.9451 37.2432L42.5765 39L42 32.7297L44.0863 34.0811L46.2274 31L49 32.8108L46.8588 35.8919L48.9451 37.2432Z" fill="#247249" className='arrow'/>
<path d="M47.7288 35L45 33.3349C45.4815 32.5292 46.0166 31.7235 46.5784 30.9716L49.1467 32.8784C48.6384 33.5766 48.1568 34.2749 47.7288 35ZM50.083 31.6967L47.6218 29.6288C48.2103 28.9036 48.8524 28.2054 49.5212 27.534L51.7952 29.8167C51.1799 30.4344 50.6181 31.0521 50.083 31.6967ZM52.8921 28.7962L50.7518 26.3791C51.4474 25.7615 52.1965 25.1706 52.9456 24.6066L54.845 27.2117C54.1762 27.6951 53.5074 28.2322 52.8921 28.7962ZM56.1024 26.3254L54.3367 23.6398C55.1125 23.1295 55.9419 22.6461 56.7445 22.1896L58.2694 25.0363C57.547 25.4392 56.798 25.8689 56.1024 26.3254ZM59.6338 24.3381L58.2694 21.4107C59.0987 21.0079 59.9815 20.6319 60.8644 20.3096L61.988 23.3175C61.1854 23.6398 60.4096 23.9889 59.6338 24.3381ZM63.4327 22.8341L62.4696 19.7725C63.3524 19.5039 64.262 19.2354 65.1716 19.0205L65.8939 22.1627C65.0378 22.3507 64.2352 22.5924 63.4327 22.8341ZM67.3653 21.8404L66.7768 18.6714C67.6863 18.5103 68.6227 18.376 69.5323 18.2686L69.8801 21.4645C69.0507 21.5719 68.1946 21.7062 67.3653 21.8404ZM71.4317 21.3302L71.2177 18.1074C72.1273 18.0537 73.0637 18 74 18V21.2227C73.1439 21.2496 72.2878 21.2765 71.4317 21.3302Z" fill="#247249" className='arrow'/>
<path d="M194.254 88H191C191 86.8871 191.38 85.7742 192.166 84.6069L194.878 86.3985C194.444 87.0228 194.254 87.5385 194.254 88ZM195.746 85.2584L193.251 83.1683C193.82 82.4897 194.498 81.7839 195.149 81.1053L197.508 83.3312C196.885 83.9555 196.261 84.6341 195.746 85.2584ZM198.62 82.1097L196.234 79.911C196.912 79.1781 197.454 78.5537 197.969 77.9294L200.464 80.0195C199.949 80.6439 199.353 81.3225 198.62 82.1097ZM201.549 78.6623L198.946 76.7079C199.488 76.0022 199.949 75.2964 200.383 74.5907L203.149 76.2736C202.661 77.0879 202.146 77.8751 201.549 78.6623ZM203.99 74.7807L201.115 73.2606C201.495 72.5005 201.847 71.7405 202.146 70.9533L205.183 72.1205C204.858 73.0434 204.451 73.9121 203.99 74.7807ZM205.78 70.4919L202.661 69.5147C202.905 68.7275 203.122 67.886 203.285 67.0717L206.485 67.696C206.295 68.646 206.051 69.5961 205.78 70.4919ZM206.756 65.9859L203.529 65.5516C203.637 64.7372 203.719 63.8686 203.746 63L207 63.1086C206.946 64.1129 206.864 65.063 206.756 65.9859Z" fill="#EFF3EF"/>
<path d="M17.2513 111.226C17.6833 111.49 18.2833 111.724 19.0513 111.928C19.8313 112.132 20.5033 112.234 21.0673 112.234C22.0393 112.234 22.8793 112.084 23.5873 111.784C24.3073 111.484 24.8533 111.07 25.2253 110.542C25.6093 110.014 25.8013 109.414 25.8013 108.742C25.8013 108.118 25.6273 107.566 25.2793 107.086C24.9313 106.594 24.5293 106.192 24.0733 105.88C23.6173 105.556 22.9573 105.142 22.0933 104.638C21.8893 104.506 21.6913 104.398 21.4993 104.314C20.9833 104.038 20.6053 103.804 20.3653 103.612C20.1373 103.408 20.0233 103.174 20.0233 102.91C20.0233 102.586 20.1613 102.334 20.4373 102.154C20.7253 101.962 21.0913 101.866 21.5353 101.866C21.9673 101.866 22.3693 101.914 22.7413 102.01C23.1133 102.106 23.5873 102.274 24.1633 102.514L25.0273 100.462C24.5473 100.174 23.9893 99.946 23.3533 99.778C22.7173 99.598 22.0993 99.508 21.4993 99.508C20.6113 99.508 19.8373 99.658 19.1772 99.958C18.5173 100.246 18.0073 100.648 17.6473 101.164C17.2993 101.668 17.1193 102.244 17.1073 102.892C17.1073 103.504 17.2813 104.056 17.6293 104.548C17.9893 105.04 18.3973 105.448 18.8533 105.772C19.3213 106.096 19.9633 106.504 20.7793 106.996C21.0193 107.14 21.1993 107.242 21.3193 107.302C21.8713 107.626 22.2673 107.884 22.5073 108.076C22.7593 108.268 22.8853 108.478 22.8853 108.706C22.8853 109.054 22.7233 109.336 22.3993 109.552C22.0753 109.756 21.6133 109.858 21.0133 109.858C20.5693 109.858 20.0593 109.774 19.4833 109.606C18.9193 109.426 18.4453 109.234 18.0613 109.03L17.2513 111.226ZM35.7932 109.804H30.4832V99.76H27.6752V112H36.1172L35.7932 109.804ZM43.0391 99.49C41.8391 99.502 40.7711 99.784 39.8351 100.336C38.8991 100.888 38.1671 101.65 37.6391 102.622C37.1231 103.594 36.8651 104.698 36.8651 105.934C36.8651 107.11 37.1111 108.178 37.6031 109.138C38.1071 110.098 38.8211 110.86 39.7451 111.424C40.6811 111.976 41.7791 112.252 43.0391 112.252C44.2391 112.24 45.3071 111.964 46.2431 111.424C47.1791 110.872 47.9051 110.11 48.4211 109.138C48.9491 108.166 49.2131 107.056 49.2131 105.808C49.2131 104.632 48.9671 103.564 48.4751 102.604C47.9831 101.644 47.2691 100.888 46.3331 100.336C45.4091 99.772 44.3111 99.49 43.0391 99.49ZM39.7811 105.916C39.7811 105.112 39.9311 104.404 40.2311 103.792C40.5311 103.168 40.9271 102.688 41.4191 102.352C41.9231 102.016 42.4751 101.848 43.0751 101.848C43.7231 101.848 44.2871 102.022 44.7671 102.37C45.2591 102.706 45.6371 103.174 45.9011 103.774C46.1651 104.374 46.2971 105.052 46.2971 105.808C46.2971 106.696 46.1531 107.446 45.8651 108.058C45.5771 108.67 45.1811 109.132 44.6771 109.444C44.1851 109.744 43.6331 109.894 43.0211 109.894C42.0251 109.894 41.2331 109.528 40.6451 108.796C40.0691 108.052 39.7811 107.092 39.7811 105.916ZM66.9431 99.76L63.3431 112H60.7151L58.4651 103.702L56.2871 112H53.6411L49.9691 99.904L52.7591 99.58L55.0091 108.436L57.0791 99.76H59.8871L62.0831 108.436L64.1351 99.76H66.9431ZM77.6633 112C78.8273 112 79.8413 111.748 80.7053 111.244C81.5693 110.74 82.2353 110.026 82.7033 109.102C83.1713 108.166 83.4053 107.068 83.4053 105.808C83.4053 104.62 83.1893 103.576 82.7573 102.676C82.3253 101.764 81.6773 101.05 80.8133 100.534C79.9613 100.018 78.9233 99.76 77.6993 99.76H72.5873V112H77.6633ZM77.6633 102.046C78.5873 102.046 79.2893 102.382 79.7693 103.054C80.2493 103.726 80.4893 104.644 80.4893 105.808C80.4893 107.128 80.2253 108.112 79.6973 108.76C79.1693 109.408 78.4493 109.732 77.5373 109.732H75.3953V102.046H77.6633ZM90.7285 99.49C89.5285 99.502 88.4605 99.784 87.5245 100.336C86.5885 100.888 85.8565 101.65 85.3285 102.622C84.8125 103.594 84.5545 104.698 84.5545 105.934C84.5545 107.11 84.8005 108.178 85.2925 109.138C85.7965 110.098 86.5105 110.86 87.4345 111.424C88.3705 111.976 89.4685 112.252 90.7285 112.252C91.9285 112.24 92.9965 111.964 93.9325 111.424C94.8685 110.872 95.5945 110.11 96.1105 109.138C96.6385 108.166 96.9025 107.056 96.9025 105.808C96.9025 104.632 96.6565 103.564 96.1645 102.604C95.6725 101.644 94.9585 100.888 94.0225 100.336C93.0985 99.772 92.0005 99.49 90.7285 99.49ZM87.4705 105.916C87.4705 105.112 87.6205 104.404 87.9205 103.792C88.2205 103.168 88.6165 102.688 89.1085 102.352C89.6125 102.016 90.1645 101.848 90.7645 101.848C91.4125 101.848 91.9765 102.022 92.4565 102.37C92.9485 102.706 93.3265 103.174 93.5905 103.774C93.8545 104.374 93.9865 105.052 93.9865 105.808C93.9865 106.696 93.8425 107.446 93.5545 108.058C93.2665 108.67 92.8705 109.132 92.3665 109.444C91.8745 109.744 91.3225 109.894 90.7105 109.894C89.7145 109.894 88.9225 109.528 88.3345 108.796C87.7585 108.052 87.4705 107.092 87.4705 105.916ZM114.633 99.76L111.033 112H108.405L106.155 103.702L103.977 112H101.331L97.6585 99.904L100.449 99.58L102.699 108.436L104.769 99.76H107.577L109.773 108.436L111.825 99.76H114.633ZM119.095 112V104.692L124.279 112H126.979V99.76H124.171V107.158L118.987 99.76H116.287V112H119.095Z" fill="#323232" className='text'/>
<path d="M153.189 108.094H154.737C155.649 108.094 156.489 107.944 157.257 107.644C158.037 107.332 158.661 106.864 159.129 106.24C159.597 105.616 159.831 104.848 159.831 103.936C159.831 103.012 159.609 102.238 159.165 101.614C158.733 100.99 158.145 100.528 157.401 100.228C156.657 99.916 155.823 99.76 154.899 99.76H150.381V112H153.189V108.094ZM154.809 102.028C155.469 102.028 155.979 102.196 156.339 102.532C156.711 102.868 156.897 103.36 156.897 104.008C156.885 104.572 156.687 105.022 156.303 105.358C155.931 105.682 155.445 105.844 154.845 105.844H153.189V102.028H154.809ZM161.539 99.76L161.557 107.428C161.557 108.4 161.773 109.246 162.205 109.966C162.637 110.686 163.249 111.244 164.041 111.64C164.845 112.036 165.769 112.234 166.813 112.234C167.857 112.234 168.775 112.036 169.567 111.64C170.371 111.244 170.989 110.686 171.421 109.966C171.865 109.246 172.087 108.4 172.087 107.428V99.76H169.261V107.266C169.261 108.118 169.039 108.772 168.595 109.228C168.151 109.672 167.557 109.894 166.813 109.894C166.069 109.894 165.475 109.672 165.031 109.228C164.587 108.784 164.365 108.13 164.365 107.266V99.76H161.539ZM182.986 109.804H177.676V99.76H174.868V112H183.31L182.986 109.804ZM193.075 109.804H187.765V99.76H184.957V112H193.399L193.075 109.804ZM204.312 99.49C203.112 99.502 202.044 99.784 201.108 100.336C200.172 100.888 199.44 101.65 198.912 102.622C198.396 103.594 198.138 104.698 198.138 105.934C198.138 107.11 198.384 108.178 198.876 109.138C199.38 110.098 200.094 110.86 201.018 111.424C201.954 111.976 203.052 112.252 204.312 112.252C205.512 112.24 206.58 111.964 207.516 111.424C208.452 110.872 209.178 110.11 209.694 109.138C210.222 108.166 210.486 107.056 210.486 105.808C210.486 104.632 210.24 103.564 209.748 102.604C209.256 101.644 208.542 100.888 207.606 100.336C206.682 99.772 205.584 99.49 204.312 99.49ZM201.054 105.916C201.054 105.112 201.204 104.404 201.504 103.792C201.804 103.168 202.2 102.688 202.692 102.352C203.196 102.016 203.748 101.848 204.348 101.848C204.996 101.848 205.56 102.022 206.04 102.37C206.532 102.706 206.91 103.174 207.174 103.774C207.438 104.374 207.57 105.052 207.57 105.808C207.57 106.696 207.426 107.446 207.138 108.058C206.85 108.67 206.454 109.132 205.95 109.444C205.458 109.744 204.906 109.894 204.294 109.894C203.298 109.894 202.506 109.528 201.918 108.796C201.342 108.052 201.054 107.092 201.054 105.916ZM214.032 99.58L211.242 99.904L215.904 112H218.55L223.212 99.76H220.422L217.272 108.436L214.032 99.58ZM233.644 112L233.302 109.804H227.668V106.942H231.898L231.556 104.728H227.668V101.974H232.924L232.582 99.76H224.86V112H233.644ZM235.477 112H238.285V107.752H240.481L242.767 112H245.917L243.055 106.96C243.631 106.636 244.087 106.198 244.423 105.646C244.759 105.094 244.927 104.458 244.927 103.738C244.927 102.418 244.465 101.428 243.541 100.768C242.617 100.096 241.435 99.76 239.995 99.76H235.477V112ZM239.905 102.028C240.577 102.028 241.093 102.172 241.453 102.46C241.813 102.748 241.993 103.192 241.993 103.792C241.993 104.332 241.801 104.758 241.417 105.07C241.045 105.37 240.553 105.52 239.941 105.52H238.285V102.028H239.905Z" fill="#323232" className='text'/>
<path d="M264.914 111.226C265.346 111.49 265.946 111.724 266.714 111.928C267.494 112.132 268.166 112.234 268.73 112.234C269.702 112.234 270.542 112.084 271.25 111.784C271.97 111.484 272.516 111.07 272.888 110.542C273.272 110.014 273.464 109.414 273.464 108.742C273.464 108.118 273.29 107.566 272.942 107.086C272.594 106.594 272.192 106.192 271.736 105.88C271.28 105.556 270.62 105.142 269.756 104.638C269.552 104.506 269.354 104.398 269.162 104.314C268.646 104.038 268.268 103.804 268.028 103.612C267.8 103.408 267.686 103.174 267.686 102.91C267.686 102.586 267.824 102.334 268.1 102.154C268.388 101.962 268.754 101.866 269.198 101.866C269.63 101.866 270.032 101.914 270.404 102.01C270.776 102.106 271.25 102.274 271.826 102.514L272.69 100.462C272.21 100.174 271.652 99.946 271.016 99.778C270.38 99.598 269.762 99.508 269.162 99.508C268.274 99.508 267.5 99.658 266.84 99.958C266.18 100.246 265.67 100.648 265.31 101.164C264.962 101.668 264.782 102.244 264.77 102.892C264.77 103.504 264.944 104.056 265.292 104.548C265.652 105.04 266.06 105.448 266.516 105.772C266.984 106.096 267.626 106.504 268.442 106.996C268.682 107.14 268.862 107.242 268.982 107.302C269.534 107.626 269.93 107.884 270.17 108.076C270.422 108.268 270.548 108.478 270.548 108.706C270.548 109.054 270.386 109.336 270.062 109.552C269.738 109.756 269.276 109.858 268.676 109.858C268.232 109.858 267.722 109.774 267.146 109.606C266.582 109.426 266.108 109.234 265.724 109.03L264.914 111.226ZM284.23 99.76H274.042V101.974H277.696V112H280.522V101.974H284.572L284.23 99.76ZM289.621 99.76L284.941 112H287.749L288.703 109.354H293.149L294.139 112.18L296.911 111.856L292.267 99.76H289.621ZM292.321 107.122H289.495L290.881 103.324L292.321 107.122ZM304.013 112V107.266L308.261 99.76H305.345L302.591 104.512L299.981 99.508L297.263 100.282L301.205 107.194V112H304.013ZM316.713 112V99.76H313.905V112H316.713ZM322.496 112V104.692L327.68 112H330.38V99.76H327.572V107.158L322.388 99.76H319.688V112H322.496ZM332.59 111.226C333.022 111.49 333.622 111.724 334.39 111.928C335.17 112.132 335.842 112.234 336.406 112.234C337.378 112.234 338.218 112.084 338.926 111.784C339.646 111.484 340.192 111.07 340.564 110.542C340.948 110.014 341.14 109.414 341.14 108.742C341.14 108.118 340.966 107.566 340.618 107.086C340.27 106.594 339.868 106.192 339.412 105.88C338.956 105.556 338.296 105.142 337.432 104.638C337.228 104.506 337.03 104.398 336.838 104.314C336.322 104.038 335.944 103.804 335.704 103.612C335.476 103.408 335.362 103.174 335.362 102.91C335.362 102.586 335.5 102.334 335.776 102.154C336.064 101.962 336.43 101.866 336.874 101.866C337.306 101.866 337.708 101.914 338.08 102.01C338.452 102.106 338.926 102.274 339.502 102.514L340.366 100.462C339.886 100.174 339.328 99.946 338.692 99.778C338.056 99.598 337.438 99.508 336.838 99.508C335.95 99.508 335.176 99.658 334.516 99.958C333.856 100.246 333.346 100.648 332.986 101.164C332.638 101.668 332.458 102.244 332.446 102.892C332.446 103.504 332.62 104.056 332.968 104.548C333.328 105.04 333.736 105.448 334.192 105.772C334.66 106.096 335.302 106.504 336.118 106.996C336.358 107.14 336.538 107.242 336.658 107.302C337.21 107.626 337.606 107.884 337.846 108.076C338.098 108.268 338.224 108.478 338.224 108.706C338.224 109.054 338.062 109.336 337.738 109.552C337.414 109.756 336.952 109.858 336.352 109.858C335.908 109.858 335.398 109.774 334.822 109.606C334.258 109.426 333.784 109.234 333.4 109.03L332.59 111.226ZM345.822 112V99.76H343.014V112H345.822ZM353.873 112C355.037 112 356.051 111.748 356.915 111.244C357.779 110.74 358.445 110.026 358.913 109.102C359.381 108.166 359.615 107.068 359.615 105.808C359.615 104.62 359.399 103.576 358.967 102.676C358.535 101.764 357.887 101.05 357.023 100.534C356.171 100.018 355.133 99.76 353.909 99.76H348.797V112H353.873ZM353.873 102.046C354.797 102.046 355.499 102.382 355.979 103.054C356.459 103.726 356.699 104.644 356.699 105.808C356.699 107.128 356.435 108.112 355.907 108.76C355.379 109.408 354.659 109.732 353.747 109.732H351.605V102.046H353.873ZM370.448 112L370.106 109.804H364.472V106.942H368.702L368.36 104.728H364.472V101.974H369.728L369.386 99.76H361.664V112H370.448Z" fill="#323232" className='text'/>
<path d="M29.4227 165C30.3587 165 31.1227 164.8 31.7147 164.4C32.3067 163.992 32.6027 163.384 32.6027 162.576C32.6027 162.152 32.4947 161.776 32.2787 161.448C32.0707 161.12 31.7867 160.844 31.4267 160.62C31.9707 160.14 32.2427 159.652 32.2427 159.156C32.2427 158.372 31.9627 157.792 31.4027 157.416C30.8507 157.032 30.1227 156.84 29.2187 156.84H26.2067V165H29.4227ZM29.0627 158.352C29.8787 158.352 30.2867 158.644 30.2867 159.228C30.2867 159.5 30.1547 159.704 29.8907 159.84C29.6347 159.976 29.3027 160.044 28.8947 160.044H28.0787V158.352H29.0627ZM29.4347 161.544C29.8107 161.544 30.1067 161.636 30.3227 161.82C30.5467 161.996 30.6587 162.244 30.6587 162.564C30.6587 162.86 30.5427 163.092 30.3107 163.26C30.0787 163.42 29.7707 163.5 29.3867 163.5H28.0787V161.544H29.4347ZM39.7033 165L39.4753 163.536H35.7193V161.628H38.5393L38.3113 160.152H35.7193V158.316H39.2233L38.9953 156.84H33.8473V165H39.7033ZM46.6734 157.284C46.3534 157.092 45.9814 156.944 45.5574 156.84C45.1334 156.736 44.7454 156.684 44.3934 156.684C43.6014 156.684 42.8974 156.868 42.2814 157.236C41.6654 157.596 41.1854 158.1 40.8414 158.748C40.4974 159.396 40.3254 160.132 40.3254 160.956C40.3254 161.764 40.4854 162.488 40.8054 163.128C41.1254 163.76 41.5894 164.256 42.1974 164.616C42.8134 164.976 43.5454 165.156 44.3934 165.156C44.7774 165.156 45.1894 165.104 45.6294 165C46.0774 164.904 46.4534 164.768 46.7574 164.592L46.0494 163.2C45.5054 163.472 44.9494 163.608 44.3814 163.608C43.9814 163.608 43.6214 163.496 43.3014 163.272C42.9814 163.04 42.7294 162.724 42.5454 162.324C42.3614 161.916 42.2694 161.456 42.2694 160.944C42.2694 160.408 42.3654 159.936 42.5574 159.528C42.7494 159.112 43.0054 158.792 43.3254 158.568C43.6534 158.344 44.0054 158.232 44.3814 158.232C44.6774 158.232 44.9294 158.256 45.1374 158.304C45.3534 158.352 45.6774 158.444 46.1094 158.58L46.6734 157.284ZM50.1423 156.84L47.0223 165H48.8943L49.5303 163.236H52.4943L53.1543 165.12L55.0023 164.904L51.9063 156.84H50.1423ZM51.9423 161.748H50.0583L50.9823 159.216L51.9423 161.748ZM55.9812 156.84L55.9932 161.952C55.9932 162.6 56.1372 163.164 56.4252 163.644C56.7132 164.124 57.1212 164.496 57.6492 164.76C58.1852 165.024 58.8012 165.156 59.4972 165.156C60.1932 165.156 60.8052 165.024 61.3332 164.76C61.8692 164.496 62.2812 164.124 62.5692 163.644C62.8652 163.164 63.0132 162.6 63.0132 161.952V156.84H61.1292V161.844C61.1292 162.412 60.9812 162.848 60.6852 163.152C60.3892 163.448 59.9932 163.596 59.4972 163.596C59.0012 163.596 58.6052 163.448 58.3092 163.152C58.0132 162.856 57.8652 162.42 57.8652 161.844V156.84H55.9812ZM64.3628 164.484C64.6508 164.66 65.0508 164.816 65.5628 164.952C66.0828 165.088 66.5308 165.156 66.9068 165.156C67.5548 165.156 68.1148 165.056 68.5868 164.856C69.0668 164.656 69.4308 164.38 69.6788 164.028C69.9348 163.676 70.0628 163.276 70.0628 162.828C70.0628 162.412 69.9468 162.044 69.7148 161.724C69.4828 161.396 69.2148 161.128 68.9108 160.92C68.6068 160.704 68.1668 160.428 67.5908 160.092C67.4548 160.004 67.3228 159.932 67.1948 159.876C66.8508 159.692 66.5988 159.536 66.4388 159.408C66.2868 159.272 66.2108 159.116 66.2108 158.94C66.2108 158.724 66.3028 158.556 66.4868 158.436C66.6788 158.308 66.9228 158.244 67.2188 158.244C67.5068 158.244 67.7748 158.276 68.0228 158.34C68.2708 158.404 68.5868 158.516 68.9708 158.676L69.5468 157.308C69.2268 157.116 68.8548 156.964 68.4308 156.852C68.0068 156.732 67.5948 156.672 67.1948 156.672C66.6028 156.672 66.0868 156.772 65.6468 156.972C65.2068 157.164 64.8668 157.432 64.6268 157.776C64.3948 158.112 64.2748 158.496 64.2668 158.928C64.2668 159.336 64.3828 159.704 64.6148 160.032C64.8548 160.36 65.1268 160.632 65.4308 160.848C65.7428 161.064 66.1708 161.336 66.7148 161.664C66.8748 161.76 66.9948 161.828 67.0748 161.868C67.4428 162.084 67.7068 162.256 67.8668 162.384C68.0348 162.512 68.1188 162.652 68.1188 162.804C68.1188 163.036 68.0108 163.224 67.7948 163.368C67.5788 163.504 67.2708 163.572 66.8708 163.572C66.5748 163.572 66.2348 163.516 65.8508 163.404C65.4748 163.284 65.1588 163.156 64.9028 163.02L64.3628 164.484ZM77.1681 165L76.9401 163.536H73.1841V161.628H76.0041L75.7761 160.152H73.1841V158.316H76.6881L76.4601 156.84H71.3121V165H77.1681ZM84.6864 165V161.844L87.5184 156.84H85.5744L83.7384 160.008L81.9984 156.672L80.1864 157.188L82.8144 161.796V165H84.6864ZM92.1367 156.66C91.3367 156.668 90.6247 156.856 90.0007 157.224C89.3767 157.592 88.8887 158.1 88.5367 158.748C88.1927 159.396 88.0207 160.132 88.0207 160.956C88.0207 161.74 88.1847 162.452 88.5127 163.092C88.8487 163.732 89.3247 164.24 89.9407 164.616C90.5647 164.984 91.2967 165.168 92.1367 165.168C92.9367 165.16 93.6487 164.976 94.2727 164.616C94.8967 164.248 95.3807 163.74 95.7247 163.092C96.0767 162.444 96.2527 161.704 96.2527 160.872C96.2527 160.088 96.0887 159.376 95.7607 158.736C95.4327 158.096 94.9567 157.592 94.3327 157.224C93.7167 156.848 92.9847 156.66 92.1367 156.66ZM89.9647 160.944C89.9647 160.408 90.0647 159.936 90.2647 159.528C90.4647 159.112 90.7287 158.792 91.0567 158.568C91.3927 158.344 91.7607 158.232 92.1607 158.232C92.5927 158.232 92.9687 158.348 93.2887 158.58C93.6167 158.804 93.8687 159.116 94.0447 159.516C94.2207 159.916 94.3087 160.368 94.3087 160.872C94.3087 161.464 94.2127 161.964 94.0207 162.372C93.8287 162.78 93.5647 163.088 93.2287 163.296C92.9007 163.496 92.5327 163.596 92.1247 163.596C91.4607 163.596 90.9327 163.352 90.5407 162.864C90.1567 162.368 89.9647 161.728 89.9647 160.944ZM97.5007 156.84L97.5127 161.952C97.5127 162.6 97.6567 163.164 97.9447 163.644C98.2327 164.124 98.6407 164.496 99.1687 164.76C99.7047 165.024 100.321 165.156 101.017 165.156C101.713 165.156 102.325 165.024 102.853 164.76C103.389 164.496 103.801 164.124 104.089 163.644C104.385 163.164 104.533 162.6 104.533 161.952V156.84H102.649V161.844C102.649 162.412 102.501 162.848 102.205 163.152C101.909 163.448 101.513 163.596 101.017 163.596C100.521 163.596 100.125 163.448 99.8287 163.152C99.5327 162.856 99.3847 162.42 99.3847 161.844V156.84H97.5007ZM119.499 156.84L117.099 165H115.347L113.847 159.468L112.395 165H110.631L108.183 156.936L110.043 156.72L111.543 162.624L112.923 156.84H114.795L116.259 162.624L117.627 156.84H119.499ZM124.117 156.66C123.317 156.668 122.605 156.856 121.981 157.224C121.357 157.592 120.869 158.1 120.517 158.748C120.173 159.396 120.001 160.132 120.001 160.956C120.001 161.74 120.165 162.452 120.493 163.092C120.829 163.732 121.305 164.24 121.921 164.616C122.545 164.984 123.277 165.168 124.117 165.168C124.917 165.16 125.629 164.976 126.253 164.616C126.877 164.248 127.361 163.74 127.705 163.092C128.057 162.444 128.233 161.704 128.233 160.872C128.233 160.088 128.069 159.376 127.741 158.736C127.413 158.096 126.937 157.592 126.313 157.224C125.697 156.848 124.965 156.66 124.117 156.66ZM121.945 160.944C121.945 160.408 122.045 159.936 122.245 159.528C122.445 159.112 122.709 158.792 123.037 158.568C123.373 158.344 123.741 158.232 124.141 158.232C124.573 158.232 124.949 158.348 125.269 158.58C125.597 158.804 125.849 159.116 126.025 159.516C126.201 159.916 126.289 160.368 126.289 160.872C126.289 161.464 126.193 161.964 126.001 162.372C125.809 162.78 125.545 163.088 125.209 163.296C124.881 163.496 124.513 163.596 124.105 163.596C123.441 163.596 122.913 163.352 122.521 162.864C122.137 162.368 121.945 161.728 121.945 160.944ZM131.473 165V160.128L134.929 165H136.729V156.84H134.857V161.772L131.401 156.84H129.601V165H131.473ZM139.079 156.096C138.807 156.096 138.571 156.2 138.371 156.408C138.179 156.616 138.083 156.844 138.083 157.092C138.083 157.292 138.143 157.48 138.263 157.656C138.391 157.832 138.527 157.944 138.671 157.992C138.607 158.264 138.371 158.548 137.963 158.844L138.347 159.696C138.843 159.464 139.255 159.12 139.583 158.664C139.919 158.2 140.087 157.736 140.087 157.272C140.087 156.928 139.987 156.648 139.787 156.432C139.595 156.208 139.359 156.096 139.079 156.096ZM147.353 156.84H140.561V158.316H142.997V165H144.881V158.316H147.581L147.353 156.84ZM155.755 160.26H153.223V158.316H156.535L156.319 156.852H151.351V165H153.223V161.736H155.971L155.755 160.26ZM159.633 165V156.84H157.761V165H159.633ZM163.489 165V160.128L166.945 165H168.745V156.84H166.873V161.772L163.417 156.84H161.617V165H163.489ZM174.106 165C174.882 165 175.558 164.832 176.134 164.496C176.71 164.16 177.154 163.684 177.466 163.068C177.778 162.444 177.934 161.712 177.934 160.872C177.934 160.08 177.79 159.384 177.502 158.784C177.214 158.176 176.782 157.7 176.206 157.356C175.638 157.012 174.946 156.84 174.13 156.84H170.722V165H174.106ZM174.106 158.364C174.722 158.364 175.19 158.588 175.51 159.036C175.83 159.484 175.99 160.096 175.99 160.872C175.99 161.752 175.814 162.408 175.462 162.84C175.11 163.272 174.63 163.488 174.022 163.488H172.594V158.364H174.106ZM184.217 156.84L181.097 165H182.969L183.605 163.236H186.569L187.229 165.12L189.077 164.904L185.981 156.84H184.217ZM186.017 161.748H184.133L185.057 159.216L186.017 161.748ZM198.764 156.84H191.972V158.316H194.408V165H196.292V158.316H198.992L198.764 156.84ZM202.357 156.84L199.237 165H201.109L201.745 163.236H204.709L205.369 165.12L207.217 164.904L204.121 156.84H202.357ZM204.157 161.748H202.273L203.197 159.216L204.157 161.748ZM211.532 165C212.468 165 213.232 164.8 213.824 164.4C214.416 163.992 214.712 163.384 214.712 162.576C214.712 162.152 214.604 161.776 214.388 161.448C214.18 161.12 213.896 160.844 213.536 160.62C214.08 160.14 214.352 159.652 214.352 159.156C214.352 158.372 214.072 157.792 213.512 157.416C212.96 157.032 212.232 156.84 211.328 156.84H208.316V165H211.532ZM211.172 158.352C211.988 158.352 212.396 158.644 212.396 159.228C212.396 159.5 212.264 159.704 212 159.84C211.744 159.976 211.412 160.044 211.004 160.044H210.188V158.352H211.172ZM211.544 161.544C211.92 161.544 212.216 161.636 212.432 161.82C212.656 161.996 212.768 162.244 212.768 162.564C212.768 162.86 212.652 163.092 212.42 163.26C212.188 163.42 211.88 163.5 211.496 163.5H210.188V161.544H211.544ZM221.369 163.536H217.829V156.84H215.957V165H221.585L221.369 163.536ZM228.539 165L228.311 163.536H224.555V161.628H227.375L227.147 160.152H224.555V158.316H228.059L227.831 156.84H222.683V165H228.539ZM91.3047 168.66C90.5047 168.668 89.7927 168.856 89.1687 169.224C88.5447 169.592 88.0567 170.1 87.7047 170.748C87.3607 171.396 87.1887 172.132 87.1887 172.956C87.1887 173.74 87.3527 174.452 87.6807 175.092C88.0167 175.732 88.4927 176.24 89.1087 176.616C89.7327 176.984 90.4647 177.168 91.3047 177.168C92.1047 177.16 92.8167 176.976 93.4407 176.616C94.0647 176.248 94.5487 175.74 94.8927 175.092C95.2447 174.444 95.4207 173.704 95.4207 172.872C95.4207 172.088 95.2567 171.376 94.9287 170.736C94.6007 170.096 94.1247 169.592 93.5007 169.224C92.8847 168.848 92.1527 168.66 91.3047 168.66ZM89.1327 172.944C89.1327 172.408 89.2327 171.936 89.4327 171.528C89.6327 171.112 89.8967 170.792 90.2247 170.568C90.5607 170.344 90.9287 170.232 91.3287 170.232C91.7607 170.232 92.1367 170.348 92.4567 170.58C92.7847 170.804 93.0367 171.116 93.2127 171.516C93.3887 171.916 93.4767 172.368 93.4767 172.872C93.4767 173.464 93.3807 173.964 93.1887 174.372C92.9967 174.78 92.7327 175.088 92.3967 175.296C92.0687 175.496 91.7007 175.596 91.2927 175.596C90.6287 175.596 90.1007 175.352 89.7087 174.864C89.3247 174.368 89.1327 173.728 89.1327 172.944ZM98.6607 177V172.128L102.117 177H103.917V168.84H102.045V173.772L98.5887 168.84H96.7887V177H98.6607ZM114.482 168.84H107.69V170.316H110.126V177H112.01V170.316H114.71L114.482 168.84ZM122.6 177V168.84H120.728V172.188H117.692V168.768L115.82 168.84V177H117.692V173.676H120.728V177H122.6ZM130.442 177L130.214 175.536H126.458V173.628H129.278L129.05 172.152H126.458V170.316H129.962L129.734 168.84H124.586V177H130.442ZM134.324 177H136.196V174.168H137.66L139.184 177H141.284L139.376 173.64C139.76 173.424 140.064 173.132 140.288 172.764C140.512 172.396 140.624 171.972 140.624 171.492C140.624 170.612 140.316 169.952 139.7 169.512C139.084 169.064 138.296 168.84 137.336 168.84H134.324V177ZM137.276 170.352C137.724 170.352 138.068 170.448 138.308 170.64C138.548 170.832 138.668 171.128 138.668 171.528C138.668 171.888 138.54 172.172 138.284 172.38C138.036 172.58 137.708 172.68 137.3 172.68H136.196V170.352H137.276ZM145.902 168.66C145.102 168.668 144.39 168.856 143.766 169.224C143.142 169.592 142.654 170.1 142.302 170.748C141.958 171.396 141.786 172.132 141.786 172.956C141.786 173.74 141.95 174.452 142.278 175.092C142.614 175.732 143.09 176.24 143.706 176.616C144.33 176.984 145.062 177.168 145.902 177.168C146.702 177.16 147.414 176.976 148.038 176.616C148.662 176.248 149.146 175.74 149.49 175.092C149.842 174.444 150.018 173.704 150.018 172.872C150.018 172.088 149.854 171.376 149.526 170.736C149.198 170.096 148.722 169.592 148.098 169.224C147.482 168.848 146.75 168.66 145.902 168.66ZM143.73 172.944C143.73 172.408 143.83 171.936 144.03 171.528C144.23 171.112 144.494 170.792 144.822 170.568C145.158 170.344 145.526 170.232 145.926 170.232C146.358 170.232 146.734 170.348 147.054 170.58C147.382 170.804 147.634 171.116 147.81 171.516C147.986 171.916 148.074 172.368 148.074 172.872C148.074 173.464 147.978 173.964 147.786 174.372C147.594 174.78 147.33 175.088 146.994 175.296C146.666 175.496 146.298 175.596 145.89 175.596C145.226 175.596 144.698 175.352 144.306 174.864C143.922 174.368 143.73 173.728 143.73 172.944ZM153.642 168.84L150.522 177H152.394L153.03 175.236H155.994L156.654 177.12L158.502 176.904L155.406 168.84H153.642ZM155.442 173.748H153.558L154.482 171.216L155.442 173.748ZM162.985 177C163.761 177 164.437 176.832 165.013 176.496C165.589 176.16 166.033 175.684 166.345 175.068C166.657 174.444 166.813 173.712 166.813 172.872C166.813 172.08 166.669 171.384 166.381 170.784C166.093 170.176 165.661 169.7 165.085 169.356C164.517 169.012 163.825 168.84 163.009 168.84H159.601V177H162.985ZM162.985 170.364C163.601 170.364 164.069 170.588 164.389 171.036C164.709 171.484 164.869 172.096 164.869 172.872C164.869 173.752 164.693 174.408 164.341 174.84C163.989 175.272 163.509 175.488 162.901 175.488H161.473V170.364H162.985Z" fill="#323232" className='text'/>
</svg>
