<svg width="115" height="115" viewBox="0 0 115 115" fill="none" xmlns="http://www.w3.org/2000/svg">
<rect x="0.72327" y="0.72327" width="113.553" height="113.553" rx="6.50943" fill="#FFFFFA" className='background' stroke="#252525" stroke-width="1.44654"/>
<path d="M0 81.0063H115V107.767C115 111.762 111.762 115 107.767 115H7.23271C3.23819 115 0 111.762 0 107.767V81.0063Z" fill="#252525" className='bottom'/>
<path d="M38.31 101.322H31.82V89.0463H28.388V104.006H38.706L38.31 101.322ZM47.166 88.7163C45.6993 88.731 44.394 89.0756 43.25 89.7503C42.106 90.425 41.2113 91.3563 40.566 92.5443C39.9353 93.7323 39.62 95.0816 39.62 96.5923C39.62 98.0296 39.9207 99.335 40.522 100.508C41.138 101.682 42.0107 102.613 43.14 103.302C44.284 103.977 45.626 104.314 47.166 104.314C48.6327 104.3 49.938 103.962 51.082 103.302C52.226 102.628 53.1133 101.696 53.744 100.508C54.3893 99.3203 54.712 97.9636 54.712 96.4383C54.712 95.001 54.4114 93.6956 53.81 92.5223C53.2087 91.349 52.336 90.425 51.192 89.7503C50.0627 89.061 48.7207 88.7163 47.166 88.7163ZM43.184 96.5703C43.184 95.5876 43.3673 94.7223 43.734 93.9743C44.1007 93.2116 44.5847 92.625 45.186 92.2143C45.802 91.8036 46.4767 91.5983 47.21 91.5983C48.002 91.5983 48.6913 91.811 49.278 92.2363C49.8793 92.647 50.3413 93.219 50.664 93.9523C50.9867 94.6856 51.148 95.5143 51.148 96.4383C51.148 97.5236 50.972 98.4403 50.62 99.1883C50.268 99.9363 49.784 100.501 49.168 100.882C48.5667 101.249 47.892 101.432 47.144 101.432C45.9267 101.432 44.9587 100.985 44.24 100.09C43.536 99.181 43.184 98.0076 43.184 96.5703ZM67.758 89.8603C67.1713 89.5083 66.4893 89.237 65.712 89.0463C64.9347 88.8556 64.2233 88.7603 63.578 88.7603C62.126 88.7603 60.8353 89.0976 59.706 89.7723C58.5767 90.4323 57.6967 91.3563 57.066 92.5443C56.4353 93.7323 56.12 95.0816 56.12 96.5923C56.12 98.0736 56.4133 99.401 57 100.574C57.5867 101.733 58.4373 102.642 59.552 103.302C60.6813 103.962 62.0233 104.292 63.578 104.292C64.282 104.292 65.0373 104.197 65.844 104.006C66.6653 103.83 67.3547 103.581 67.912 103.258L66.614 100.706C65.6167 101.205 64.5973 101.454 63.556 101.454C62.8227 101.454 62.1627 101.249 61.576 100.838C60.9893 100.413 60.5273 99.8336 60.19 99.1003C59.8527 98.3523 59.684 97.509 59.684 96.5703C59.684 95.5876 59.86 94.7223 60.212 93.9743C60.564 93.2116 61.0333 92.625 61.62 92.2143C62.2213 91.8036 62.8667 91.5983 63.556 91.5983C64.0987 91.5983 64.5607 91.6423 64.942 91.7303C65.338 91.8183 65.932 91.987 66.724 92.2363L67.758 89.8603ZM78.9137 104.006L74.7557 98.1103L73.4357 99.4303V104.006H69.9817V89.0463H73.4357V94.7663L79.6837 88.7163L82.3017 90.6523L77.1757 95.7123L83.2477 104.006H78.9137ZM84.5966 98.5943L87.3246 99.5623L87.6986 88.4303H84.2006L84.5966 98.5943ZM85.9606 100.376C85.4473 100.376 85.0146 100.552 84.6626 100.904C84.3106 101.256 84.1346 101.689 84.1346 102.202C84.1346 102.701 84.3106 103.126 84.6626 103.478C85.0146 103.83 85.4473 104.006 85.9606 104.006C86.4739 104.006 86.8993 103.83 87.2366 103.478C87.5886 103.126 87.7646 102.701 87.7646 102.202C87.7646 101.689 87.5886 101.256 87.2366 100.904C86.8993 100.552 86.4739 100.376 85.9606 100.376Z" fill="#FFFFFA" className='text'/>
<path d="M50.6289 43.5409C50.5566 43.5409 50.5566 43.5409 50.6289 43.5409C49.544 40.7925 49.0377 39.2013 48.8931 38.1887C48.8931 38.261 48.8931 38.3334 48.9654 38.4057C48.9654 38.5504 49.0377 38.695 49.0377 38.7673C49.11 38.912 49.11 39.0566 49.1824 39.129L50.6289 43.5409Z" fill="#FF0000"/>
<path d="M78.8707 35.2956L66.0688 39.2013L64.6223 26.3271L68.8896 29.0032L70.3361 26.761L76.0499 30.3774L74.6034 32.6195L78.8707 35.2956ZM81.9084 21.2642L76.1946 17.6478L72.5782 23.3617L78.2921 26.978L81.9084 21.2642Z" fill="#247249" className='arrow'/>
<path d="M62.0185 69.7233C61.9461 69.7233 61.9461 69.7233 61.8738 69.7233H61.8015C61.9461 69.651 61.9461 69.651 62.0185 69.7233Z" fill="#D9E021"/>
<path d="M84.4398 69.9403C84.5845 69.7956 84.5845 69.651 84.4398 69.5063C84.0782 68.9277 78.943 61.4057 74.2417 54.5346H82.704C83.0656 54.5346 83.4273 54.2453 83.4273 53.8113V50.9183C83.4273 50.5566 83.138 50.195 82.704 50.195H74.1694C76.0499 48.0252 77.7134 47.8805 80.9681 47.5912C81.8361 47.5189 82.7763 47.4466 83.8612 47.3019C84.0782 47.3019 84.2229 47.0849 84.1505 46.8679C84.1505 46.651 83.9336 46.5063 83.7166 46.5786C82.6317 46.7233 81.6914 46.7956 80.8958 46.8679C77.4964 47.1572 75.4713 47.3742 73.2292 50.195H71.204C70.0468 48.5315 69.0342 47.0849 68.1663 45.9277C67.226 44.3365 65.8518 42.239 65.3455 42.239H61.0059C59.5593 42.239 58.8361 42.9623 58.8361 43.6856C58.8361 44.4088 61.0059 44.4088 62.4524 44.4088C63.5373 44.4088 65.3455 44.4088 66.4304 44.6981C67.226 45.783 68.6002 47.7359 70.3361 50.195H67.5153C67.1537 50.195 66.792 50.4843 66.792 50.9183V53.8837C66.792 54.2453 67.0814 54.6069 67.5153 54.6069H70.4807C68.3109 58.0786 65.6348 62.7076 63.8266 65.8176C63.8266 65.8176 63.8266 65.8176 63.7543 65.89C62.8864 67.3365 62.2354 68.4214 62.0185 68.9277C61.5845 68.783 61.1505 68.7107 60.7166 68.7107C58.6914 68.7107 57.1002 70.3019 57.1002 72.3271C57.1002 74.3522 58.6914 75.9434 60.7166 75.9434C62.7417 75.9434 64.3329 74.3522 64.3329 72.3271C64.3329 71.0252 63.682 69.9403 62.6694 69.2893C62.9587 68.783 63.5373 67.7705 64.3329 66.3962H81.2575C81.3298 66.3962 81.4021 66.3962 81.4744 66.3239C82.1254 67.2642 82.7763 68.2044 83.3549 69.0724C82.8486 68.8554 82.3424 68.7107 81.7637 68.7107C79.7386 68.7107 78.1474 70.3019 78.1474 72.3271C78.1474 74.3522 79.7386 75.9434 81.7637 75.9434C83.7889 75.9434 85.3801 74.3522 85.3801 72.3271C85.2354 71.3868 84.9461 70.5912 84.4398 69.9403ZM63.5373 72.2547C63.5373 73.8459 62.2354 75.1478 60.6442 75.1478C59.0531 75.1478 57.7512 73.8459 57.7512 72.2547C57.7512 70.6635 59.0531 69.3617 60.6442 69.3617C61.0782 69.3617 61.5122 69.434 61.8738 69.651C61.9461 69.651 62.0185 69.7233 62.0185 69.7233C62.9587 70.2296 63.5373 71.1698 63.5373 72.2547ZM64.6946 65.6006C66.5751 62.4182 69.2512 57.8617 71.2763 54.5346H73.3015C75.7606 58.151 78.509 62.1289 80.8958 65.6006H64.6946ZM81.6191 75.1478C80.0279 75.1478 78.726 73.8459 78.726 72.2547C78.726 70.6635 80.0279 69.3617 81.6191 69.3617C83.2103 69.3617 84.5122 70.6635 84.5122 72.2547C84.5122 73.8459 83.2103 75.1478 81.6191 75.1478Z" fill="#6F4C23" className='walker'/>
<path d="M62.2355 44.4088C61.6568 44.9151 61.0059 45.132 60.2826 45.132C59.487 45.132 58.6914 44.8427 58.1128 44.1918L50.8801 36.2358C50.7355 36.0912 50.5908 35.8742 50.4462 35.5849C50.3738 35.9465 50.2292 36.2358 50.1568 36.5251C51.3141 37.9717 52.9053 39.2012 53.4116 39.7075C53.9902 40.2861 56.8109 43.1069 58.4745 44.7704C57.8958 45.349 57.0279 45.4937 56.3046 45.4937C55.5814 45.4937 54.7858 45.2044 54.2795 44.6257L48.9996 39.3459C48.204 41.0094 47.1914 42.6729 46.1065 44.0471L55.943 53.8836C56.9556 54.8962 57.3896 56.4151 56.9556 57.8616L51.8927 74.4968C51.3864 76.2327 49.7952 77.3176 48.0594 77.3176C47.6977 77.3176 47.2638 77.2452 46.9021 77.1729C44.8046 76.522 43.5751 74.2798 44.226 72.1823L46.3958 64.9496L47.0468 62.9245L46.9745 63.0691L48.421 57.8616C48.421 57.8616 43.3581 52.0754 41.9116 50.6289C40.465 49.1824 41.1883 51.3522 45.5279 55.6918C47.6977 57.8616 47.6977 58.5849 47.6977 58.5849L45.6726 64.6603L37.355 74.4968C36.5594 75.4371 35.4745 75.9434 34.3172 75.9434C33.4493 75.9434 32.509 75.654 31.7858 75.0031C30.1223 73.5566 29.9053 71.0974 31.2795 69.3616L41.0436 57.7893L34.4619 46.5062C34.1726 45.9276 33.9556 45.349 33.9556 44.7704C33.6663 43.3239 33.7386 41.5157 34.6789 39.0566C36.8487 33.2704 40.465 23.8679 42.6348 20.9748C44.226 18.805 46.2512 17.8648 48.0594 17.7924C46.9021 16.4905 46.2512 14.827 46.2512 13.0188C46.2512 9.04085 49.5059 5.78613 53.4839 5.78613C57.4619 5.78613 60.7166 9.04085 60.7166 13.0188C60.7166 16.9968 57.4619 20.2515 53.4839 20.2515C53.0499 20.2515 52.616 20.1792 52.182 20.1069C52.6883 20.9025 53.0499 21.7704 53.2669 22.566C53.4116 22.783 53.4116 23 53.4839 23.1446L55.726 32.9088L62.5248 40.3584C63.465 41.4434 63.3927 43.3239 62.2355 44.4088Z" fill="#252525" className='person'/>
</svg>
