<svg viewBox="0 0 115 115" fill="none" xmlns="http://www.w3.org/2000/svg">
<rect x="0.888879" y="0.722222" width="113.389" height="113.389" rx="6.5" fill="#FFFFFA" className='background' stroke="#252525" stroke-width="1.44444"/>
<path d="M0.166656 80.8889H115V107.611C115 111.6 111.766 114.833 107.778 114.833H7.38888C3.40016 114.833 0.166656 111.6 0.166656 107.611V80.8889Z" fill="#252525" className='bottom'/>
<path d="M19.997 103.889V88.9289H16.565V95.0669H10.999V88.7969L7.56701 88.9289V103.889H10.999V97.7949H16.565V103.889H19.997ZM30.0833 88.5989C28.6167 88.6136 27.3113 88.9582 26.1673 89.6329C25.0233 90.3076 24.1287 91.2389 23.4833 92.4269C22.8527 93.6149 22.5373 94.9642 22.5373 96.4749C22.5373 97.9122 22.838 99.2176 23.4393 100.391C24.0553 101.564 24.928 102.496 26.0573 103.185C27.2013 103.86 28.5433 104.197 30.0833 104.197C31.55 104.182 32.8553 103.845 33.9993 103.185C35.1433 102.51 36.0307 101.579 36.6613 100.391C37.3067 99.2029 37.6293 97.8462 37.6293 96.3209C37.6293 94.8836 37.3287 93.5782 36.7273 92.4049C36.126 91.2316 35.2533 90.3076 34.1093 89.6329C32.98 88.9436 31.638 88.5989 30.0833 88.5989ZM26.1013 96.4529C26.1013 95.4702 26.2847 94.6049 26.6513 93.8569C27.018 93.0942 27.502 92.5076 28.1033 92.0969C28.7193 91.6862 29.394 91.4809 30.1273 91.4809C30.9193 91.4809 31.6087 91.6936 32.1953 92.1189C32.7967 92.5296 33.2587 93.1016 33.5813 93.8349C33.904 94.5682 34.0653 95.3969 34.0653 96.3209C34.0653 97.4062 33.8893 98.3229 33.5373 99.0709C33.1853 99.8189 32.7013 100.384 32.0853 100.765C31.484 101.132 30.8093 101.315 30.0613 101.315C28.844 101.315 27.876 100.868 27.1573 99.9729C26.4533 99.0636 26.1013 97.8902 26.1013 96.4529ZM50.0593 101.205H43.5693V88.9289H40.1373V103.889H50.4553L50.0593 101.205ZM58.6734 103.889C60.096 103.889 61.3354 103.581 62.3914 102.965C63.4474 102.349 64.2614 101.476 64.8334 100.347C65.4054 99.2029 65.6914 97.8609 65.6914 96.3209C65.6914 94.8689 65.4274 93.5929 64.8994 92.4929C64.3714 91.3782 63.5794 90.5056 62.5234 89.8749C61.482 89.2442 60.2134 88.9289 58.7174 88.9289H52.4694V103.889H58.6734ZM58.6734 91.7229C59.8027 91.7229 60.6607 92.1336 61.2474 92.9549C61.834 93.7762 62.1274 94.8982 62.1274 96.3209C62.1274 97.9342 61.8047 99.1369 61.1594 99.9289C60.514 100.721 59.634 101.117 58.5194 101.117H55.9014V91.7229H58.6734ZM79.5189 88.5989C78.0522 88.6136 76.7469 88.9582 75.6029 89.6329C74.4589 90.3076 73.5642 91.2389 72.9189 92.4269C72.2882 93.6149 71.9729 94.9642 71.9729 96.4749C71.9729 97.9122 72.2735 99.2176 72.8749 100.391C73.4909 101.564 74.3635 102.496 75.4929 103.185C76.6369 103.86 77.9789 104.197 79.5189 104.197C80.9855 104.182 82.2909 103.845 83.4349 103.185C84.5789 102.51 85.4662 101.579 86.0969 100.391C86.7422 99.2029 87.0649 97.8462 87.0649 96.3209C87.0649 94.8836 86.7642 93.5782 86.1629 92.4049C85.5615 91.2316 84.6889 90.3076 83.5449 89.6329C82.4155 88.9436 81.0735 88.5989 79.5189 88.5989ZM75.5369 96.4529C75.5369 95.4702 75.7202 94.6049 76.0869 93.8569C76.4535 93.0942 76.9375 92.5076 77.5389 92.0969C78.1549 91.6862 78.8295 91.4809 79.5629 91.4809C80.3549 91.4809 81.0442 91.6936 81.6309 92.1189C82.2322 92.5296 82.6942 93.1016 83.0169 93.8349C83.3395 94.5682 83.5009 95.3969 83.5009 96.3209C83.5009 97.4062 83.3249 98.3229 82.9729 99.0709C82.6209 99.8189 82.1369 100.384 81.5209 100.765C80.9195 101.132 80.2449 101.315 79.4969 101.315C78.2795 101.315 77.3115 100.868 76.5929 99.9729C75.8889 99.0636 75.5369 97.8902 75.5369 96.4529ZM93.0049 103.889V94.9569L99.3409 103.889H102.641V88.9289H99.2089V97.9709L92.8729 88.9289H89.5729V103.889H93.0049ZM105.584 98.4769L108.312 99.4449L108.686 88.3129H105.188L105.584 98.4769ZM106.948 100.259C106.435 100.259 106.002 100.435 105.65 100.787C105.298 101.139 105.122 101.572 105.122 102.085C105.122 102.584 105.298 103.009 105.65 103.361C106.002 103.713 106.435 103.889 106.948 103.889C107.462 103.889 107.887 103.713 108.224 103.361C108.576 103.009 108.752 102.584 108.752 102.085C108.752 101.572 108.576 101.139 108.224 100.787C107.887 100.435 107.462 100.259 106.948 100.259Z" fill="#FFFFFA" className='text'/>
<path d="M86.6166 47.8111C86.7611 47.5944 86.8333 47.3778 86.9777 47.0889C86.8333 47.3055 86.6889 47.5944 86.6166 47.8111Z" fill="#FF0000"/>
<path d="M54.8388 35.0278C53.8277 35.0278 52.4555 35.1 50.5055 35.1C52.0944 35.1 53.5388 35.1 54.8388 35.0278Z" fill="#FF00FF"/>
<path d="M56.0666 47.1808C55.8499 47.0364 55.561 46.7475 55.1277 46.3864L56.0666 47.1808Z" fill="#FF0000"/>
<path d="M56.1389 47.253L56.3561 47.5426C56.2837 47.4702 56.2113 47.3978 56.1389 47.253Z" fill="#FF0000"/>
<path d="M77.8055 14.753L63.0722 18.5086C62.7833 18.5808 62.5666 18.4364 62.4944 18.1475L62.3499 17.7141C62.2777 17.4252 62.4222 17.2086 62.7111 17.1363L77.4444 13.3808C77.7333 13.3085 77.9499 13.453 78.0222 13.7419L78.1666 14.1752C78.1666 14.3919 78.0222 14.6808 77.8055 14.753Z" fill="#6F4C23" className='cover'/>
<path d="M69.1388 29.4864L78.5999 29.9197C77.3722 30.8586 75.7833 31.3642 74.1221 31.3642C72.2444 31.3642 70.4388 30.642 69.1388 29.4864ZM67.3333 20.3864C66.9722 21.1086 66.6833 21.9753 66.611 22.8419L70.4388 22.9864L67.3333 20.3864ZM74.1221 16.1975C73.6166 16.1975 73.111 16.2697 72.6055 16.3419L81.7055 23.9253V23.7808C81.7055 19.5919 78.311 16.1975 74.1221 16.1975ZM83.7277 64.5142L77.2277 42.8475C76.7221 41.1864 75.2055 40.0308 73.3999 40.0308H56.4277C57.1499 40.0308 59.3166 39.3086 60.761 38.5864C62.2055 37.8642 66.5388 34.2531 67.261 32.8086C67.5499 32.1586 67.911 30.7142 67.9833 29.053L79.1055 29.5586H79.2499C79.3944 29.5586 79.4666 29.5586 79.611 29.5586C79.7555 29.5586 79.8277 29.5586 79.9722 29.5586C80.7666 29.5586 81.6333 29.1975 82.211 28.5475C83.2222 27.3197 83.0777 25.5142 81.8499 24.5031L68.8499 13.6697C67.6222 12.6586 65.8166 12.8031 64.8055 14.0308C63.7944 15.2586 63.9388 17.0641 65.1666 18.0753L70.9444 22.9142C76.6499 23.6364 80.1166 24.8641 76.7944 24.2141C74.5555 23.7808 71.3777 23.4919 69.2833 23.4197C69.1388 23.4197 68.9944 23.4197 68.9221 23.4197L67.1166 23.3475H66.4666C64.2999 21.4697 60.8333 22.1197 58.7388 22.8419C56.5722 23.5642 50.0722 28.6197 46.461 32.2308C39.961 38.7308 38.5166 45.2308 38.5166 46.6753C38.5166 48.1197 39.961 51.7308 42.8499 51.7308C45.2333 51.7308 59.6055 51.2253 64.8055 50.2141C64.8055 50.2141 64.8055 50.2142 64.8055 50.2864L71.6666 68.3419C72.2444 69.9308 73.761 70.8697 75.3499 70.8697C75.8555 70.8697 76.2888 70.7975 76.7222 70.5808C78.7444 69.7864 79.8277 67.5475 79.0332 65.4531L71.0888 44.5086C70.511 42.9919 69.0666 41.9808 67.4055 41.9808H62.9277C62.9277 41.8364 62.9277 41.7642 62.9277 41.6197H67.4055C69.211 41.6197 70.7999 42.703 71.4499 44.4364L79.3944 65.3808C79.8277 66.4641 79.7555 67.6197 79.3222 68.7031C79.1777 69.0642 79.0333 69.3531 78.7444 69.5697C79.1777 69.7142 79.611 69.7864 80.0444 69.7864C80.4055 69.7864 80.8388 69.7142 81.1999 69.6419C83.1499 68.8475 84.3055 66.6086 83.7277 64.5142Z" fill="#252525" className='person'/>
<path d="M45.9556 56.6418C44.5833 56.6418 43.4278 57.7974 43.4278 59.1696C43.4278 60.5418 44.5833 61.6974 45.9556 61.6974C47.3278 61.6974 48.4833 60.5418 48.4833 59.1696C48.4833 57.7974 47.3278 56.6418 45.9556 56.6418ZM45.9556 56.6418C44.5833 56.6418 43.4278 57.7974 43.4278 59.1696C43.4278 60.5418 44.5833 61.6974 45.9556 61.6974C47.3278 61.6974 48.4833 60.5418 48.4833 59.1696C48.4833 57.7974 47.3278 56.6418 45.9556 56.6418ZM66.5389 55.1974L71.5945 72.5307L78.0945 71.8085L77.5889 69.7863C73.6167 72.0252 72.2444 69.5696 71.1611 67.3307C70.15 65.3085 67.4778 55.1252 66.6834 52.3085H65.9611V48.3363C65.9611 45.2307 64.1556 43.4252 61.05 43.4252H38.1556C37.5056 39.3807 37.1444 35.4807 36.8556 33.4585C36.1333 28.4029 36.1333 26.9585 35.4111 25.5141C34.6889 24.0696 33.2444 24.0696 32.5222 24.0696C32.0889 24.0696 31.5833 24.1418 31.15 24.214C29.7778 21.1807 27.8278 21.3252 26.5278 21.3974C26.3833 21.3974 26.1667 21.3974 26.0222 21.3974C25.7333 21.3974 25.4445 21.614 25.4445 21.9752C25.4445 22.264 25.6611 22.5529 26.0222 22.5529C26.1667 22.5529 26.3834 22.5529 26.6 22.5529C27.9 22.4807 29.4167 22.4085 30.5722 25.8029C31.7278 29.2696 34.3278 43.2807 35.2667 48.4085C32.45 51.1529 30.7167 54.9807 30.7167 59.2418C30.7167 67.6196 37.5056 74.4085 45.8833 74.4085C54.2611 74.4085 61.05 67.6196 61.05 59.2418C61.05 57.8696 60.9056 56.5696 60.5445 55.3418L64.8056 55.1252V66.3918C62.7111 66.464 61.05 68.1974 61.05 70.364C61.05 72.5307 62.8556 74.3363 65.0222 74.3363C67.1889 74.3363 68.9944 72.5307 68.9944 70.364C68.9944 68.4863 67.6945 66.8974 65.9611 66.464V55.1974H66.5389ZM41.9111 44.5807C40.7556 44.8696 39.6722 45.3029 38.6611 45.8807C38.5167 45.4474 38.4445 45.014 38.3722 44.5807H41.9111ZM45.9556 46.1696C49.9278 46.1696 53.4667 47.9752 55.9222 50.7918C55.2 50.8641 54.4056 50.864 53.6111 50.864C45.6667 50.864 41.3333 50.864 40.6111 50.1418C40.25 49.7807 39.8167 48.9863 39.4556 47.9752C41.3333 46.8196 43.5722 46.1696 45.9556 46.1696ZM36.1333 50.6474C36.1333 50.7196 36.0611 50.7196 35.9889 50.7918V50.6474C36.0611 50.6474 36.0611 50.6474 36.1333 50.6474ZM45.9556 72.1696C38.8056 72.1696 32.9556 66.3196 32.9556 59.1696C32.9556 55.9918 34.1111 53.1029 35.9889 50.7918L36.2056 56.6418L58.3778 55.414C58.7389 56.6418 58.9556 57.8696 58.9556 59.1696C58.9556 66.3196 53.1056 72.1696 45.9556 72.1696ZM58.45 50.5751C56.4278 47.6862 53.4667 45.5196 50 44.5807H61.1222C62.8556 44.5807 64.8778 45.2307 64.8778 48.3363V49.0585C63.7945 49.4918 61.6278 50.214 58.45 50.5751ZM67.6222 70.364C67.6222 71.7363 66.4667 72.8918 65.0945 72.8918C63.7222 72.8918 62.5667 71.7363 62.5667 70.364C62.5667 68.9918 63.7222 67.8363 65.0945 67.8363C66.4667 67.8363 67.6222 68.9918 67.6222 70.364ZM45.9556 56.6418C44.5833 56.6418 43.4278 57.7974 43.4278 59.1696C43.4278 60.5418 44.5833 61.6974 45.9556 61.6974C47.3278 61.6974 48.4833 60.5418 48.4833 59.1696C48.4833 57.7974 47.3278 56.6418 45.9556 56.6418Z" fill="#6F4C23" className='wheelchair'/>
</svg>
